<?xml version="1.0" encoding="UTF-8" standalone="no"?>
<!DOCTYPE svg PUBLIC "-//W3C//DTD SVG 1.1//EN" "http://www.w3.org/Graphics/SVG/1.1/DTD/svg11.dtd">
<svg width="100%" height="100%" viewBox="0 0 400 400" version="1.1" xmlns="http://www.w3.org/2000/svg" xmlns:xlink="http://www.w3.org/1999/xlink" xml:space="preserve" xmlns:serif="http://www.serif.com/" style="fill-rule:evenodd;clip-rule:evenodd;stroke-linejoin:round;stroke-miterlimit:2;">
    <g transform="matrix(1.68407,0,0,1.68407,-182.321,-106.23)">
        <path d="M195.033,260.387C194.837,260.956 193.012,260.148 192.734,259.871C192.161,259.297 190.842,259.405 190.318,259.667C189.226,260.213 188.074,260.876 186.802,261.512C186.365,261.731 184.264,263.24 183.849,262.825C182.955,261.931 185.219,261.223 184.77,260.775C184.699,260.704 182.744,260.797 182.373,260.797C181.247,260.797 180.761,261.088 179.912,261.512C178.311,262.313 176.73,263.103 175.1,263.918C174.097,264.42 174.076,262.676 173.679,262.278C173.416,262.016 172.761,262.628 172.585,262.715C171.593,263.211 171.258,264.165 170.223,264.682C168.553,265.517 169.652,263.105 169.983,262.581C170.525,261.727 170.846,260.793 172.881,259.776C173.857,259.288 173.872,258.362 174.981,257.808C176.792,256.903 178.897,257.57 180.968,256.933C182.311,256.52 184.918,255.742 186.028,255.187C187.576,254.413 188.719,253.691 190.105,252.617C191.552,251.497 193.425,249.674 194.64,248.459C197.042,246.057 199.09,243.968 201.402,241.657C202.666,240.392 204.214,238.293 205.764,237.518C206.291,237.255 207.214,236.743 207.553,236.064C207.666,235.839 205.953,235.792 205.764,235.729C204.647,235.356 203.422,235.321 202.296,234.946C199.075,233.872 195.407,232.798 192.454,230.584C187.306,226.723 181.78,223.489 177.243,218.952C175.021,216.729 172.654,214.027 170.532,211.905C169.321,210.694 165.726,203.616 165.209,202.192C163.874,198.516 163.571,194.979 163.486,190.766C163.451,189.083 163.39,186.451 163.374,184.726C163.355,182.694 163.606,180.414 163.821,178.91C163.98,177.798 164.204,176.691 164.716,175.667C165.75,173.599 165.973,170.044 165.723,167.502C165.473,164.969 165.02,158.406 164.585,157.971C162.914,156.3 159.886,156.452 157.124,155.086C153.509,153.298 149.328,153.108 145.694,150.938C145.315,150.712 152.091,148.058 151.677,147.644C151.037,147.004 145.77,150.292 146.861,147.798C147.358,146.661 148.616,145.354 149.578,144.586C151.948,142.692 154.287,141.038 156.377,139.993C157.749,139.307 161.699,136.906 162.826,135.552C166.878,130.687 169.334,128.366 170.42,122.987C171.539,117.444 173.821,111.517 176.551,106.284C178.084,103.344 179.592,100.489 181.269,97.71C182.425,95.795 186.25,92.144 186.938,92.861C187.31,93.248 183.862,97.954 183.939,98.031C184.264,98.356 185.717,96.729 185.967,96.479C187.593,94.853 188.698,94.008 190.407,93.324C190.57,93.258 191.923,93.285 191.93,93.293C192.362,93.725 190.923,95.497 190.576,96.235C189.878,97.717 188.106,99.733 187.729,101.018C187.52,101.728 186.526,104.197 186.526,104.197C186.526,104.197 187.7,102.975 188.204,102.295C188.869,101.397 191.601,98.016 192.253,98.016C192.697,98.016 192.029,99.321 192.006,99.387C191.695,100.322 190.552,101.96 190.552,101.96C190.552,101.96 192.548,100.917 192.901,101.624C193.18,102.182 192.308,103.576 192.07,104.052C190.711,106.771 189.011,108.745 187.494,111.778C187.143,112.48 184.836,116.5 184.96,116.5C185.699,116.5 187.145,114.948 187.83,114.141C188.767,113.037 190.246,111.849 191.861,111.664C193.145,111.517 194.32,110.467 195.315,109.472C196.393,108.394 197.977,105.469 198.046,105.539C198.632,106.125 196.558,110.874 196.592,110.908C196.704,111.02 198.627,109.813 198.776,109.692C200.047,108.659 202.29,107.78 202.172,108.247C201.841,109.552 200.323,112.731 200.384,112.792C200.44,112.848 206.067,110.875 206.323,111.131C206.418,111.226 203.671,113.335 203.485,113.522C201.601,115.405 200.064,114.856 198.366,116.554C197.871,117.049 197.342,117.493 197.342,117.493C197.342,117.493 202.674,116.566 201.209,117.495C200.327,118.055 196.949,119.499 196.257,120.191C195.511,120.937 198.365,120.357 198.829,120.303C200.663,120.086 205.693,120.174 206.304,120.588C207.184,121.184 207.866,121.15 208.015,121.299C208.384,121.668 206.012,122.122 205.763,122.222C204.556,122.71 204.022,122.704 202.743,123.222C201.99,123.527 196.416,124.524 196.408,125.337C196.403,125.921 200.019,126.413 201.951,125.916C202.564,125.758 201.545,129.406 201.716,129.413C203.275,129.476 205.673,129.644 205.987,129.81C208.175,130.961 201.931,130.801 202.233,130.995C202.785,131.35 203.437,133.534 203.473,133.843C203.562,134.613 202.675,134.201 202.452,134.58C202.262,134.905 204.385,136.962 203.745,137.602C203.614,137.733 202.174,138.206 202.275,138.36C202.42,138.58 202.634,139.964 203.437,141.364C204.632,143.447 207.023,145.813 207.442,147.301C207.774,148.479 208.579,150.358 209.266,151.645C210.533,154.017 212.352,158.62 212.567,161.41C212.677,162.836 212.948,164.626 214.046,165.724C214.511,166.189 216.239,166.908 216.813,167.256C218.671,168.378 223.114,170.554 224.411,171.851C230.109,177.549 232.001,179.943 237.647,184.805C245.251,191.354 254.042,198.645 259.43,205.694C261.691,208.652 264.193,212.231 266.965,214.117C268.644,215.26 270.451,216.054 272.421,217.039C274.159,217.908 278.847,220.659 279.446,220.942C283.62,222.909 287.319,225.318 291.602,227.852C292.237,228.228 295.388,230.505 295.766,230.883C296.078,231.195 298.557,233.516 299.752,233.998C300.859,234.446 302.781,235.847 303.235,236.053C304.873,236.796 308.777,239.609 308.33,240.143C307.612,241.002 307.296,242.199 306.054,242.613C305.154,242.913 302.627,243.165 300.856,243.214C298.843,243.27 298.306,242.081 296.614,241.836C294.22,241.489 289.866,239.817 286.324,238.241C284.119,237.26 272.905,236.353 265.418,231.362C262.938,229.709 259.478,228.596 257.379,227.366C255.934,226.519 252.851,225.323 251.786,224.258C251.312,223.784 249.543,224.264 248.372,224.196C247.909,224.169 245.38,223.255 244.838,223.796C243.227,225.408 245.206,227.998 243.533,229.671C240.884,232.319 236.283,232.927 235.998,233.44C235.785,233.824 236.796,234.206 237.089,235.114C237.534,236.495 237.484,238.08 237.496,238.872C237.517,240.243 236.714,242.221 235.631,243.304C232.897,246.038 231.325,251.369 229.507,255.006C229.095,255.83 228.718,259.333 229.179,260.255C230.019,261.935 231.519,259.067 232.761,260.308C233.469,261.017 234.403,262.173 234.865,263.098C234.98,263.328 235.633,264.3 235.303,264.629C234.504,265.428 231.126,264.936 230.163,263.973C229.972,263.782 228.829,264.235 228.741,264.411C228.399,265.096 225.974,266.122 225.242,266.488C223.62,267.299 221.645,267.795 220.102,268.566C218.579,269.328 216.831,268.337 215.618,269.55C215.181,269.988 213.65,269.332 213.212,269.769C212.501,270.481 209.428,269.922 208.947,269.441C208.267,268.761 205.591,270.299 205.12,270.535C204.954,270.617 203.994,271.05 203.807,270.863C203.626,270.681 203.831,269.503 203.917,269.332C204.905,267.355 205.679,268.341 207.416,267.473C208.043,267.159 207.54,266.365 207.963,265.942C208.702,265.203 209.934,265.722 210.806,265.285C211.152,265.112 211.267,264.496 211.462,264.301C211.823,263.941 213.463,263.629 214.087,263.317C215.467,262.627 218.369,264.146 219.525,262.99C221.065,261.45 222.493,259.739 223.492,257.74C225.793,253.138 227.508,249.052 229.726,244.616C230.146,243.775 228.481,240.268 228.085,239.476C227.644,238.593 229.04,236.167 228.523,235.649C228.2,235.326 226.539,235.78 226.233,235.846C223.978,236.328 223.181,236.861 221.116,237.341C219.257,237.773 216.548,237.4 214.691,237.4C214.146,237.4 211.605,236.634 211.171,237.068C207.024,241.215 202.037,246.747 197.251,251.533C195.927,252.858 194.262,254.004 194.688,255.494C194.922,256.314 195.29,259.639 195.033,260.387Z" style="fill:none;"/>
    </g>
</svg>
