<?xml version="1.0" encoding="UTF-8" standalone="no"?>
<!DOCTYPE svg PUBLIC "-//W3C//DTD SVG 1.1//EN" "http://www.w3.org/Graphics/SVG/1.1/DTD/svg11.dtd">
<svg width="100%" height="100%" viewBox="0 0 400 400" version="1.1" xmlns="http://www.w3.org/2000/svg" xmlns:xlink="http://www.w3.org/1999/xlink" xml:space="preserve" xmlns:serif="http://www.serif.com/" style="fill-rule:evenodd;clip-rule:evenodd;stroke-linejoin:round;stroke-miterlimit:2;">
    <g transform="matrix(1.17478,0,0,1.18455,-25.0965,-9.0534)">
        <path d="M164.878,84.081C163.024,84.098 155.565,83.823 154.473,84.914C151.84,87.547 148.951,90.824 144.972,94.238C141.953,96.828 137.178,99.785 135.568,102.436C134.234,104.634 135.314,108.647 135.314,110.146C135.314,113.415 135.685,116.895 135.452,120.342C134.706,131.36 135.492,143.175 135.492,154.197C135.492,177.842 134.529,202.422 131.175,225.899C129.993,234.174 127.872,266.115 128.047,268.689C128.181,270.658 142.859,268.549 149.678,268.549C156.821,268.549 165.243,269 172.39,270.192C185.312,272.345 194.436,269.676 206.908,270.12C211.705,270.29 219.418,270.03 224.146,271.606C225.159,271.944 232.925,270.162 233.186,269.034C235.007,261.143 230.745,241.176 232.134,231.175C232.965,225.191 232.323,218.967 231.655,212.95C229.296,191.718 229.869,170.079 234.053,149.161C234.756,145.642 233.952,141.85 234.532,138.369C236.054,129.239 236.211,118.23 236.211,109.113C236.211,107.297 237.451,101.24 236.211,100C235.212,99.001 233.347,99.522 231.894,99.52C228.326,99.516 223.418,99.803 219.182,99.683C203.908,99.249 186.211,101.098 170.768,101.098C165.892,101.098 157.508,100.184 152.506,100.879C150.873,101.105 148.294,101.543 146.477,101.323C145.793,101.24 142.287,101.518 143.578,100.327C145.288,98.75 153.877,99.438 159.488,99.318C164.144,99.218 173.733,98.26 177.509,98.512C182.336,98.836 190.288,98.471 195.063,97.516C201.864,96.156 212.335,96.889 217.746,97.02C222.446,97.133 230.982,96.564 235.765,97.007C237.23,97.142 238.319,98.04 238.609,100C239.168,103.772 238.953,110.499 238.953,114.511C238.953,123.478 238.677,133.183 236.484,141.954C235.449,146.095 235.143,168.52 233.297,174.056C232.02,177.889 233.477,196.605 233.209,200.498C232.609,209.205 234.282,219.672 234.282,228.524C234.282,239.071 235.175,248.595 235.175,259.221C235.175,261.488 235.724,267.625 237.604,266.86C239.073,266.261 237.291,260.028 237.291,257.456C237.291,254.851 236.691,233.051 236.691,228.058C236.691,215.589 236.38,203.06 236.38,190.338C236.38,184.814 237.296,165.264 237.296,163.493C237.296,158.966 238.681,136.419 240.85,129.913C241.532,127.868 242.311,98.319 240.819,96.827C236.822,92.83 230.123,95.103 224.174,94.808C214.564,94.332 201.467,95.895 190.502,95.895C185.86,95.895 171.001,96.296 169.211,96.296C168.358,96.296 157.047,96.696 152.854,96.533C150.096,96.426 148.392,96.277 148.803,95.351C149.405,93.998 152.447,94.458 153.55,94.458C159.71,94.458 164.528,93.691 170.591,93.691C176.906,93.691 183.959,93.71 190.363,93.71C192.513,93.71 212.004,92.519 216.27,92.539C221.29,92.562 236.196,92.199 237.41,92.806C240.452,94.327 240.439,94.078 242.54,96.179C243.579,97.218 243.645,101.93 243.645,103.357C243.645,107.615 243.506,121.337 243.489,123.054C243.393,132.351 241.493,144.745 240.633,152.645C240.395,154.83 238.143,187.252 239.271,190.637C239.703,191.932 239.169,212.452 238.786,217.53C238.35,223.318 239.568,231.066 239.568,236.93C239.568,238.737 239.263,252.892 239.396,256.671C239.482,259.103 240.02,263.667 240.988,262.797C241.518,262.32 242.511,260.77 242.18,254.883C241.962,251.014 242.604,247.42 241.908,243.937C240.421,236.506 241.977,230.145 241.977,222.527C241.977,216.847 242.106,209.407 242.172,203.177C242.203,200.272 241.704,196.752 241.964,194.531C242.433,190.534 242.458,169.062 243.055,168.466C244.063,167.458 243.802,154.978 243.976,153.444C244.484,148.97 245.275,134.965 245.275,131.596C245.275,123.569 246.478,115.193 245.87,107.583C245.408,101.802 246.029,98.106 243.537,93.122C242.289,90.626 226.284,90.037 220.92,89.973C217.094,89.927 209.463,91.144 205.433,91.144C196.312,91.144 184.249,91.112 175.561,91.301C168.716,91.45 161.117,91.634 156.502,92.06C152.273,92.451 153.912,91.604 153.376,91.068C152.684,90.376 155.769,90.036 157.129,90.24C162.222,91.003 161.669,90.103 166.355,89.906C170.021,89.751 173.122,88.789 176.443,88.789C180.403,88.789 185.759,88.518 189.6,89.024C195.622,89.818 204.807,88.202 209.758,88.165C213.543,88.136 227.639,88.06 228.447,88.181C232.892,88.848 241.879,87.447 244.634,90.202C249.865,95.433 247.96,101.148 248.427,109.63C248.525,111.399 248.056,116.725 248.013,119.703C247.951,123.918 247.142,128.306 247.142,131.755C247.142,141.527 246.529,151.482 245.434,160.366C245.01,163.815 245.815,168.817 244.977,172.17C243.766,177.014 244.818,183.895 244.632,188.909C244.5,192.47 244.436,196.279 244.322,199.319C244.127,204.506 243.875,212.824 243.875,218.21C243.875,231.719 243.776,240.632 243.996,254.14C244.035,256.507 244.19,259.273 245.375,259.014C246.568,258.752 246.233,258.179 246.233,254.419C246.233,245.539 246.561,238.459 246.561,229.466C246.561,225.353 246.698,203.656 247.094,202.069C247.609,200.01 248.365,171.741 248.365,170.622C248.365,164.29 250.212,158.564 249.165,150.552C248.703,147.011 250.368,128.672 250.368,126.897C250.368,120.2 251.185,114.39 250.164,107.497C249.78,104.901 250.783,99.689 249.308,95.212C248.175,91.773 248.796,90.539 246.772,88.515C245.067,86.81 241.159,86.526 239.15,86.192C237.317,85.887 216.042,86.221 208.102,86.221C198.025,86.221 190.952,87.491 180.355,87.007C175.731,86.796 168.355,88.523 163.167,88.324C159.436,88.18 160.866,88 159.085,88.108C157.145,88.226 155.831,88.163 156.686,87.247C157.14,86.762 163.063,86.094 165.714,86.173C169.499,86.287 174.943,86.515 178.14,85.982C187.188,84.475 196.193,85.054 205.288,84.702C214.496,84.345 225.187,84.185 233.447,83.684C238.001,83.408 242.579,83.653 246.88,85.406C248.812,86.193 249.352,86.064 250.048,87.6C251.994,91.895 252,94.667 252.063,99.194C252.136,104.444 253.616,111.998 253.07,118.228C252.111,129.193 251.932,139.783 251.59,150.383C251.403,156.152 250.582,164.39 250.631,168.909C250.667,172.234 250.314,177.875 250.314,181.198C250.314,191.62 249.749,202.707 249.322,212.924C249.141,217.252 248.619,223.847 248.701,228.206C248.832,235.153 247.899,243.199 247.899,249.401C247.899,253.277 248.27,255.521 249.278,255.469C250.129,255.425 250.833,253.898 250.833,249.275C250.833,236.565 251.685,224.3 251.685,211.708C251.685,206.957 251.783,200.23 252.159,195.193C252.698,187.96 252.278,179.979 252.627,172.8C253.035,164.423 253.218,156.871 253.924,148.817C254.123,146.55 254.591,142.215 254.616,139.921C254.677,134.43 255.221,128.805 255.135,123.282C255.057,118.217 254.683,113.045 255.16,108.626C255.364,106.728 253.765,101.272 253.606,98.458C253.241,91.992 252.556,86.988 251.621,84.507C250.877,82.533 245.002,81.114 241.067,81.649C237.556,82.125 231.897,81.319 228.734,81.319C218.676,81.319 213.048,82.758 202.734,82.758C189.746,82.758 192.964,82.522 179.379,83.025C176.826,83.12 167.721,84.057 164.878,84.081Z" style="fill:none;"/>
    </g>
</svg>
