<?xml version="1.0" encoding="UTF-8" standalone="no"?>
<!DOCTYPE svg PUBLIC "-//W3C//DTD SVG 1.1//EN" "http://www.w3.org/Graphics/SVG/1.1/DTD/svg11.dtd">
<svg width="100%" height="100%" viewBox="0 0 400 400" version="1.1" xmlns="http://www.w3.org/2000/svg" xmlns:xlink="http://www.w3.org/1999/xlink" xml:space="preserve" xmlns:serif="http://www.serif.com/" style="fill-rule:evenodd;clip-rule:evenodd;stroke-linejoin:round;stroke-miterlimit:2;">
    <g transform="matrix(2.14109,0,0,2.14109,-224.479,-215.679)">
        <path d="M216.548,251.111C218.124,252.688 223.192,254.888 223.398,254.682C223.864,254.217 227.599,251.683 227.915,249.628C228.22,247.64 231.257,245.746 232.909,244.92C234.883,243.934 236.633,238.911 238.388,237.665C243.439,234.079 245.537,231.639 247.791,227.13C248.235,226.243 243.692,220.054 242.49,217.651C240.547,213.764 237.631,210.291 236.005,207.039C235.006,205.042 233.55,200.033 233.432,198.668C233.233,196.382 234.388,192.583 234.973,191.414C237.566,186.227 240.324,179.01 245.881,176.232C246.947,175.699 250.239,177.6 251.04,178.001C252.154,178.558 254.378,178.196 255.756,178.885C257.811,179.913 263.184,181.334 265.19,179.327C265.879,178.638 266.489,176.472 265.927,175.348C265.784,175.062 264.791,173.536 265.337,172.989C265.944,172.382 266.52,172.097 266.959,171.22C267.626,169.886 266.624,167.614 267.254,166.356C267.505,165.853 268.347,163.843 268.31,163.201C268.23,161.818 266.804,161.282 266.466,160.607C265.3,158.274 268.808,157.526 267.843,155.596C267.228,154.365 265.483,154.563 264.748,153.827C263.815,152.894 263.911,151.369 263.126,150.584C262.827,150.285 262.154,150.349 261.8,149.995C261.361,149.556 262.238,147.64 262.009,147.182C261.673,146.511 259.803,146.878 259.382,146.456C257.901,144.976 255.105,145.957 253.607,144.459C253.331,144.183 250.703,145.259 250.042,144.598C249.188,143.744 248.677,142.326 247.649,141.298C247.204,140.852 246.126,141.796 245.758,141.371C244.98,140.474 244.241,140.358 244.063,139.409C243.884,138.461 244.892,137.676 244.201,137.217C242.917,136.365 243.012,139.059 241.546,139.414C240.63,139.636 239.355,139.201 238.334,138.193C237.505,137.373 237.74,135.873 236.854,136.198C236.11,136.472 234.954,138.36 234.089,138.792C233.548,139.063 233.229,139.8 232.909,140.119C232.737,140.291 232.05,139.947 231.878,140.119C231.287,140.71 230.853,141.413 230.323,141.943C229.427,142.839 229.551,144.687 228.584,145.654C227.613,146.625 228.158,147.196 227.47,148.572C227.368,148.776 228.193,148.976 228.671,150.115C229.22,151.424 227.525,150.642 226.66,151.507C226.449,151.718 227.093,153.703 226.828,154.604C226.593,155.404 224.98,153.284 223.909,154.355C222.993,155.271 223.199,158.007 223.576,158.762C223.986,159.582 223.08,161.437 223.328,161.934C224.063,163.403 226.346,167.097 227.172,168.199C227.952,169.24 227.013,172.424 226.981,173.718C226.95,174.966 226.573,176.682 226.02,178.086C225.623,179.091 225.19,181.353 224.579,182.575C222.983,185.768 222.043,188.5 220.489,191.608C219.931,192.723 216.686,193.997 214.89,193.099C212.974,192.142 212.71,188.748 212.443,186.408C211.928,181.892 212.104,177.829 212.104,173.682C212.104,171.833 212.349,168.283 212.431,166.537C212.525,164.54 212.454,162.905 213.214,161.386C213.353,161.106 213.732,159.827 214.723,159.896C215.613,159.959 216.443,158.357 217.159,157.641C217.405,157.395 218.824,155.619 219.561,155.088C220.614,154.328 221.345,153.978 222.168,153.155C222.656,152.668 224.549,152.46 223.801,151.712C223.3,151.211 225.155,150.996 224.802,150.29C224.512,149.708 225.584,148.477 225.834,148.226C226.207,147.854 226.27,146.47 226.571,145.868C226.892,145.226 227.711,144.728 228.045,144.394C229.087,143.352 228.815,141.118 229.667,140.266C229.877,140.056 229.675,138.064 229.519,137.908C228.67,137.059 227.83,138.243 227.456,138.055C226.946,137.801 228.389,135.88 227.978,135.469C227.413,134.903 226.254,134.094 225.149,134.374C224.026,134.659 221.216,137.228 220.317,136.329C218.294,134.306 223.838,133.283 222.971,131.394C222.811,131.046 222.767,130.327 222.497,130.057C221.48,129.041 219.984,130.34 219.496,130.096C218.873,129.784 219.482,128.594 219.201,128.032C218.954,127.538 218.254,127.38 218.022,127.148C217.783,126.909 216.215,126.63 215.839,126.63C213.791,126.63 212.154,125.98 210.152,126.981C208.886,127.614 207.435,124.885 206.796,125.229C205.777,125.777 206.307,126.893 205.515,127.558C204.974,128.012 204.089,128.059 203.793,127.762C203.574,127.543 201.778,124.654 200.8,125.632C199.724,126.708 199.167,127.455 197.59,128.243C196.437,128.82 197.613,131.342 196.944,132.012C196.104,132.852 194.896,133.47 193.996,134.37C193.261,135.106 194.382,137.071 193.749,137.704C192.984,138.469 192.249,139.312 191.487,140.226C190.748,141.112 189.982,142.069 189.279,142.772C188.631,143.42 189.966,144.678 190.019,144.974C190.082,145.324 190.051,146.968 190.827,147.744C192.414,149.331 194.872,152.602 195.953,154.763C196.195,155.249 193.557,153.804 192.889,154.366C192.524,154.673 192.309,154.956 193.071,155.615C195.429,157.651 195.895,155.744 197.341,157.19C198.175,158.025 199.88,163.747 200.422,164.832C202.081,168.149 198.756,170.484 200.249,173.469C200.858,174.688 200.617,176.651 201.218,177.853C201.913,179.243 196.431,178.66 195.47,178.148C194.126,177.432 192.923,176.781 191.932,175.79C190.656,174.513 188.016,169.897 187.563,169.266C185.99,167.076 184.403,163.775 184.549,161.556C184.587,160.97 184.63,159.358 184.806,159.006C185.071,158.477 185.522,157.094 185.924,156.693C186.281,156.335 186.728,155.063 186.184,153.975C185.942,153.491 185.391,153.034 185.152,152.795C184.527,152.171 185.571,150.922 185.888,150.763C186.937,150.238 188.903,149.681 189.437,148.614C189.897,147.694 188.708,146.559 188.032,146.038C187.49,145.62 188.594,142.425 188.984,142.035C189.565,141.454 188.295,139.924 188.837,139.382C190.062,138.157 191.18,136.76 192.08,134.96C192.405,134.309 191.195,133.726 191.195,133.191C191.195,131.956 192.961,129.495 192.425,128.422C191.336,126.245 188.267,127.351 187.04,128.416C186.572,128.823 185.817,127.203 185.22,127.402C184.604,127.607 184.173,129.308 183.994,129.487C183.013,130.468 180.477,126.699 179.376,127.818C178.346,128.865 176.418,128.292 176.013,128.698C175.175,129.535 174.638,131.078 173.36,131.717C172.38,132.207 170.228,130.887 169.39,131.724C169.168,131.947 169.056,133.576 168.823,133.809C168.589,134.043 168.044,132.005 167.934,131.896C167.481,131.443 164.398,132.176 164.323,132.645C164.139,133.787 164.99,134.928 164.368,135.55C163.831,136.087 163.35,135.004 162.813,135.541C162.4,135.954 159.898,134.74 158.776,135.862C158.162,136.476 157.893,138.226 157.279,138.84C156.616,139.503 158.112,141.069 157.441,141.74C156.745,142.436 154.61,142.29 153.823,143.078C153.309,143.591 151.921,143.326 151.436,143.686C150.588,144.317 150.472,145.396 149.649,146.219C149.281,146.587 149.742,148.352 149.323,148.772C148.015,150.08 150.493,153.271 151.395,154.173C152.063,154.841 153.787,154.005 154.346,154.565C155.095,155.313 156.8,156.202 157.496,156.898C158.357,157.759 160.887,155.827 161.47,156.081C162.302,156.443 162.42,157.333 162.6,157.512C163.156,158.069 164.93,157.336 165.548,157.954C166.083,158.49 166.25,159.246 166.727,159.723C167.442,160.438 168.552,161.936 169.137,162.521C170.22,163.605 171.575,163.566 172.404,164.066C173.619,164.8 174.234,165.939 175.585,167.29C175.806,167.511 174.613,170.41 174.834,170.631C176.309,172.106 177.794,173.886 179.403,175.495C180.653,176.744 181.528,179.331 181.835,180.922C182.125,182.424 181.877,182.268 182.141,184.829C182.384,187.184 180.937,189.212 180.555,189.403C178.97,190.196 175.232,190.037 173.222,189.434C172.688,189.274 170.078,186.701 169.671,186.295C169.032,185.656 169.196,182.692 168.557,182.053C167.133,180.629 167.803,182.617 166.421,181.234C165.408,180.222 168.979,173.931 167.897,172.85C166.638,171.59 166.011,169.758 164.959,168.509C164.168,167.571 167.578,164.928 166.935,163.64C166.525,162.82 165.625,159.705 164.946,159.365C164.205,158.995 161.844,158.921 161.292,158.369C160.705,157.782 159.973,160.43 159.387,159.844C158.556,159.013 157.959,159.614 156.704,158.986C156.461,158.865 156.116,156.999 154.876,156.521C153.378,155.943 152.259,156.663 151.543,156.159C149.225,154.526 149.08,152.917 148.088,152.62C147.559,152.461 145.524,152.463 145.049,153.509C144.558,154.589 145.455,156.905 144.552,157.469C142.92,158.489 140.613,156.575 139.975,157.401C138.391,159.453 143.941,160.731 142.892,161.78C142.536,162.137 141.39,161.537 140.22,161.811C139.269,162.035 140.267,162.45 139.074,163.324C138.675,163.617 137.877,162.406 137.433,162.886C136.906,163.457 137.067,165.853 136.83,166.328C136.62,166.747 135.629,167.678 135.232,168.409C135.024,168.792 135.467,169.639 135.264,170.046C135.154,170.266 134.364,170.531 134.315,171.119C134.276,171.592 134.967,172.429 134.967,172.429C134.967,172.429 134.478,174.227 134.614,174.596C134.855,175.255 138.569,177.041 137.875,178.233C137.236,179.329 135.142,180.121 134.999,181.703C134.878,183.035 134.142,183.683 132.785,183.61C132.421,183.59 130.841,183.165 130.738,183.269C130.558,183.448 129.736,184.179 129.582,184.486C129.211,185.229 130.129,187.192 130.614,187.434C130.737,187.496 133.21,187.586 132.69,188.412C132.112,189.33 131.104,189.368 130.707,189.566C130.051,189.894 129.288,190.087 128.845,190.53C128.009,191.366 129.479,193.581 129.435,193.625C128.619,194.441 128.299,196.742 129.73,197.458C130.209,197.697 130.433,198.03 131.056,198.342C131.46,198.544 133.845,197.152 134.152,197.459C134.819,198.127 133.591,199.638 131.969,200.635C130.373,201.616 128.389,202.087 128.278,202.308C127.836,203.191 129.304,203.22 129.595,203.801C130.007,204.625 132.423,204.795 132.931,205.303C133.897,206.269 133.383,206.896 134.136,208.402C134.759,209.648 136.33,209.229 137.18,210.079C137.563,210.463 141.521,212.787 141.964,213.229C142.917,214.183 143.9,215.165 144.764,216.03C145.211,216.477 146.621,215.735 146.975,215.735C147.469,215.735 148.52,216.401 148.744,216.177C149.22,215.701 149.733,215.336 150.071,214.998C150.685,214.384 153.142,215.612 153.756,214.998C154.288,214.466 155.103,212.408 156.114,211.903C156.853,211.533 157.893,213.439 158.546,212.83C159.492,211.948 159.298,210.645 159.549,209.247C159.796,207.871 160.493,206.401 160.983,205.37C161.443,204.404 163.126,200.801 163.487,200.44C165.737,198.19 169.72,200.083 172.816,200.608C174.482,200.891 184.251,203.924 185.37,205.017C189.217,208.776 193.668,211.997 197.681,216.914C199.58,219.242 201.362,221.729 202.716,223.672C203.268,224.465 202.378,226.798 201.807,227.37C201.245,227.931 200.893,228.163 199.888,228.362C194.703,229.386 188.975,228.153 183.672,228.153C181.225,228.153 177.53,228.454 176.013,226.938C175.175,226.099 174.526,224.394 175.751,223.782C177.713,222.8 181.554,222.378 182.51,220.467C183.651,218.183 182.046,215.14 180.877,214.556C180.278,214.256 178.838,214.433 178.371,213.966C177.532,213.127 178.101,211.771 177.106,210.776C175.628,209.299 173.01,213.027 171.738,211.755C169.661,209.678 167.533,208.666 165.72,210.479C164.927,211.272 162.409,211.062 161.715,211.755C160.76,212.711 159.458,214.284 158.03,214.998C156.268,215.879 154.843,215.09 153.461,216.472C152.925,217.008 150.9,215.604 150.423,216.081C149.149,217.355 148.278,217.783 147.488,219.458C147.094,220.294 145.795,220.444 145.132,221.26C144.447,222.102 144.222,223.5 143.585,224.137C142.856,224.866 141.492,223.577 140.784,224.284C139.566,225.503 141.001,228.048 140.637,228.412C139.941,229.108 139.375,228.134 138.868,229.149C138.231,230.422 139.762,231.947 140.374,232.559C141.089,233.274 139.737,234.804 140.103,235.536C140.461,236.253 140.721,236.46 141.214,236.954C141.561,237.3 139.827,237.995 139.827,238.436C139.827,239.577 140.665,240.1 141.081,240.932C141.573,241.916 139.634,241.889 140.199,243.019C140.504,243.629 141.344,243.876 141.542,244.947C141.809,246.39 139.956,246.579 140.35,247.367C140.656,247.978 141.462,249.073 143.153,249.408C144.233,249.622 143.53,251.649 143.957,252.076C144.589,252.708 144.72,254.29 145.299,254.381C146.278,254.535 147.308,255.598 147.698,256.378C147.962,256.905 147.292,257.832 147.025,258.709C146.75,259.614 147.967,260.507 148.456,261.161C149.068,261.981 149.652,263.17 150.826,263.084C152.173,262.986 153.774,261.761 154.661,262.621C155.032,262.98 157.171,262.964 157.499,262.636C158.297,261.838 159.842,261.681 160.683,260.839C161.411,260.112 163.198,260.683 163.926,259.955C165.29,258.591 166.438,257.738 167.547,256.629C168.856,255.32 170.4,257.955 171.845,254.039C172.239,252.972 174.669,255.381 175.297,254.753C176.217,253.833 177.899,253.347 178.921,253.749C180.935,254.541 182.969,254.397 183.556,252.91C184.156,251.391 186.207,251.135 186.905,249.907C187.495,248.868 187.109,247.777 186.952,246.779C186.764,245.591 184.288,244.107 185.402,243.549C185.744,243.378 188.217,243.221 188.583,243.259C190.274,243.434 192.294,243.314 193.627,243.487C195.763,243.764 203.645,245.36 204.774,245.736C207.464,246.633 215.895,250.458 216.548,251.111Z" style="fill:none;"/>
    </g>
</svg>
