<?xml version="1.0" encoding="UTF-8" standalone="no"?>
<!DOCTYPE svg PUBLIC "-//W3C//DTD SVG 1.1//EN" "http://www.w3.org/Graphics/SVG/1.1/DTD/svg11.dtd">
<svg width="100%" height="100%" viewBox="0 0 400 400" version="1.1" xmlns="http://www.w3.org/2000/svg" xmlns:xlink="http://www.w3.org/1999/xlink" xml:space="preserve" xmlns:serif="http://www.serif.com/" style="fill-rule:evenodd;clip-rule:evenodd;stroke-linejoin:round;stroke-miterlimit:2;">
    <g transform="matrix(1,0,0,1,1.98461,37.1316)">
        <path d="M159.203,296.663C159.457,294.559 159.998,281.969 160.671,281.295C162.117,279.849 168.127,280.606 169.784,280.336C172.931,279.822 179.365,279.713 181.704,278.212C184.771,276.245 186.869,272.43 189.121,268.537C191.409,264.582 191.485,227.795 191.485,219.286C191.485,215.419 191.257,189.78 191.712,182.371C192.444,170.461 191.383,158.272 191.796,147.566C192.097,139.759 190.84,117.369 191.02,112.549C191.058,111.503 190.84,103.885 191.607,103.118C192.803,101.921 199.974,104.162 201.549,102.677C202.085,102.172 201.499,101.744 201.275,101.52C199.456,99.7 195.223,93.361 193.978,92.117C191.406,89.545 190.871,83.165 189.822,80.019C188.061,74.737 196.24,63.85 198.584,60.156C204.294,51.158 204.254,54.423 209.483,43.966C211.197,40.537 211.178,35.469 209.543,32.198C208.47,30.052 205.339,29.005 205.215,27.851C205.151,27.258 208.269,26.2 209.833,26.709C212.816,27.679 214.236,29.274 215.478,32.215C217.111,36.082 218.575,48.591 219.103,50.132C220.206,53.347 221.788,61.11 222.088,62.55C222.228,63.225 223.121,69.438 223.381,73.264C223.452,74.305 223.671,77.183 222.029,81.062C220.232,85.307 218.146,89.961 216.665,91.442C213.169,94.939 207.176,100.801 206.644,101.017C205.858,101.336 205.327,101.812 205.276,102.158C204.993,104.083 216.413,102.139 216.561,103.223C216.81,105.042 216.601,109.725 216.554,113.201C216.511,116.462 216.309,140.579 216.459,151.285C216.546,157.482 215.806,196.242 215.806,205.746C215.806,212.699 213.659,235.154 213.018,238.997C212.204,243.883 210.372,263.937 212.075,268.802C213.133,271.828 215.119,275.192 217.632,277.705C219.084,279.157 224.67,279.756 226.172,280.507C227.395,281.118 236.919,279.539 236.83,281.08C236.71,283.154 235.334,297.216 235.189,297.361C234.855,297.695 216.124,296.766 212.093,298.11C209.245,299.059 190.637,299.806 183.213,298.321C175.219,296.722 158.958,298.693 159.203,296.663Z" style="fill:none;"/>
    </g>
</svg>
