<?xml version="1.0" encoding="UTF-8" standalone="no"?>
<!DOCTYPE svg PUBLIC "-//W3C//DTD SVG 1.1//EN" "http://www.w3.org/Graphics/SVG/1.1/DTD/svg11.dtd">
<svg width="100%" height="100%" viewBox="0 0 400 400" version="1.1" xmlns="http://www.w3.org/2000/svg" xmlns:xlink="http://www.w3.org/1999/xlink" xml:space="preserve" xmlns:serif="http://www.serif.com/" style="fill-rule:evenodd;clip-rule:evenodd;stroke-linejoin:round;stroke-miterlimit:2;">
    <path d="M250.987,224.681C250.009,225.418 245.18,230.307 244.365,231.197C242.78,232.928 238.673,236.937 235.642,240.133C232.159,243.805 227.81,248.821 223.552,250.951C220.918,252.267 220.217,252.158 217.79,253.371C216.009,254.262 213.526,254.374 211.593,254.723C208.831,255.222 206.287,255.607 203.595,255.607C201.014,255.607 198.297,255.874 195.696,255.607C192.941,255.323 187.543,254.548 183.37,253.827C181.944,253.581 180.851,253.26 179.679,252.964C177.723,252.471 170.402,251.599 169.531,251.164C168.721,250.759 164.797,251.366 164.841,251.41C165.45,252.02 167.345,251.916 168.297,251.904C169.676,251.887 173.403,252.767 174.753,252.922C177.083,253.189 180.12,253.861 182.32,254.416C188.337,255.933 195.664,258.075 202.586,258.075C205.757,258.075 209.495,257.662 212.235,255.977C212.722,255.678 215.293,254.487 215.839,254.976C216.402,255.48 215.517,256.87 215.41,257.085C215.064,257.777 214.143,260.238 213.942,260.568C211.704,264.256 201.764,264.259 195.34,264.259C193.682,264.259 191.931,263.89 190.18,263.582C189.399,263.445 186.079,262.63 186.079,263.259C186.079,263.855 190.408,264.777 191.737,265.244C194.072,266.064 196.529,266.262 199.073,266.262C199.889,266.262 201.896,266.423 203.365,266.004C204.916,265.563 206.54,264.563 207.812,264.291C208.989,264.04 207.689,265.685 207.229,266.606C206.823,267.418 204.195,269.402 203.448,270.117C201.661,271.829 201.361,272.197 198.513,272.941C197.427,273.225 195.348,272.801 193.824,272.624C192.057,272.419 189.832,271.925 189.607,272.15C189.183,272.573 193.278,273.823 195.42,275.17C196.781,276.025 197.472,276.246 196.891,276.827C196.004,277.714 192.377,277.798 191.633,277.785C190.191,277.761 188.883,277.445 187.827,277.254C186.396,276.994 185.371,276.574 184.573,276.394C182.08,275.83 178.201,274.166 176.724,275.643C176.431,275.935 180.466,276.677 180.767,276.827C182.846,277.867 185.226,278.166 186.988,279.124C187.838,279.586 189.718,280.365 188.581,281.502C188.293,281.79 180.774,281.255 180.025,280.88C178.718,280.227 172.823,278.894 171.542,279.063C169.027,279.395 164.53,281.771 162.47,281.93C161.663,281.992 167.823,282.117 170.148,282.117C171.228,282.117 173.562,281.978 172.459,283.081C171.582,283.957 168.288,283.86 167.346,283.86C166.425,283.86 164.628,283.729 163.45,283.655C161.222,283.514 158.543,283.837 156.325,283.5C155.651,283.398 151.917,282.436 151.367,282.987C150.666,283.687 153.085,284.631 154.965,285.005C158.582,285.725 159.258,284.708 162.743,286.462C163.047,286.615 164.945,287.963 164.224,288.684C163.245,289.663 161.453,287.236 160.645,286.833C159.634,286.327 158.062,287.521 157.062,287.021C156.835,286.907 155.777,286.517 155.461,286.833C155.04,287.254 157.586,289.264 157.746,289.584C158.253,290.597 157.756,292.327 156.856,291.426C155.343,289.913 152.697,287.557 150.894,286.956C149.584,286.519 147.795,286.393 146.698,285.845C146.298,285.645 142.857,284.132 142.749,284.241C142.688,284.302 143.613,285.516 143.736,285.598C145.219,286.587 145.68,289.118 147.31,289.22C148.734,289.309 150.071,290.021 149.879,290.213C149.767,290.326 146.575,290.215 146.575,290.288C146.575,290.565 149.996,291.967 150.13,292.102C150.759,292.73 150.05,293.767 150.361,294.078C150.888,294.605 152.238,294.033 152.845,294.888C152.915,294.986 149.192,295.728 149.069,295.851C148.142,296.777 147.66,298.96 146.945,301.026C146.754,301.578 143.344,301.439 144.106,299.915C144.591,298.946 147.104,297.483 145.958,296.336C145.723,296.102 145.127,296.672 145.094,296.706C144.764,297.035 144.065,296.994 143.736,297.323C143.566,297.493 143.281,300.818 141.885,299.422C141.242,298.779 142.538,297.606 141.885,296.953C140.833,295.901 140.314,299.332 139.046,298.064C138.575,297.593 139.096,296.015 138.552,295.472C138.538,295.458 138.052,297.193 137.932,297.433C137.278,298.741 137.784,299.933 136.786,300.931C136.476,301.241 135.272,301.378 134.911,301.16C134.53,300.931 135.529,299.051 134.726,299.051C134.41,299.051 133.677,301.581 132.505,300.409C131.939,299.843 133.109,298.213 133.245,297.94C133.879,296.674 132.231,293.916 131.394,293.497C130.762,293.181 130.973,296.633 130.259,297.803C129.076,299.745 127.467,303.036 124.91,303.889C124.633,303.981 122.429,302.822 122.161,302.553C121.857,302.25 122.68,300.429 122.915,300.076C123.597,299.053 122.255,297.132 122.766,296.11C123.405,294.832 124.307,294.679 124.083,293.224C123.981,292.566 123.777,291.661 124.073,291.365C125.111,290.327 123.656,290.379 123.656,288.689C123.656,287.227 122.093,287.769 121.675,287.458C121.223,287.121 124.293,283.306 123.746,283.579C123.379,283.763 122.784,284.337 122.581,284.54C121.979,285.142 119.79,286.606 118.471,287.979C116.144,290.401 114.401,291.365 111.186,294.156C109.211,295.87 107.627,297.371 105.309,299.134C102.861,300.997 101.694,301.846 99.556,303.45C99.181,303.731 97.769,304.032 97.379,303.837C96.663,303.479 97.12,301.404 97.271,300.431C97.406,299.563 98.16,298.25 98.285,297.999C99.095,296.379 102.127,294.158 103.713,292.816C108.406,288.842 112.182,285.951 116.624,282.126C117.308,281.538 118.977,279.711 118.501,278.759C117.914,277.585 117.272,276.076 116.517,274.566C115.426,272.384 114.794,270.102 113.771,268.055C113.612,267.737 112.097,264.818 112.356,264.559C113.986,262.928 116.188,267.475 118.416,265.247C120.643,263.02 120.206,262.762 120.2,261.604C120.194,260.514 118.724,258.427 118.484,258.307C117.569,257.849 117.443,261.37 116.565,261.621C115.975,261.79 115.466,260.035 114.996,259.708C114.337,259.251 113.762,260.076 113.217,259.531C112.21,258.524 110.281,254.245 110.463,253.64C110.617,253.129 114.218,258.123 115.009,257.332C115.338,257.003 116.784,255.876 116.898,255.205C117.088,254.079 111.504,250.008 110.472,248.977C110.186,248.691 108.957,247.633 109.28,246.986C110.164,245.219 115.431,247.512 116.282,247.938C116.623,248.108 119.093,248.943 119.426,248.775C119.556,248.71 117.967,247.747 117.734,247.514C117.069,246.849 113.179,243.294 114.145,242.329C114.4,242.073 116.515,244.441 116.688,243.793C117.245,241.707 119.651,245.493 121.92,246.628C122.217,246.776 123.749,247.311 124.25,246.81C124.541,246.519 122.317,243.508 122.123,243.314C120.742,241.933 119.912,241.516 118.595,240.226C118.345,239.981 117.06,237.906 117.118,237.848C118.139,236.827 121.54,239.84 122.49,240.315C123.947,241.043 124.103,242.358 125.836,242.935C129.376,244.115 132.584,245.592 135.522,247.162C136.636,247.757 137.186,248.367 138.042,249.222C139.037,250.217 141.533,253.679 141.977,255.314C142.303,256.515 142.583,256.776 143.056,257.723C143.127,257.865 143.363,255.964 142.898,254.98C141.014,250.987 141.08,246.744 139.331,243.246C138.922,242.428 136.096,237.43 137.286,236.239C138.552,234.974 138.725,239.712 141.086,239.21C142.344,238.942 140.575,237.068 140.101,236.595C139.036,235.53 138.988,233.282 138.183,230.995C137.384,228.726 135.827,226.421 135.246,224.679C134.96,223.821 131.452,221.108 131.947,220.613C132.614,219.945 134.761,220.707 134.929,221.211C135.762,223.71 137.2,225.519 138.402,227.156C138.854,227.771 139.209,229.561 139.749,229.022C140.002,228.768 138.997,226.702 138.868,226.38C138.248,224.829 135.273,221.234 136.352,219.432C136.81,218.666 138.425,222.825 138.889,223.753C139.127,224.229 140.999,227.034 140.999,227.034C140.999,227.034 139.995,223.014 139.602,222.031C138.909,220.298 137.86,218.621 139.433,217.047C140.043,216.438 141.471,222.277 141.713,221.748C142.168,220.753 143.368,215.245 144.099,215.796C145.448,216.811 143.372,219.888 144.152,221.448C145.237,223.618 145.143,227.901 146.402,229.644C146.767,230.149 146.414,232.133 146.715,232.678C147.626,234.33 149.497,237.789 150.488,239.77C151.605,242.005 152.185,243.693 153.9,245.409C153.962,245.471 152.988,242.275 152.254,241.174C147.043,233.358 144.44,222.57 151.373,215.637C152.159,214.851 155.125,211.93 156.541,211.93C156.672,211.93 155.105,214.407 154.99,214.648C154.005,216.704 151.948,221.735 152.077,224.443C152.375,230.654 154.258,236.133 158.242,240.117C159.384,241.26 159.697,243.207 160.373,244.559C160.866,245.546 160.846,246.53 160.846,246.53C160.846,246.53 160.895,242.61 160.487,241.384C159.202,237.531 159.376,234.201 159.376,229.866C159.376,221.708 161.01,214.585 162.672,207.186C163.761,202.34 163.591,197.574 166.745,194.746C167.805,193.795 167.185,197.857 167.185,198.219C167.185,201.357 166.158,203.324 166.158,206.338C166.158,207.512 165.639,209.003 165.639,210.177C165.639,210.767 166.797,207.426 167.093,206.206C167.609,204.086 167.256,203.419 168.28,201.371C169.288,199.356 168.195,195.377 169.64,193.327C171.995,189.986 174.932,188.452 176.27,185.362C177.437,182.663 178.469,177.714 180.694,176.355C182.734,175.109 179.583,182.161 178.758,183.811C176.22,188.887 177.564,195.538 177.564,202.111C177.564,203.401 177.864,208.028 177.912,207.836C178.257,206.453 178.278,203.821 178.623,202.44C179.298,199.742 179.021,196.813 179.904,194.326C180.453,192.78 183.535,183.6 184.69,181.086C185.471,179.387 186.911,175.962 187.783,174.961C190.3,172.069 192.31,169.938 194.21,166.137C194.8,164.957 195.422,163.274 195.403,162.096C195.348,158.646 195.062,155.346 196.401,153.821C196.727,153.45 196.822,158.062 196.822,158.694C196.822,161.827 196.121,165.04 196.902,168.492C197.254,170.048 197.041,173.941 197.041,173.941C197.041,173.941 198.601,170.432 199.118,168.881C200.032,166.138 202.57,161.328 204.406,159.491C208.21,155.687 211.584,154.87 215.657,150.435C218.02,147.861 222.162,142.782 224.2,140.691C228.054,136.739 226.122,139.403 235.02,133.288C237.029,131.908 239.003,130.632 240.683,128.951C242.67,126.965 245.378,122.781 247.344,120.132C249.656,117.017 252.209,115.708 254.185,113.732C257.373,110.544 261.24,107.818 264.188,104.87C264.861,104.197 269.404,101.729 271.665,100.595C274.271,99.288 273.981,100.694 276.268,98.79C279.204,96.346 282.962,95.991 286.511,95.703C288.512,95.54 289.391,95.362 290.798,95.398C292.759,95.449 297.167,97.434 298.622,98.376C302.6,100.953 306.95,105.004 310.233,109.788C311.992,112.352 313.322,116.1 314.027,118.038C314.394,119.047 314.489,121.105 314.69,122.627C314.997,124.962 314.764,129.678 313.92,132.371C313.028,135.213 311.581,137.478 309.639,139.42C309.578,139.481 311.217,142.569 311.015,144.206C310.661,147.084 309.975,149.368 308.156,151.581C304.833,155.621 302.425,157.153 297.604,159.62C296.456,160.208 294.633,166.479 294.633,168.022C294.633,169.065 293.444,173.595 293.112,174.774C291.485,180.552 286.886,184.698 282.35,188.409C279.915,190.401 277.973,190.277 276.594,192.983C274.516,197.061 271.803,200.577 268.53,203.6C266.461,205.512 264.643,207.737 262.26,210.003C257.382,214.64 256.616,215.329 255.142,217.685C253.887,219.692 252.217,223.752 250.987,224.681Z" style="fill:none;"/>
</svg>
