<?xml version="1.0" encoding="UTF-8" standalone="no"?>
<!DOCTYPE svg PUBLIC "-//W3C//DTD SVG 1.1//EN" "http://www.w3.org/Graphics/SVG/1.1/DTD/svg11.dtd">
<svg width="100%" height="100%" viewBox="0 0 400 400" version="1.1" xmlns="http://www.w3.org/2000/svg" xmlns:xlink="http://www.w3.org/1999/xlink" xml:space="preserve" xmlns:serif="http://www.serif.com/" style="fill-rule:evenodd;clip-rule:evenodd;stroke-linejoin:round;stroke-miterlimit:2;">
    <g transform="matrix(2.3336,0,0,2.3336,-266.665,-238.687)">
        <path d="M203.374,205.579C202.552,206.412 199.325,210.906 198.045,213.459C196.03,217.478 194.952,221.096 194.698,226.482C194.617,228.203 194.76,233.692 194.914,235.551C194.957,236.075 195.466,237.79 195.076,238.179C195.015,238.24 192.819,237.131 192.142,236.792C190.174,235.808 188.213,234.382 186.628,232.908C186.147,232.461 183.137,227.223 182.721,227.639C182.577,227.783 183.648,232.798 184.418,234.597C186.175,238.705 188.819,243.57 191.627,247.118C192.408,248.106 194.965,252.266 194.965,252.266C194.965,252.266 187.473,250.562 186.081,250.214C183.607,249.595 180.363,247.971 178.144,246.492C169.49,240.722 165.033,232.138 162.97,221.825C162.436,219.156 162.096,215.254 162.343,212.375C162.776,207.346 163.706,203.767 164.654,199.027C165.164,196.476 166.842,192.952 168.233,190.866C169.391,189.128 176.663,180.216 178.982,176.843C180.33,174.882 182.24,171.365 182.891,169.18C183.179,168.211 183.104,166.328 183.696,165.736C183.893,165.539 185.744,171.295 186.263,173.551C186.976,176.65 186.714,181.814 185.95,184.873C185.531,186.55 184.214,191.902 184.214,191.902C184.214,191.902 188.049,185.984 189.66,183.3C191.117,180.872 193.018,176.933 193.715,174.142C194.4,171.402 195.198,168.06 195.354,165.348C195.455,163.586 195.465,156.805 195.299,155.243C194.653,149.16 192.322,145.155 191.068,139.359C189.949,134.188 190.857,128.232 192.309,123.876C192.722,122.635 193.932,128.694 194.287,129.758C195.256,132.666 197.92,136.013 200.137,138.5C203.087,141.81 206.982,144.396 209.937,147.382C213.942,151.427 216.553,156.192 218.125,162.477C219.586,168.323 219.454,174.69 219.454,180.365C219.454,182.458 219.494,189.638 219.494,189.638C219.494,189.638 220.763,184.967 221.583,183.737C222.384,182.535 223.43,181.184 224.491,180.123C226.872,177.741 232.843,175.441 233.328,175.198C233.896,174.914 237.104,173.791 237.645,174.331C238.15,174.836 234.435,176.72 233.513,178.672C231.527,182.874 230.554,189.685 231.04,193.602C231.217,195.033 231.586,197.045 231.893,198.272C232.948,202.495 234.715,207.043 235.611,211.522C235.841,212.674 237.036,219.801 236.914,221.812C236.576,227.36 234.967,231.797 232.012,236.722C231.013,238.387 222.703,245.008 220.257,246.262C217.203,247.827 213.088,249.681 209.991,251.229C208.593,251.929 214.668,247.285 215.868,245.843C218.805,242.314 221.252,239.879 222.622,236.454C224.004,232.999 224.939,228.91 224.958,225.498C224.963,224.456 225.358,219.709 224.622,219.709C224.48,219.709 223.498,223.133 222.815,224.157C220.921,226.998 217.43,229.674 213.889,230.094C210.232,230.527 206.876,226.828 205.079,223.823C203.72,221.55 202.685,211.188 202.978,208.457C203.085,207.464 204.065,204.879 203.374,205.579Z" style="fill:none;"/>
    </g>
</svg>
