<?xml version="1.0" encoding="UTF-8" standalone="no"?>
<!DOCTYPE svg PUBLIC "-//W3C//DTD SVG 1.1//EN" "http://www.w3.org/Graphics/SVG/1.1/DTD/svg11.dtd">
<svg width="100%" height="100%" viewBox="0 0 400 400" version="1.1" xmlns="http://www.w3.org/2000/svg" xmlns:xlink="http://www.w3.org/1999/xlink" xml:space="preserve" xmlns:serif="http://www.serif.com/" style="fill-rule:evenodd;clip-rule:evenodd;stroke-linejoin:round;stroke-miterlimit:2;">
    <path d="M58.141,194.623C58.177,193.932 58.862,187.641 59.446,185.377C60.319,181.994 61.63,178.758 63.518,175.881C65.69,172.57 69.64,168.502 73.041,166.802C77.063,164.791 82.615,164.14 87.705,163.78C96.197,163.179 104.623,162.076 113.328,161.574C124.841,160.91 136.699,159.972 148.242,159.014C155.515,158.41 164.379,157.311 171.643,157.311C173.708,157.311 179.423,157.373 179.626,157.17C180.41,156.386 180.063,155.3 180.887,154.476C180.983,154.38 182.308,154.424 183.358,154.154C183.901,154.014 183.482,150.685 184.005,150.691C184.844,150.702 183.937,154.669 185.387,155.017C187.566,155.541 192.183,155.228 195.425,155.105C204.674,154.755 216.46,155.123 219.863,154.06C224.89,152.49 228.655,150.972 231.678,149.755C233.622,148.972 237.792,145.609 237.607,145.459C237.413,145.302 237.827,142.528 237.379,142.297C236.296,141.739 226.644,147.032 220.219,149.459C217.094,150.639 188.502,151.068 184.234,149.858C183.244,149.577 183.976,148.001 184.169,147.808C184.553,147.424 185.197,147.168 185.581,146.784C186.179,146.186 185.5,145.778 186.17,145.108C188.268,143.01 190.106,142.773 193.202,141.597C195.03,140.903 199.376,139.649 201.568,139.274C203.831,138.887 207.03,138.918 209.374,138.918C210.523,138.918 212.947,139.349 213.683,140.085C213.8,140.202 214.539,142.379 214.217,142.493C214.019,142.563 211.747,144.263 208.859,145.419C206.912,146.199 200.097,148.548 194.354,148.969C189.66,149.314 185.751,148.028 185.645,148.172C185.098,148.917 189.276,149.956 193.783,149.827C198.998,149.677 205.525,147.619 208.406,146.588C211.113,145.619 215.146,142.766 215.454,142.514C215.747,142.273 222.975,141.799 225.894,141.799C229.163,141.799 238.001,140.869 238.396,141.658C238.674,142.214 238.369,144.678 238.587,144.896C239.02,145.329 241.15,143.81 241.482,143.644C243.302,142.734 245.193,142.448 247.106,141.491C250.345,139.872 258.977,138.093 262.126,137.358C262.604,137.246 254.017,143.789 248.064,154.633C242.934,163.979 240.411,176.863 239.692,187.401C238.547,204.198 242.777,227.716 250.527,240.179C259.173,254.085 274.001,255.365 274.243,255.123C274.379,254.987 266,254.049 258.971,247.816C253.526,242.986 248.413,234.312 245.696,225.94C242.11,214.889 240.603,202.274 241.083,190.862C241.633,177.775 244.314,164.098 250.04,154.242C256.335,143.407 263.622,137.743 263.791,137.574C264.635,136.729 266.851,136.614 268.473,136.265C270.91,135.741 275.323,135.804 278.003,135.804C291.116,135.804 311.214,134.166 319.308,142.26C320.089,143.041 326.66,150.055 327.275,151.112C329.469,154.878 330.219,156.363 332.301,160.529C333.898,163.723 335.656,170.323 336.613,173.86C337.747,178.05 338.578,187.393 338.616,190.471C338.643,192.604 338.105,204.828 337.786,208.014C337.462,211.253 335.567,219.701 334.604,223.17C333.074,228.684 330.676,233.617 327.568,238.584C324.54,243.422 318.412,248.002 315.385,251.029C315.329,251.085 311.824,241.909 311.975,241.793C314.068,240.175 317.64,238.29 319.984,234.668C323.398,229.392 326.379,223.493 328.003,217.605C331.701,204.198 331.981,185.329 327.138,172.033C325.373,167.186 324.509,161.316 322.161,157.74C316.722,149.456 310.573,146.663 307.046,146.416C304.65,146.248 296.468,146.381 291.075,156.151C288.742,160.378 286.142,165.372 284.784,170.491C283.891,173.859 282.564,177.746 282.154,181.036C281.084,189.629 281.729,189.197 281.491,193.955C281.368,196.403 281.347,206.551 284.26,217.248C285.303,221.078 287.15,224.597 288.904,228.392C291.385,233.759 295.52,239.502 300.125,242.054C303.822,244.102 307.804,243.583 310.473,242.499C310.973,242.296 314.372,250.486 313.685,251.695C312.198,254.311 304.661,259.404 300.884,259.845C299.236,260.037 295.822,259.734 294.368,259.723C292.057,259.705 289.165,259.658 286.824,259.658C285.97,259.658 280.255,259.613 279.158,259.877C277.651,260.24 276.476,260.598 275.145,261.203C271.95,262.653 269.758,262.666 265.825,263.942C265.015,264.205 261.411,264.033 261.116,263.168C260.847,262.38 259.22,262.744 258.338,262.263C256.965,261.516 256.66,261.311 255.64,259.27C254.3,256.59 255.04,252.844 252.943,250.746C252.33,250.134 250.228,250.004 249.464,249.783C246.898,249.041 244.844,248.618 242.032,247.681C236.583,245.864 233.666,243.231 228.709,240.752C228.222,240.509 225.773,239.312 225.089,239.083C223.913,238.689 211.404,237.562 209.6,237.562C205.867,237.562 201.885,237.34 198.016,237.07C195.77,236.914 191.464,236.646 189.232,236.646C188.885,236.646 181.882,236.247 180.395,236.179C173.021,235.841 166.625,235.149 159.519,235.052C156.385,235.01 153.082,234.747 149.909,234.436C148.611,234.308 142.59,233.948 140.386,233.878C136.46,233.753 132.492,233.502 128.633,233.291C119.447,232.787 112.169,232.09 102.662,231.943C98.674,231.881 95.792,231.6 91.774,231.412C89.957,231.328 85.891,230.968 84.01,230.671C81.56,230.285 78.462,229.618 76.015,228.802C72.377,227.59 70.441,225.929 67.751,223.239C63.347,218.835 63.245,217.858 61.106,212.389C60.102,209.822 59.112,205.099 58.764,203.381C58.265,200.914 58.057,196.25 58.141,194.623Z" style="fill:none;"/>
</svg>
