<?xml version="1.0" encoding="UTF-8" standalone="no"?>
<!DOCTYPE svg PUBLIC "-//W3C//DTD SVG 1.1//EN" "http://www.w3.org/Graphics/SVG/1.1/DTD/svg11.dtd">
<svg width="100%" height="100%" viewBox="0 0 400 400" version="1.1" xmlns="http://www.w3.org/2000/svg" xmlns:xlink="http://www.w3.org/1999/xlink" xml:space="preserve" xmlns:serif="http://www.serif.com/" style="fill-rule:evenodd;clip-rule:evenodd;stroke-linejoin:round;stroke-miterlimit:2;">
    <g transform="matrix(1.33353,0,0,1.2568,-40.0541,-3.12893)">
        <path d="M95.723,193.468C103.294,189.245 127.687,177.176 133.936,173.427C143.342,167.783 154.791,164.936 164.278,160.192C168.384,158.139 175.626,156.93 178.931,153.624C181.208,151.348 177.093,144.773 179.133,142.732C184.387,137.478 191.438,133.263 197.122,127.578C198.257,126.444 199.004,131.858 199.281,132.134C200.073,132.927 200.226,134.728 200.939,135.442C202.512,137.014 241.507,86.473 242.146,87.659C242.784,88.845 203.292,139.793 204.769,142.557C205.199,143.36 238.328,119.838 238.845,120.867C239.632,122.433 207.858,148.677 208.796,150.571C209.406,151.802 270.847,113.29 271.44,114.459C272.032,115.628 211.789,156.516 212.35,157.585C213.182,159.172 252.407,142.262 253.253,143.742C254.34,145.645 217.046,165.885 218.095,167.384C218.969,168.634 284.032,163.4 284.837,164.205C285.983,165.351 222.326,173.725 222.888,175.854C223.487,178.12 227.474,183.179 228.803,184.507C229.818,185.522 217.385,187.95 214.388,189.448C210.271,191.507 201.745,195.146 197.159,192.853C196.466,192.506 191.791,187.106 190.887,188.01C186.792,192.104 181.314,194.235 175.06,197.362C169.341,200.222 164.591,206.287 158.273,208.393C143.265,213.396 128.098,220.843 113.669,228.058C108.086,230.849 102.531,234.826 97.362,237.41C95.921,238.131 93.542,241.375 91.847,240.528C87.46,238.334 86.264,230.081 84.412,226.379C81.156,219.867 76.242,207.346 76.824,206.763C79.322,204.265 85.443,200.294 88.506,198.763C90.472,197.78 93.117,194.921 95.723,193.468Z" style="fill:none;"/>
    </g>
</svg>
