<?xml version="1.0" encoding="UTF-8" standalone="no"?>
<!DOCTYPE svg PUBLIC "-//W3C//DTD SVG 1.1//EN" "http://www.w3.org/Graphics/SVG/1.1/DTD/svg11.dtd">
<svg width="100%" height="100%" viewBox="0 0 400 400" version="1.1" xmlns="http://www.w3.org/2000/svg" xmlns:xlink="http://www.w3.org/1999/xlink" xml:space="preserve" xmlns:serif="http://www.serif.com/" style="fill-rule:evenodd;clip-rule:evenodd;stroke-linejoin:round;stroke-miterlimit:2;">
    <g transform="matrix(1.17599,0,0,1.21506,-19.9826,-25.7963)">
        <path d="M187.825,104.98C188.226,104.98 188.241,99.757 189.455,95.399C190.596,91.304 193.271,86.112 193.641,86.137C194.129,86.169 194.648,92.443 194.315,96.852C194.001,101.026 192.502,105.29 192.952,105.357C193.455,105.432 194.429,100.857 196.109,96.756C197.789,92.654 201.222,88.014 201.707,88.131C202.368,88.29 201.529,93.398 200.978,97.823C200.435,102.181 198.446,106.52 199.061,106.748C199.455,106.894 200.907,101.611 203.22,97.396C205.462,93.311 208.567,90.29 208.934,90.458C209.382,90.663 208.886,96.027 207.495,100.904C206.268,105.206 204.121,109.087 204.495,109.298C204.944,109.551 207.078,104.865 210.139,101.06C213.247,97.195 218.803,93.927 219.236,94.211C220.801,95.236 217.703,99.738 215.269,104.88C213.549,108.513 209.708,112.962 210.097,113.311C210.397,113.581 214.197,108.686 218.616,104.808C222.358,101.524 226.827,99.149 227.063,99.394C227.342,99.683 225.13,103.981 221.728,107.974C218.02,112.325 213.092,116.401 213.367,116.738C213.693,117.14 217.838,112.82 222.437,109.865C227.109,106.864 232.236,105.227 232.521,105.665C232.875,106.209 228.923,111.794 224.512,116.07C220.928,119.544 216.707,121.851 216.937,122.325C217.163,122.792 222.536,118.695 228.058,116.465C233.185,114.394 238.492,114.175 238.654,114.63C238.804,115.05 234.78,119.292 229.731,122.356C224.76,125.374 218.762,127.214 218.869,127.643C219.001,128.175 224.979,126.737 230.504,126.473C235.156,126.251 239.509,127.179 239.57,127.643C239.641,128.188 235.482,130.533 230.76,131.795C225.522,133.195 219.664,133.521 219.664,134.145C219.664,134.697 226.169,134.111 231.786,134.535C236.294,134.876 240.167,136.224 240.12,136.656C240.084,136.978 235.694,138.768 230.834,139.189C225.327,139.666 219.267,138.773 219.2,139.13C219.083,139.75 225.552,140.303 230.855,141.746C235.534,143.02 239.133,145.197 238.961,145.721C238.838,146.094 233.796,146.644 228.793,146.265C223.212,145.843 217.607,144.482 217.433,144.883C217.227,145.359 223.176,146.967 228.334,149.169C233.274,151.279 237.435,153.986 237.189,154.418C236.963,154.815 231.585,154.528 226.289,153.284C220.534,151.933 214.822,149.612 214.534,150.017C214.346,150.282 219.868,152.665 224.331,155.609C228.674,158.474 231.96,161.903 231.76,162.149C231.509,162.457 226.701,161.441 222.016,159.191C216.971,156.768 212.022,153.097 211.723,153.408C211.308,153.84 216.365,157.979 219.416,162.217C221.732,165.435 222.281,169.011 221.931,169.308C221.563,169.618 217.661,167.449 214.268,164.444C210.613,161.206 207.448,157.112 207.018,157.41C206.651,157.665 209.746,161.087 211.441,164.925C213.231,168.979 213.626,173.461 213.212,173.698C212.784,173.943 208.959,170.737 206.259,167.045C203.877,163.788 202.588,159.99 202.189,160.175C201.652,160.425 202.697,163.817 203.56,167.46C204.502,171.43 205.271,175.675 204.648,175.883C203.977,176.107 200.869,172.581 198.618,168.998C196.6,165.787 195.422,162.479 194.789,162.608C194.303,162.708 195.829,166.331 196.298,170.069C196.794,174.017 196.739,179.552 196.21,179.612C195.563,179.685 192.127,174.934 190.47,171.177C189.335,168.602 188.818,165.8 188.386,164.334C188.213,163.747 188.901,284.324 188.823,284.66C188.642,285.432 183.839,285.768 183.817,285.335C183.808,285.176 187.548,163.687 187.442,164.318C187.224,165.609 187.029,167.958 186.43,170.289C185.51,173.867 183.283,179.502 182.773,179.458C182.311,179.418 181.361,173.317 181.318,169.567C181.279,166.126 182.561,162.915 182.148,162.846C181.685,162.77 180.988,166.851 179.434,170.357C177.962,173.676 175.499,178.803 175.074,178.698C174.697,178.604 174.608,171.971 175.379,168.118C176.044,164.798 177.725,161.811 177.41,161.711C176.928,161.558 175.894,165.489 174.105,168.782C172.316,172.074 168.807,176.64 168.348,176.447C167.893,176.256 168.728,170.19 169.671,166.336C170.516,162.882 172.449,159.688 172.062,159.485C171.608,159.248 169.154,162.841 166.381,166.075C163.651,169.259 160.031,173.591 159.613,173.32C159.161,173.026 161.373,166.791 163.412,162.775C165.169,159.315 167.372,156.494 167.012,156.208C166.502,155.804 163.957,159.078 160.538,161.541C156.898,164.164 151.01,167.652 150.534,167.161C150.16,166.777 153.568,160.662 156.362,157.162C158.956,153.912 162.315,151.597 162.009,151.209C161.717,150.839 158.35,154.058 154.601,156.105C150.642,158.267 144.464,160.392 144.197,159.974C143.878,159.475 148.81,153.595 152.369,150.389C155.383,147.674 158.944,146.44 158.725,145.989C158.453,145.429 153.189,147.545 148.512,148.336C144.385,149.034 138.073,148.995 137.897,148.472C137.703,147.894 143.594,143.939 147.519,142.089C151.664,140.135 156.56,139.717 156.44,139.077C156.359,138.638 151.763,139.572 147.251,139.287C142.613,138.995 136.198,137.945 136.16,137.482C136.129,137.109 142.585,134.643 147.154,134.101C151.582,133.575 155.986,134.513 155.986,134.145C155.986,133.728 151.106,133.597 146.762,132.632C142.228,131.624 133.964,129.474 134.004,129.048C134.06,128.449 143.21,127.401 147.834,127.387C152.316,127.373 156.535,128.697 156.663,128.138C156.762,127.706 152.238,126.869 148.189,125.14C143.961,123.334 137.828,119.513 137.975,119.078C138.121,118.645 146.118,119.994 150.869,121.005C154.892,121.861 158.158,123.537 158.314,123.185C158.496,122.775 154.438,121.192 151.018,118.759C147.225,116.062 141.762,110.629 142.008,110.197C142.228,109.813 149.63,112.801 153.92,114.701C157.706,116.377 160.707,118.86 160.93,118.538C161.198,118.152 157.5,115.817 154.457,112.663C151.28,109.37 146.951,103.163 147.27,102.788C147.524,102.489 153.885,106.124 157.602,108.717C161.218,111.239 163.991,114.812 164.261,114.54C164.59,114.209 161.68,110.854 159.479,107.294C157.313,103.79 153.766,97.671 154.12,97.373C154.538,97.023 160.479,101.626 163.519,104.611C166.374,107.415 168.423,111.021 168.851,110.729C169.241,110.463 166.92,106.993 165.479,103.313C164.037,99.634 161.59,93.212 162.006,92.979C162.423,92.746 167.124,97.635 169.398,100.849C171.672,104.063 173.404,108.137 173.845,107.939C174.298,107.736 173.073,103.834 172.247,99.928C171.408,95.96 169.462,88.703 169.945,88.537C170.592,88.315 174.061,94.715 176.027,98.283C177.994,101.851 179.964,105.87 180.647,105.726C181.264,105.596 179.988,101.288 180.005,97.312C180.023,93.21 180.529,85.872 181.594,86.971C181.955,87.344 184.3,92.697 185.434,96.46C186.655,100.514 187.24,104.98 187.825,104.98Z" style="fill:none;"/>
    </g>
</svg>
