<?xml version="1.0" encoding="UTF-8" standalone="no"?>
<!DOCTYPE svg PUBLIC "-//W3C//DTD SVG 1.1//EN" "http://www.w3.org/Graphics/SVG/1.1/DTD/svg11.dtd">
<svg width="100%" height="100%" viewBox="0 0 400 400" version="1.1" xmlns="http://www.w3.org/2000/svg" xmlns:xlink="http://www.w3.org/1999/xlink" xml:space="preserve" xmlns:serif="http://www.serif.com/" style="fill-rule:evenodd;clip-rule:evenodd;stroke-linejoin:round;stroke-miterlimit:2;">
    <g transform="matrix(1,0,0,1,0.373267,1.18126)">
        <path d="M74.658,164.316C74.364,165.747 90.155,183.607 92.775,186.227C97.729,191.181 117.614,213.543 122.55,218.479C131.476,227.405 138.235,237.889 147.113,246.767C153.526,253.18 162.058,263.125 167.785,270.097C174.011,277.675 181.285,285.667 186.981,293.132C190.319,297.506 198.932,308.269 199.01,307.904C199.128,307.357 196.943,302.341 196.316,301.087C192.168,292.79 188.205,284.358 184.028,276.003C179.495,266.937 173.316,257.889 168.549,249.176C163.308,239.598 157.376,229.197 152.134,218.712C147.136,208.717 141.993,200.267 136.993,190.019C133.693,183.255 123.357,160.146 124.696,160.342C129.284,161.013 175.826,158.881 176.577,159.632C177.842,160.898 180.362,179.577 181.227,184.767C182.579,192.876 186.413,220.326 187.276,225.504C188.612,233.518 192.263,257.559 193.183,261.238C195.659,271.144 197.215,281.87 198.454,291.974C198.867,295.344 199.434,298.516 199.818,301.748C200.016,303.412 200.376,307.392 200.376,307.392C200.376,307.392 200.63,303.356 200.861,301.696C201.356,298.132 201.66,295.262 202.353,291.534C204.251,281.327 205.832,270.202 207.134,259.875C209.505,241.068 213.896,223.606 215.805,205.605C217.024,194.106 222.343,164.221 223.066,161.829C223.352,160.881 243.196,161.452 255.322,161.072C258.296,160.978 269.877,159.34 270.901,159.648C272.661,160.177 261.49,182.21 257.857,189.476C255.021,195.147 245.44,217.047 240.39,225.463C237.662,230.009 231.269,241.67 229.184,246.534C225.072,256.129 220.577,265.513 215.922,274.822C212.436,281.794 207.201,293.564 203.742,300.672C203.158,301.873 201.294,307.343 201.546,307.741C201.768,308.092 205.606,304.563 206.356,303.814C213.508,296.662 219.42,288.284 225.963,280.433C251.738,249.503 275.637,216.557 303.653,188.54C308.46,183.734 312.323,177.008 315.782,172.045C317.082,170.179 325.926,158.992 324.43,157.497C323.275,156.342 304.458,146.068 301.147,144.964C299.569,144.438 285.072,136.704 280.353,133.558C277.191,131.45 255.833,118.031 248.702,114.465C245.336,112.783 275.578,156.147 270.137,156.792C266.725,157.197 224.478,159.812 223.873,158.191C222.606,154.792 215.6,111.338 214.089,112.85C212.575,114.364 193.687,114.084 192.887,113.284C192.283,112.68 178.527,156.697 177.389,156.496C173.633,155.832 123.075,158.866 123.795,157.374C126.54,151.686 146.945,114.043 146.227,114.761C137.109,123.879 120.969,134.244 108.427,142.225C100.793,147.083 92.896,151.398 85.392,156.4C83.798,157.463 74.979,162.748 74.658,164.316Z" style="fill:none;"/>
    </g>
</svg>
