<?xml version="1.0" encoding="UTF-8" standalone="no"?>
<!DOCTYPE svg PUBLIC "-//W3C//DTD SVG 1.1//EN" "http://www.w3.org/Graphics/SVG/1.1/DTD/svg11.dtd">
<svg width="100%" height="100%" viewBox="0 0 400 400" version="1.1" xmlns="http://www.w3.org/2000/svg" xmlns:xlink="http://www.w3.org/1999/xlink" xml:space="preserve" xmlns:serif="http://www.serif.com/" style="fill-rule:evenodd;clip-rule:evenodd;stroke-linejoin:round;stroke-miterlimit:2;">
    <g transform="matrix(1,0,0,1,-0.0884053,-0.0332925)">
        <path d="M276.369,198.216C277.036,197.816 286.837,192.099 287.575,191.655C295.92,186.63 302.857,182.068 309.331,176.658C315.095,171.84 324.741,164.522 325.638,162.706C326.568,160.825 327.091,160.42 329.048,158.764C331.126,157.006 333.5,154.992 335.75,153.867C336.05,153.717 339.618,153.363 340.67,153.789C341.797,154.245 343.033,155.078 343.467,156.083C344.514,158.512 346.155,166.508 346.446,167.673C347.351,171.295 349.778,181.005 349.878,182.149C350.036,183.953 347.921,186.827 347.276,188.118C346.73,189.21 344.819,189.946 343.917,189.044C343.189,188.316 341.939,187.207 341.841,186.169C341.5,182.545 341.411,178.414 340.899,174.663C340.603,172.491 339.921,168.959 339.592,166.634C339.252,164.238 338.88,162.544 337.861,160.279C337.601,159.699 331.991,163.868 331.1,164.313C329.906,164.91 328.749,165.167 327.583,165.58C326.395,166 324.757,168.25 323.691,169.179C321.723,170.894 320.02,172.832 318.223,174.287C314.726,177.12 311.606,180.373 307.927,183.248C302.312,187.637 297.506,191.455 292.082,195.071C288.047,197.76 284.074,200.446 279.923,203.063C276.289,205.354 272.064,207.973 267.687,210.548C264.838,212.225 260.017,214.546 257.003,216.066C255.94,216.603 250.05,215.677 248.279,216.562C247.117,217.143 248.039,222.686 248.039,224.082C248.039,227.404 247.381,232.537 245.936,235.426C243.658,239.983 241.081,243.093 237.793,246.381C235.121,249.054 230.329,251.622 227.265,252.765C225.047,253.593 220.639,254.537 218.547,254.688C217.809,254.741 210.699,255.101 208.385,254.724C207.685,254.61 204.501,254.241 201.846,253.444C199.302,252.681 197.376,251.632 195.465,250.924C193.778,250.3 190.556,248.201 189.128,247.28C185.941,245.225 182.507,242.389 179.873,239.464C178.062,237.452 175.582,233.829 174.21,231.54C173.079,229.655 171.582,226.988 170.943,225.07C169.619,221.099 168.484,217.381 168.156,213.633C168.019,212.064 167.665,210.376 167.849,209.017C168.001,207.893 165.841,207.32 165.771,206.043C165.675,204.301 160.045,206.523 158.061,207.162C155.923,207.85 153.322,208.182 150.68,208.465C149.3,208.613 145.732,209.171 144.321,208.79C144.221,208.763 140.14,208.193 138.532,207.081C136.884,205.943 135.196,202.315 135.595,202.903C135.949,203.425 132.195,203.054 131.623,203.34C130.577,203.863 129.321,203.512 128.551,204.282C127.724,205.109 129.277,207.262 129.684,208.863C130.038,210.256 130.034,210.949 130.053,211.958C130.102,214.432 130.11,218.67 129.948,221.499C129.835,223.473 129.343,225.387 128.727,227.236C127.135,232.009 124.375,238.11 120.152,241.277C118.584,242.453 113.442,245.261 111.831,245.873C110.338,246.441 107.211,246.812 105.243,246.964C102.632,247.167 99.22,246.962 96.891,246.379C92.794,245.355 88.911,243.863 85.188,241.381C79.66,237.696 74.388,232.668 70.213,227.158C68.194,224.494 66.536,221.761 65.143,218.88C63.838,216.178 62.645,213.388 61.926,210.513C61.56,209.052 60.464,203.703 60.123,203.361C59.499,202.733 57.175,202.767 55.908,202.675C53.59,202.506 52.598,201.889 50.839,200.13C50.046,199.337 50.069,196.631 51.198,195.516C52.721,194.012 55.681,191.92 56.307,191.42C58.27,189.85 60.541,188.129 62.304,186.366C63.867,184.803 64.495,182.559 65.546,180.801C66.984,178.396 69.369,176.643 71.698,174.881C73.436,173.565 75.45,172.789 77.203,171.913C80.675,170.176 84.397,170.837 87.946,169.654C89.846,169.02 93.637,166.831 95.337,165.818C99.571,163.299 103.745,161.425 108.129,159.232C111.103,157.746 117.135,155.348 119.756,153.601C121.893,152.176 120.546,152.041 122.652,150.988C125.86,149.385 130.436,147.985 133.983,146.823C135.518,146.319 139.958,145.059 142.065,145.181C146.921,145.461 147.948,146.532 151.217,148.167C156.441,150.778 160.754,154.109 166.305,156.885C168.941,158.203 182.947,168.189 184.316,169.558C184.692,169.933 185.746,171.035 185.634,172.019C185.456,173.583 184.83,175.751 183.618,176.963C182.795,177.786 182.017,179.455 179.961,179.138C179.257,179.029 174.72,174.81 173.108,173.271C171.337,171.58 169.339,169.458 167.154,167.538C165.027,165.67 153.701,156.887 151.539,155.539C148.883,153.883 146.079,152.412 143.59,151.168C140.559,149.652 133.829,152.441 131.347,153.269C128.938,154.072 126.408,154.803 124.2,155.907C123.499,156.258 121.981,155.663 121.649,155.995C120.567,157.077 110.984,161.385 109.015,162.503C106.115,164.151 92.948,170.125 94.994,170.776C97.218,171.483 101.625,172.833 103.648,173.904C107.772,176.088 110.756,178.597 113.785,181.348C117.783,184.977 121.448,189.423 123.588,193.73C124.159,194.88 126.262,200.116 127.18,200.575C129.636,201.803 133.808,197.654 136.686,199.587C138.785,200.997 137.496,200.992 139.381,202.877C140.14,203.637 145.307,203.956 146.476,203.956C149.924,203.956 153.178,203.523 156.776,203.006C158.759,202.721 160.962,202.245 162.734,201.359C163.051,201.2 167.489,201.419 167.695,201.626C167.846,201.776 168.544,204.606 169.109,203.502C170.11,201.55 170.55,198.655 172.243,195.149C172.596,194.418 174.137,191.817 176.14,189.537C177.983,187.439 180.266,185.652 181.281,184.97C183.484,183.492 185.771,182.016 188.073,181.077C193.97,178.674 199.681,178.488 206.371,178.708C209.891,178.824 214.107,179.795 218.149,181.56C223.41,183.857 228.082,187.763 232.949,191.008C234.861,192.283 240.66,199.957 241.301,201.003C242.817,203.478 244.589,206.438 245.371,208.623C245.596,209.251 251.296,208.275 252.269,209.219C252.873,209.804 252.56,210.184 252.736,211.164C252.875,211.94 256.77,210.683 257.313,210.412C258.631,209.753 262.343,207.771 262.935,207.179C264.7,205.414 262.458,205.495 265.958,203.84C269.302,202.26 273.06,200.201 276.369,198.216Z" style="fill:none;"/>
    </g>
</svg>
