<?xml version="1.0" encoding="UTF-8" standalone="no"?>
<svg
   xmlns:dc="http://purl.org/dc/elements/1.1/"
   xmlns:cc="http://creativecommons.org/ns#"
   xmlns:rdf="http://www.w3.org/1999/02/22-rdf-syntax-ns#"
   xmlns:svg="http://www.w3.org/2000/svg"
   xmlns="http://www.w3.org/2000/svg"
   id="svg6"
   style="fill-rule:evenodd;clip-rule:evenodd;stroke-linejoin:round;stroke-miterlimit:2;"
   xml:space="preserve"
   version="1.1"
   viewBox="0 0 400 400"
   height="100%"
   width="100%"><metadata
     id="metadata12"><rdf:RDF><cc:Work
         rdf:about=""><dc:format>image/svg+xml</dc:format><dc:type
           rdf:resource="http://purl.org/dc/dcmitype/StillImage" /><dc:title></dc:title></cc:Work></rdf:RDF></metadata><defs
     id="defs10" /><path
     id="path4"
     style="fill:none;fill-opacity:1;stroke:#000000;stroke-opacity:1"
     d="M180.705,330.195C180.854,328.758 181.709,328.245 182.197,327.592C182.887,326.669 183.364,325.796 184.569,324.485C185.468,323.507 186.564,320.02 185.589,318.069C184.494,315.879 184.392,315.623 184.817,314.748C185.162,314.037 186.124,314.56 186.124,312.775C186.124,308.564 186.274,302.109 186.421,297.845C186.544,294.288 186.722,289.615 186.771,286.132C186.783,285.323 187.357,282.887 187.001,282.176C186.41,280.994 185.79,281.316 185.203,280.143C184.972,279.68 186.272,279.187 186.818,277.76C187.466,276.065 187.16,272.469 187.148,272.139C187.101,270.751 185.362,270.433 186.146,268.865C187.411,266.335 189.722,263.875 190.26,260.994C190.587,259.241 190.372,257.803 190.286,256.026C190.184,253.934 190.234,250.504 190.208,248.455C190.173,245.717 190.043,239.989 190.081,237.231C190.104,235.606 190.168,231.734 190.117,229.98C190.008,226.232 190.055,221.369 190.055,217.679C190.055,216.357 190.077,209.915 190.144,208.419C190.181,207.611 190.363,206.083 190.021,205.741C189.457,205.177 187.974,205.307 188.462,203.906C188.87,202.734 189.512,203.016 189.926,201.786C191.367,197.503 190.462,190.991 190.614,186.372C190.733,182.759 190.428,176.786 190.56,173.285C190.661,170.596 190.638,159.893 190.585,158.369C190.455,154.667 190.3,149.093 190.3,145.38C190.3,141.16 190.433,134.527 190.399,129.852C190.386,128.004 189.341,126.343 188.729,125.119C188.564,124.79 189.28,123.356 189.338,123.166C189.615,122.268 189.091,119.572 189.74,118.221C190.02,117.639 190.877,116.915 191.932,116.415C192.082,116.344 191.152,115.134 190.771,114.754C189.907,113.889 190.733,110.999 189.924,110.191C189.335,109.602 187.315,110.438 186.795,109.917C185.708,108.83 185.793,106.244 185.473,104.8C184.49,100.355 183.23,95.58 182.444,90.939C182.084,88.81 182.364,85.837 180.994,84.467C180.339,83.812 178.39,84.71 177.478,84.176C176.643,83.688 176.787,82.378 176.595,81.536C176.206,79.835 176.303,76.949 175.45,75.574C174.902,74.69 180.231,73.814 180.427,73.422C182.071,70.135 182.316,64.99 184.207,62.025C184.841,61.03 186.814,62.415 187.637,61.593C188.128,61.101 188.097,60.694 188.668,60.465C189.172,60.262 190.296,60.254 190.498,59.652C190.608,59.323 188.653,58.901 188.519,57.454C188.425,56.436 189.335,56.047 189.977,55.801C190.783,55.493 191.853,54.825 192.407,54.271C192.865,53.813 192.233,53.31 192.064,52.583C191.947,52.076 192.653,50.288 193.659,50.219C194.161,50.185 195.208,51.324 195.344,52.133C195.501,53.072 194.574,53.676 195.056,54.157C195.382,54.483 199.807,56.456 199.175,57.547C198.579,58.577 197.21,59.255 197.21,59.47C197.21,59.901 198.479,59.938 198.619,60.077C198.877,60.335 198.976,61.268 199.987,61.586C201.188,61.964 203.006,61.445 203.17,61.884C204.163,64.545 204.649,65.806 205.409,68.967C205.632,69.893 205.907,72.043 206.772,72.908C208.494,74.63 210.425,73.256 210.991,75.195C211.44,76.736 211.335,82.576 210.878,83.948C210.637,84.671 207.394,83.767 206.877,84.284C205.282,85.879 205.372,89.497 205.251,91.646C205.205,92.464 204.458,95.717 204.208,96.826C203.632,99.378 203.305,101.843 202.714,104.197C202.493,105.076 201.969,108.781 201.605,109.588C201.094,110.721 199.699,108.994 198.902,109.791C198.135,110.558 198.875,110.89 197.838,111.927C196.698,113.067 197.568,114.333 196.894,115.683C196.776,115.918 195.809,116.291 195.638,116.461C195.357,116.742 197.506,117.255 197.809,117.862C198.197,118.637 198.208,121.725 198.384,123.407C198.454,124.08 198.863,124.289 198.854,124.403C198.805,125.076 198.046,126.872 198.046,127.493C198.046,129.854 197.745,133.65 197.632,136.043C197.579,137.173 197.593,139.319 197.593,140.288C197.593,143.695 197.681,146.849 197.681,150.406C197.681,154.159 197.881,157.18 197.844,160.892C197.827,162.632 198.05,168.399 198.05,170.142C198.05,176.346 198.059,182.355 198.059,188.507C198.059,190.216 198.068,193.898 198.028,195.665C197.997,197.059 197.898,200.628 198.711,201.442C199.065,201.795 201.204,203.706 200.424,204.487C200.115,204.796 199.472,205.627 199.095,206.004C198.536,206.562 199.051,208.861 199.051,209.426C199.051,213.181 199.092,216.826 199.092,220.611C199.092,223.015 199.635,227.473 199.502,230.058C199.305,233.878 199.416,239.465 199.416,243.467C199.416,244.555 199.376,251.294 199.389,252.55C199.407,254.181 198.776,260.492 199.566,262.073C201.142,265.226 201.434,264.82 203.005,267.96C203.525,269.001 202.831,269.881 202.766,271.169C202.715,272.178 202.686,275.797 202.941,277.06C203.165,278.17 204.843,279.582 204.181,280.244C203.751,280.674 203.186,281.219 202.864,281.862C202.467,282.657 203.241,287.432 203.241,287.833C203.241,290.322 203.529,292.98 203.529,295.113C203.529,300.036 204.311,307.787 204.311,312.495C204.311,314.892 205.466,313.81 205.73,315.742C205.798,316.238 204.805,317.333 204.557,318.525C204.201,320.243 204.914,323.061 205.603,323.752C207.43,325.585 206.792,325.812 208.8,327.177C209.962,327.967 210.115,330.539 209.557,330.942C207.066,332.743 206.378,333.993 202.54,334.601C201.324,334.794 194.74,335.212 194.442,335.243C192.459,335.448 190.15,335.25 188.693,334.938C186.88,334.55 185.146,334.443 183.059,333.465C181.681,332.82 181.343,332.747 180.705,330.195Z" /></svg>