<?xml version="1.0" encoding="UTF-8" standalone="no"?>
<!DOCTYPE svg PUBLIC "-//W3C//DTD SVG 1.1//EN" "http://www.w3.org/Graphics/SVG/1.1/DTD/svg11.dtd">
<svg width="100%" height="100%" viewBox="0 0 400 400" version="1.1" xmlns="http://www.w3.org/2000/svg" xmlns:xlink="http://www.w3.org/1999/xlink" xml:space="preserve" xmlns:serif="http://www.serif.com/" style="fill-rule:evenodd;clip-rule:evenodd;stroke-linejoin:round;stroke-miterlimit:2;">
    <g transform="matrix(1,0,0,1,-34.8183,10.1469)">
        <path d="M110.875,280.225C110.659,279.433 120.152,275.746 121.238,274.931C123.275,273.403 127.675,271.797 129.805,270.532C134.684,267.635 138.2,263.229 142.291,260.409C144.278,259.039 145.306,257.092 147.002,255.396C147.951,254.447 143.676,252.788 143.405,252.518C140.591,249.704 138.06,245.665 136.451,242.446C135.662,240.869 136.451,236.814 136.451,235.012C136.451,224.89 140.612,218.057 144.604,210.072C146.213,206.854 149.783,196.768 152.105,193.285C157.495,185.2 170.404,170.24 172.048,166.954C174.502,162.044 200.013,137.403 201.935,135.313C212.214,124.136 222.504,118.005 235.492,111.511C241.258,108.628 245.733,105.139 251.799,103.118C261.73,99.807 273.995,98.614 282.734,94.245C286.854,92.184 295.755,94.484 300.24,94.484C320.478,94.484 337.436,102.664 350.12,115.348C352.656,117.884 356.469,119.538 358.753,121.823C359.027,122.097 354.592,123.29 353.957,123.501C350.516,124.648 346.991,125.184 343.405,126.379C341.705,126.946 339.29,126.278 337.65,127.098C327.466,132.19 322.842,137.53 317.986,147.242C317.11,148.993 315.259,150.864 314.628,152.758C311.189,163.077 302.792,171.634 298.082,181.055C289.91,197.398 279.822,212.595 268.585,227.578C258.712,240.741 248.701,254.088 234.532,262.59C228.463,266.232 223.439,271.494 217.266,274.58C213.745,276.341 205.235,279.561 201.408,279.733C188.27,280.322 176.346,278.581 165.947,273.381C165.538,273.177 165.129,272.967 164.72,272.753C161.262,270.942 154.404,266.072 151.013,264.377C150.537,264.139 165.53,256.547 181.113,241.17C189.386,233.007 198.973,223.295 208.998,213.318C216.281,206.069 225.497,200.053 232.892,192.657C239.265,186.282 245.386,179.705 251.368,173.691C258.366,166.657 265.692,160.318 271.412,154.374C277.066,148.498 284.469,141.97 289.511,135.559C296.875,126.194 320.342,115.548 320.105,115.381C319.447,114.916 307.672,116.469 294.804,125.784C282.586,134.63 269.139,149.802 259.734,158.579C254.157,163.784 248.975,170.021 242.749,175.896C238.156,180.231 232.352,182.97 227.584,187.463C221.557,193.144 216.213,199.971 210.265,205.687C203.366,212.318 197.56,219.157 191.193,225.244C187.26,229.004 183.248,232.109 179.639,235.487C174.61,240.193 169.478,244.067 165.548,247.873C156.151,256.974 149.476,261.051 149.267,261.26C147.368,263.159 143.921,266.87 141.487,269.305C137.088,273.703 127.29,279.025 120.28,282.207C119.014,282.782 114.594,285.089 113.545,286.172C112.532,287.217 111.329,282.418 110.875,280.225Z" style="fill:none;"/>
    </g>
</svg>
