<?xml version="1.0" encoding="UTF-8" standalone="no"?>
<!DOCTYPE svg PUBLIC "-//W3C//DTD SVG 1.1//EN" "http://www.w3.org/Graphics/SVG/1.1/DTD/svg11.dtd">
<svg width="100%" height="100%" viewBox="0 0 400 400" version="1.1" xmlns="http://www.w3.org/2000/svg" xmlns:xlink="http://www.w3.org/1999/xlink" xml:space="preserve" xmlns:serif="http://www.serif.com/" style="fill-rule:evenodd;clip-rule:evenodd;stroke-linejoin:round;stroke-miterlimit:2;">
    <path d="M195.686,332.857C193.792,332.88 192.048,330.082 191.34,329.728C188.702,328.409 178.039,322.701 176.313,319.685C175.547,318.346 173.809,318.354 172.367,317.034C169.561,314.464 167.319,310.7 164.875,308.256C164.112,307.493 196.082,307.249 215.756,305.244C225.812,304.219 231.107,301.751 230.511,301.553C228.893,301.015 180.513,305.449 165.78,305.775C164.814,305.797 161.219,301.381 161.138,301.071C160.732,299.512 162.081,298.83 163.14,296.712C163.372,296.247 186.151,295.432 205.098,293.904C219.487,292.743 231.383,290.812 231.159,290.399C230.476,289.141 180.053,293.512 164.841,293.357C161.983,293.328 160.991,289.945 161.129,289.807C161.343,289.592 163.116,288.188 163.964,286.545C164.425,285.65 191.012,285.147 210.515,283.753C222.703,282.882 231.084,280.987 231.036,280.621C230.86,279.271 181.48,284.293 165.469,283.436C162.167,283.259 160.845,279.495 161.018,279.148C161.692,277.8 162.999,277.323 163.845,276.478C164.259,276.063 188.994,274.47 208.11,272.91C221.053,271.855 231.922,270.999 230.932,269.717C229.814,268.27 184.189,273.034 167.337,273.418C163.554,273.504 161.661,270.19 161.582,270.031C160.261,267.39 163.022,265.642 162.265,262.287C161.738,259.948 162.285,259.438 161.432,257.05C160.868,255.472 159.133,255.864 160.241,253.567C160.879,252.243 155.839,247.151 154.646,244.765C153.011,241.496 152.967,235.83 152.518,232.134C152.136,228.987 151.415,225.559 150.6,222.542C148.764,215.748 146.594,211.109 144.25,206.718C140.073,198.897 135.208,191.303 131.101,183.089C128.945,178.777 124.01,166.671 123.433,162.062C121.574,147.209 120.786,141.898 123.909,129.348C125.675,122.253 128.277,115.381 131.655,109.113C137.546,98.181 148.16,87.998 158.514,81.095C166.487,75.78 174.961,73.446 184.126,71.376C190.179,70.009 195.458,69.881 201.52,69.881C202.935,69.881 216.676,71.351 221.393,73.277C228.634,76.234 232.256,77.484 238.82,81.859C241.226,83.464 248.8,88.716 250.744,90.661C256.311,96.228 259.298,98.736 263.336,105.744C275.292,126.493 278.048,147.841 270.359,172.319C265.674,187.232 255.479,200.6 249.03,213.498C245.759,220.04 244.093,227.086 243.645,234.532C243.518,236.65 243.367,242.022 241.878,243.511C240.874,244.515 241.294,246.956 240.048,248.201C238.556,249.693 237.431,250.696 236.234,253.091C235.481,254.598 238.136,254.04 236.199,256.092C235.366,256.975 235.433,259.668 235.16,261.299C234.993,262.294 236.399,263.452 235.87,264.44C235.061,265.954 232.798,266.731 232.981,268.598C233.067,269.474 232.828,269.936 233.476,270.937C234.124,271.938 236.536,272.932 236.318,274.936C236.131,276.658 232.896,278.305 232.832,279.478C232.819,279.699 232.651,280.568 233.291,281.336C234.675,282.999 236.692,283.738 236.221,285.693C236.015,286.545 233.65,287.482 232.826,289.224C232.474,289.967 232.606,290.843 232.971,291.6C233.343,292.372 236.386,294.135 236.211,295.753C236.081,296.945 233.59,298.314 232.779,299.936C232.26,300.974 232.629,301.957 233.273,302.527C234.486,303.601 236.952,304.941 235.16,306.732C231.275,310.618 227.678,315.041 223.741,318.413C222.654,319.345 221.475,318.91 221.278,319.517C220.967,320.47 218.835,321.693 217.25,322.825C215.167,324.313 211.757,327.087 209.345,328.624C208.324,329.275 207.798,329.318 207.48,329.36C206.478,329.493 204.315,332.242 202.663,332.606C200.352,333.115 197.597,332.834 195.686,332.857Z" style="fill:none;"/>
</svg>
