<?xml version="1.0" encoding="UTF-8" standalone="no"?>
<!DOCTYPE svg PUBLIC "-//W3C//DTD SVG 1.1//EN" "http://www.w3.org/Graphics/SVG/1.1/DTD/svg11.dtd">
<svg width="100%" height="100%" viewBox="0 0 400 400" version="1.1" xmlns="http://www.w3.org/2000/svg" xmlns:xlink="http://www.w3.org/1999/xlink" xml:space="preserve" xmlns:serif="http://www.serif.com/" style="fill-rule:evenodd;clip-rule:evenodd;stroke-linejoin:round;stroke-miterlimit:2;">
    <g transform="matrix(1,0,0,1,-2.73073,-7.49557)">
        <path d="M163.688,97.764C163.728,99.844 163.781,103.336 163.781,105.584C163.781,110.699 164.105,116.309 164.156,121.667C164.163,122.442 170.295,124.244 178.364,124.857C185.859,125.426 201.932,125.085 207.083,125.066C207.383,125.065 208.314,121.681 210.894,122.075C211.284,122.135 208.198,97.179 207.209,94.96C206.519,93.412 188.712,94.827 188.643,93.9C188.636,93.8 207.428,92.713 207.854,93.951C209.454,98.594 212.196,122.8 211.85,122.798C208.584,122.771 208.031,125.931 207.872,125.932C201.962,125.987 184.86,126.507 177.226,125.896C169.782,125.301 164.21,123.279 164.21,123.403C164.21,141.724 165.021,159.551 164.41,177.806C164.264,182.162 164.065,184.847 163.81,189.606C163.483,195.715 164.074,201.766 164.222,208.186C164.35,213.715 163.947,220.512 164.088,225.841C164.29,233.533 164.555,241.566 164.322,249.158C164.202,253.055 164.146,264.047 164.146,267.99C164.146,277.451 163.882,282.192 164.149,291.619C164.428,301.449 163.871,310.744 163.81,320.812C163.794,323.491 163.264,325.786 165.189,327.712C166.531,329.054 172.217,329.786 174.49,330.291C178.267,331.131 183.333,330.992 186.519,331.118C193.117,331.378 195.758,331.205 201.301,331.205C204.248,331.205 214.998,331.223 215.994,331.2C220.283,331.101 226.338,330.514 229.655,330.226C232.81,329.951 240.052,329.13 240.846,327.541C241.593,326.048 241.354,324.579 241.331,323.048C241.237,316.68 241.303,310.081 241.303,302.722C241.303,300.042 241.276,285.066 241.276,281.706C241.276,278.377 241.186,274.977 241.177,271.451C241.16,265.118 241.105,257.914 241.076,251.92C240.925,220.758 241.164,189.92 241.164,158.399C241.164,152.044 241.415,145.71 241.107,139.554C240.931,136.037 241.116,131.535 240.955,128.7C240.839,126.661 240.971,122.053 240.068,121.287C239.684,120.96 239.825,122.666 237.264,123.803C235.582,124.551 232.784,124.842 230.149,125.08C226.138,125.443 219.477,126.13 218.715,125.522C218.356,125.236 218.075,124.479 217.127,123.663C216.424,123.057 215.199,122.503 214.121,121.639C213.69,121.293 213.582,116.495 213.405,113.027C213.251,110.004 216.163,107.453 215.851,107.891C215.827,107.924 214.326,110.804 214.304,112.34C214.274,114.469 214.344,118.925 215.137,121.017C215.299,121.443 216.713,122.175 217.883,123.1C218.517,123.602 218.838,124.398 219.399,124.69C219.863,124.932 228.407,124.621 233.591,123.694C236.294,123.21 237.436,122.209 237.433,122.055C237.406,120.44 237.227,116.25 236.859,115.881C234.999,114.021 239.156,113.697 241.012,114.134C242.26,114.428 241.792,106.662 240.916,105.786C239.775,104.645 237.583,105.3 235.794,105.364C232.808,105.472 225.924,106.153 222.367,106.736C221.217,106.924 217.259,107.733 216.302,107.255C215.687,106.947 217.017,105.719 216.874,104.626C216.679,103.134 217.992,100.052 217.7,97.629C217.329,94.549 216.752,90.542 214.612,88.402C211.296,85.086 208.468,83.73 202.509,83.73C196.995,83.73 194.208,86.205 191.611,88.802C190.857,89.556 189.615,91.93 188.653,92.045C188.433,92.072 188.598,90.771 186.86,90.648C183.344,90.398 176.596,91.202 175.01,91.202C173.993,91.202 171.966,91.558 170.896,91.624C169.905,91.685 166.628,92.466 165.825,93.268C164.562,94.532 163.656,96.08 163.688,97.764Z" style="fill:none;"/>
    </g>
</svg>
