<?xml version="1.0" encoding="UTF-8" standalone="no"?>
<!DOCTYPE svg PUBLIC "-//W3C//DTD SVG 1.1//EN" "http://www.w3.org/Graphics/SVG/1.1/DTD/svg11.dtd">
<svg width="100%" height="100%" viewBox="0 0 400 400" version="1.1" xmlns="http://www.w3.org/2000/svg" xmlns:xlink="http://www.w3.org/1999/xlink" xml:space="preserve" xmlns:serif="http://www.serif.com/" style="fill-rule:evenodd;clip-rule:evenodd;stroke-linejoin:round;stroke-miterlimit:2;">
    <path d="M150.738,187.491C145.845,187.541 142.398,187.199 142.554,188.524C143.109,193.247 141.937,199.279 141.937,202.74C141.937,219.189 142.755,235.906 142.755,252.334C142.755,257.521 142.95,262.586 142.95,267.744C142.95,270.214 142.442,273.554 143.535,275.741C144.269,277.208 145.883,277.064 147.437,277.302C149.097,277.555 151.258,277.347 153.178,277.535C158.726,278.079 165.109,278.116 168.001,278.136C173.317,278.171 181.488,278.478 187.306,278.765C190.416,278.919 201.438,278.614 204.725,278.468C209.982,278.235 225.006,278.381 229.959,278.381C232.534,278.381 248.685,277.17 251.146,276.678C252.254,276.456 256.512,277.157 256.679,275.171C257.027,271.013 256.939,266.996 257.051,263.118C257.187,258.378 256.645,255.196 257.008,248.458C257.147,245.871 257.452,234.186 257.452,231.462C257.452,226.924 256.877,221.804 257.116,217.217C257.172,216.143 256.72,210.025 256.711,208.593C256.69,204.856 257.27,200.386 257.063,195.69C256.976,193.711 256.736,191.016 256.915,188.98C256.99,188.123 248.716,189.63 247.468,188.382C246.798,187.712 248.284,170.913 248.284,169.432C248.284,165.492 248.089,161.528 248.089,157.534C248.089,154.681 248.605,137.59 248.517,133.44C248.447,130.115 247.691,125.308 247.352,121.896C247.116,119.512 242.014,109.257 240.514,106.257C239.753,104.735 234.217,98.743 232.918,97.44C229.686,94.201 224.483,89.399 218.538,87.913C211.768,86.22 201.569,82.838 192.914,84.45C186.198,85.7 177.943,88.961 172.093,92.861C156.824,103.04 150.542,119.494 149.972,137.052C149.737,144.309 150.405,149.566 149.955,157.125C149.802,159.7 149.376,162.562 150.492,164.523C151.358,166.046 155.749,166.977 156.68,166.897C160.916,166.535 164.309,166.995 166.943,164.361C167.294,164.01 166.943,161.599 166.943,161.045C166.943,159.518 166.939,156.555 166.163,155.778C165.094,154.709 160.014,157.237 158.945,156.168C158.767,155.989 158.361,152.461 158.75,152.072C159.238,151.584 159.043,150.414 159.531,149.926C159.946,149.511 162.087,148.098 162.766,147.759C164.685,146.799 166.319,145.283 167.528,144.074C167.9,143.702 167.333,141.482 167.333,140.953C167.333,138.45 167.141,135.168 167.223,132.72C167.345,129.08 168.097,125.601 169.2,122.293C170.286,119.034 174.145,113.269 176.501,110.914C181.337,106.078 185.736,104.559 191.676,102.579C199.349,100.021 204.894,101.525 212.346,104.009C215.371,105.017 217.747,107.076 219.839,109.167C223.847,113.176 226.565,115.071 228.973,119.887C231.284,124.51 231.172,129.859 231.696,135.775C231.886,137.926 231.813,141.134 231.876,143.268C232.027,148.389 232.358,165.424 232.333,170.63C232.32,173.384 231.898,180.027 231.898,182.697C231.898,183.316 231.915,187.151 231.846,187.693C231.712,188.743 229.191,188.629 228.51,188.629C225.83,188.629 223.905,188.369 221.17,188.353C211.634,188.3 183.921,188.267 179.522,188.219C177.436,188.196 154.398,187.454 150.738,187.491Z" style="fill:none;"/>
</svg>
