<?xml version="1.0" encoding="UTF-8" standalone="no"?>
<!DOCTYPE svg PUBLIC "-//W3C//DTD SVG 1.1//EN" "http://www.w3.org/Graphics/SVG/1.1/DTD/svg11.dtd">
<svg width="100%" height="100%" viewBox="0 0 400 400" version="1.1" xmlns="http://www.w3.org/2000/svg" xmlns:xlink="http://www.w3.org/1999/xlink" xml:space="preserve" xmlns:serif="http://www.serif.com/" style="fill-rule:evenodd;clip-rule:evenodd;stroke-linejoin:round;stroke-miterlimit:2;">
    <g transform="matrix(1.37628,0,0,1.37628,-67.4752,-96.387)">
        <path d="M186.58,148.717C186.424,150.457 186.571,155.788 186.571,157.554C186.571,165.833 186.758,174.457 186.31,181.813C185.738,191.192 185.238,217.348 185.372,223.501C185.457,227.402 184.652,233.833 184.652,237.89C184.652,246.549 182.974,254.067 182.974,262.59C182.974,277.145 181.625,291.801 181.295,306.235C181.163,312.009 180.172,321.437 180.647,322.323C181.835,324.538 192.312,324.474 192.566,324.221C192.955,323.831 196.113,296.671 196.25,292.744C196.49,285.899 196.912,278.794 197.239,271.964C197.602,264.377 197.37,255.57 198.321,247.962C199.814,236.018 199.745,203.369 199.54,199.677C198.985,189.689 199.76,181.199 199.76,172.422C199.76,168.21 199.486,155.327 198.801,153.957C198.494,153.343 198.177,147.866 198.321,147.722C200.895,145.148 206.719,134.509 207.864,128.278C208.859,122.862 208.857,121.937 208.044,117.662C207.037,112.366 206.123,111.919 202.642,108.651C197.716,104.026 189.943,107.299 186.314,110.714C183.852,113.031 182.014,117.275 181.203,118.897C179.584,122.135 179.799,127.986 181.131,130.651C181.836,132.06 185.253,147.342 186.558,147.693C186.677,147.725 188.055,147.548 189.378,147.594C190.818,147.643 192.41,147.189 193.944,147.444C196.011,147.788 198.273,147.782 197.743,147.93C197.324,148.047 194.889,148.794 193.017,148.677C191.694,148.595 186.614,148.337 186.58,148.717Z" style="fill:none;"/>
    </g>
</svg>
