<?xml version="1.0" encoding="UTF-8" standalone="no"?>
<!DOCTYPE svg PUBLIC "-//W3C//DTD SVG 1.1//EN" "http://www.w3.org/Graphics/SVG/1.1/DTD/svg11.dtd">
<svg width="100%" height="100%" viewBox="0 0 400 400" version="1.1" xmlns="http://www.w3.org/2000/svg" xmlns:xlink="http://www.w3.org/1999/xlink" xml:space="preserve" xmlns:serif="http://www.serif.com/" style="fill-rule:evenodd;clip-rule:evenodd;stroke-linejoin:round;stroke-miterlimit:2;">
    <path d="M166.279,76.057C172.656,73.514 186.952,69.71 195.543,69.25C209.548,68.5 216.82,72.687 216.82,72.687C216.82,72.687 180.592,94.661 162.103,126.918C145.603,155.702 145.893,193.382 156.565,219.77C167.271,246.243 200.611,277.506 238.349,286.129C276.087,294.753 318.222,280.738 318.222,280.738C318.222,280.738 312.767,293.184 301.676,302.846C290.757,312.359 276.908,320.492 267.234,323.43C195.716,345.145 119.225,318.657 91.556,250.24C63.886,181.823 96.854,103.744 166.279,76.057" style="fill:none;"/>
</svg>
