<?xml version="1.0" encoding="UTF-8" standalone="no"?>
<!DOCTYPE svg PUBLIC "-//W3C//DTD SVG 1.1//EN" "http://www.w3.org/Graphics/SVG/1.1/DTD/svg11.dtd">
<svg width="100%" height="100%" viewBox="0 0 400 400" version="1.1" xmlns="http://www.w3.org/2000/svg" xmlns:xlink="http://www.w3.org/1999/xlink" xml:space="preserve" xmlns:serif="http://www.serif.com/" style="fill-rule:evenodd;clip-rule:evenodd;stroke-linejoin:round;stroke-miterlimit:2;">
    <g transform="matrix(1.08006,-0.436803,0.429629,1.06232,-118.408,56.3996)">
        <path d="M220.206,109.048C226.099,109.077 238.699,110.677 245.683,113.116C257.069,117.091 261.508,122.857 261.508,122.857C261.508,122.857 225.609,128.782 200.516,148.829C178.123,166.717 166.228,197.296 166.228,222.135C166.228,247.055 182.697,283.255 209.951,302.579C237.204,321.903 275.243,324.351 275.243,324.351C275.243,324.351 266.897,332.635 254.962,336.823C243.212,340.946 229.575,342.995 220.932,342.206C157.035,336.375 104.693,289.919 104.693,225.516C104.693,161.113 156.053,108.732 220.206,109.048" style="fill:none;"/>
    </g>
</svg>
