<?xml version="1.0" encoding="UTF-8" standalone="no"?>
<!DOCTYPE svg PUBLIC "-//W3C//DTD SVG 1.1//EN" "http://www.w3.org/Graphics/SVG/1.1/DTD/svg11.dtd">
<svg width="100%" height="100%" viewBox="0 0 400 400" version="1.1" xmlns="http://www.w3.org/2000/svg" xmlns:xlink="http://www.w3.org/1999/xlink" xml:space="preserve" xmlns:serif="http://www.serif.com/" style="fill-rule:evenodd;clip-rule:evenodd;stroke-linejoin:round;stroke-miterlimit:2;">
    <g transform="matrix(0.821223,0,0,0.821223,47.7884,37.7897)">
        <path d="M318.981,298.219C319.99,298.85 320.635,298.484 321.336,297.995C321.834,297.648 324.596,296.245 325.438,297.326C325.671,297.626 329.026,298.182 329.134,297.145C329.179,296.707 330.957,295.582 331.825,296.005C332.29,296.231 334.782,295.164 335.479,294.683C336.074,294.272 338.134,294.996 338.603,294.052C339.155,292.943 341.09,293.859 341.773,293.518C342.487,293.161 343.188,291.875 343.972,292.277C344.306,292.449 347.497,290.965 347.46,289.885C347.439,289.285 349.518,288.043 349.676,286.933C349.775,286.24 352.134,285.319 352.225,284.033C352.307,282.859 354.701,281.882 355.06,281.162C355.272,280.74 356.029,280.211 355.83,279.546C355.601,278.786 355.759,276.206 357.067,276.56C357.928,276.793 358.364,274.829 358.79,274.402C359.219,273.973 360.052,273.192 359.617,272.533C359.27,272.008 358.263,269.612 359.592,269.356C360.854,269.113 360.341,266.79 360.888,266.243C361.122,266.009 362.184,265.49 362.153,264.445C362.134,263.842 362.593,261.442 363.703,260.808C364.104,260.579 364.676,258.488 364.403,257.94C363.313,255.761 360.397,254.659 359.28,253.671C357.619,252.203 355.212,248.445 353.662,246.894C352.692,245.924 351.374,244.934 349.699,244.097C348.455,243.475 345.753,242.178 344.51,241.556C340.938,239.77 337.44,238.9 333.38,236.87C327.59,233.975 321.256,237.884 316.567,233.194C316.021,232.648 310.408,231.975 309.369,231.975C305.862,231.975 303.135,231.189 300.511,229.876C299.106,229.174 296.537,228.291 295.29,227.668C289.646,224.846 290.557,221.787 286.757,217.987C284.728,215.958 273.008,213.286 272.049,213.286C264.215,213.286 260.108,213.152 252.769,209.57C247.322,206.911 237.33,204.174 234.85,205.414C229.995,207.842 209.52,205.654 209.051,205.498C203.076,203.507 187.332,204.342 181.789,204.269C173.788,204.164 152.839,204.076 151.612,204.13C148.334,204.276 125.759,206.08 121.014,206.138C115.352,206.208 106.674,206.321 100.975,205.507C98.486,205.151 60.662,204.272 61.56,201.701C62.415,199.252 95.597,195.164 103.526,193.51C109.365,192.293 114.314,191.158 119.845,189.314C127.455,186.777 135.471,186.235 143.389,184.652C147.106,183.908 151.423,184.858 155.045,183.952C159.985,182.717 165.231,182.614 170.198,181.621C172.33,181.195 175.458,181.672 177.425,180.689C185.174,176.814 194.73,173.083 204,174.628C209.257,175.504 214.357,176.315 219.619,177.192C224.472,178.001 229.914,177.026 234.305,178.124C237.038,178.807 243.309,181.432 246.194,179.989C250.367,177.903 256.05,178.18 260.415,176.726C263.889,175.567 271.514,173.785 273.935,171.364C275.089,170.211 280.258,170.343 281.861,170.198C284.545,169.955 289.271,170.198 291.652,170.198C298.02,170.198 304.865,169.794 311.001,168.566C322.045,166.358 333.806,167.291 343.679,162.354C346.362,161.013 352.713,158.825 353.662,155.978C354.405,153.749 354.918,151.411 357.158,149.917C361.143,147.261 359.736,146.026 364.206,144.536C365.602,144.071 368.403,140.824 367.954,140.38C367.035,139.472 364.48,134.315 361.885,130.422C359.937,127.5 358.585,124.273 356.019,121.707C352.838,118.526 350.773,113.322 348.472,112.849C344.582,112.049 340.822,109.931 337.27,109.043C332.23,107.783 325.162,107.47 320.326,105.858C316.785,104.678 310.77,107.013 307.532,105.395C304.699,103.978 300.619,103.3 297.905,101.943C294.128,100.055 292.034,101.28 289.321,103.993C288.917,104.397 285.49,103.037 284.871,103.359C282.068,104.816 279.504,105.366 274.704,105.004C273.326,104.901 272.288,107.122 271.488,106.722C270.725,106.34 264.769,102.436 263.911,103.293C263.314,103.891 263.138,107.873 261.677,106.274C260.537,105.027 259.918,99.451 254.775,101.166C253.183,101.696 252.156,104.322 250.674,103.596C248.607,102.582 245.554,101.086 244.917,101.723C244.395,102.245 244.431,107.413 244.107,108.386C243.485,110.252 242.174,109.608 241.282,111.872C240.079,114.927 235.786,111.982 235.276,113.558C234.627,115.565 235.606,121.672 234.305,124.274C233.778,125.329 232.874,126.172 231.974,127.071C231.404,127.641 229.607,126.103 229.41,125.906C228.498,124.994 229.726,122.575 229.177,121.477C228.528,120.18 225.242,117.383 223.582,118.213C222.146,118.931 221.866,124.094 221.083,125.661C220.001,127.825 221.277,129.843 219.852,131.268C218.636,132.483 215.696,128.531 215.19,127.771C212.409,123.599 217.358,118.982 214.024,115.649C212.619,114.243 209.223,115.617 207.73,116.115C203.296,117.593 200.634,118.082 197.939,120.777C197.717,120.999 197.771,124.096 197.468,123.944C196.555,123.488 194.717,119.997 194.124,118.809C193.536,117.633 191.329,114.904 190.47,114.044C189.558,113.132 187.362,113.927 186.562,113.127C185.591,112.156 184.932,105.178 184.04,104.287C183.375,103.622 176.609,106.673 175.56,107.723C171.922,111.361 166.27,113.014 163.904,117.747C163.431,118.692 162.321,119.294 161.955,120.904C161.318,123.708 161.573,127.829 161.573,129.636C161.573,131.304 161.953,135.041 160.64,135.697C157.15,137.442 158.97,133.645 157.205,131.81C153.724,128.19 153.924,119.102 153.691,114.893C153.564,112.586 150.912,113.175 150.394,112.139C149.518,110.386 151.956,108.907 150.667,107.373C149.485,105.964 147.851,107.282 146.554,106.325C143.355,103.965 145.074,100.021 145.091,96.512C145.1,94.459 140.512,96.164 139.894,94.507C139.296,92.9 140.315,90.528 139.178,89.403C137.949,88.187 134.975,88.848 134.304,88.8C133.173,88.718 135.598,95.129 134.868,95.858C133.927,96.799 136.07,99.994 135.152,100.912C133.119,102.946 129.344,104.284 127.304,106.324C125.626,108.003 124.034,109.405 121.981,110.431C121.367,110.739 119.497,113.318 119.845,113.318C119.845,113.318 119.314,112.539 121.411,109.181C123.786,108.731 119.134,105.898 118.079,105.282C115.983,104.057 113.56,102.872 111.268,103.636C102.733,106.481 97.413,107.915 95.696,116.449C95.441,117.718 92.803,117.556 91.821,118.538C89.414,120.945 89.988,126.307 89.988,129.835C89.988,130.894 89.83,133.367 89.423,134.182C87.95,137.127 85.033,139.244 83.137,141.141C81.746,142.531 74.319,149.526 70.724,151.296C65.465,153.886 62.743,154.248 60.157,155.603C58.494,156.475 43.615,160.416 42.104,161.927C36.767,167.264 8.61,179.31 3.043,184.878C-0.363,188.283 22.167,192.043 24.765,195.532C25.849,196.989 34.668,200.825 33.474,202.019C32.206,203.287 29.704,201.603 27.871,203.888C25.002,207.466 24.517,206.958 21.813,208.352C18.535,210.042 14.795,207.45 13.505,208.551C10.369,211.226 4.546,215.285 5.733,216.472C6.144,216.882 8.022,217.717 7.791,218.811C7.52,220.089 9.666,220.515 10.301,220.143C11.474,219.456 12.188,221.741 12.259,222.103C12.484,223.239 14.87,223.846 15.228,223.607C16.389,222.831 17.281,225.222 18.089,226.03C19.104,227.046 21.427,226.805 22.751,228.128C24.146,229.523 24.475,231.251 25.781,232.557C27.06,233.835 31.105,232.519 32.309,233.723C33.514,234.928 35.275,237.304 37.437,238.385C39.216,239.275 40.334,238.019 41.867,239.551C43.304,240.988 42.685,243.633 44.664,245.612C45.003,245.951 47.543,245.227 48.161,245.845C49.408,247.092 53.216,248.955 55.387,250.041C56.563,250.629 58.162,249.68 59.35,250.274C62.09,251.644 64.8,252.926 66.577,254.703C67.139,255.265 69.186,254.282 69.841,254.937C70.433,255.529 72.449,256.474 73.571,257.035C74.358,257.428 76.703,256.437 77.301,257.035C78.199,257.933 80.147,258.948 81.497,260.298C83.096,261.898 87.261,262.332 88.49,263.562C89.458,264.53 87.453,267.653 88.49,268.691C91.056,271.256 89.324,275.486 91.054,278.948C91.693,280.225 88.918,281.707 90.122,282.911C91.309,284.098 92.817,285.372 93.852,286.408C94.233,286.789 95.711,289.199 96.416,289.904C97.822,291.31 98.657,293.544 100.146,295.033C101.19,296.076 103.029,295.809 104.921,296.177C106.5,296.485 107.876,298.573 109.511,298.857C111.046,299.124 112.847,297.597 114.133,297.597C115.265,297.597 117.328,298.564 118.329,298.063C119.595,297.431 119.74,295.471 120.43,294.617C121.164,293.707 122.463,293.952 124.623,295.033C125.586,295.514 126.582,296.921 127.717,297.539C129.176,298.333 130.755,298.367 131.617,299.229C132.392,300.004 131.83,302.007 132.783,302.959C133.478,303.654 135.287,303.189 137.267,303.672C138.263,303.914 138.88,305.838 139.812,306.168C141.598,306.803 143.429,305.833 143.506,305.756C144.238,305.025 144.486,303.379 144.508,301.776C144.537,299.689 146.476,297.952 147.236,296.432C147.409,296.085 147.231,294.572 147.469,294.334C148.192,293.611 148.661,291.916 150.062,291.468C151.822,290.905 152.775,288.328 153.996,287.107C154.885,286.218 153.563,283.01 153.297,282.211C152.872,280.935 153.427,280.015 153.27,278.984C153.057,277.584 154.811,276.969 155.162,275.917C155.523,274.833 154.941,272.41 156.073,270.819C157.272,269.132 157.121,266.855 158.491,266.739C160,266.612 159.099,268.239 159.921,269.508C160.904,271.025 159.525,273.287 160.057,273.819C160.529,274.291 160.779,275.334 160.987,276.381C161.142,277.157 161.274,277.934 161.456,278.482C161.799,279.511 162.946,280.026 162.833,281.552C162.729,282.961 164.208,283.985 164.72,285.009C165.202,285.973 164.241,286.615 164.72,287.573C165.16,288.453 164.744,290.326 166.156,290.249C167.233,290.19 167.316,292.034 167.983,292.702C168.666,293.384 171.221,293.722 171.713,295.732C172.121,297.396 173.876,298.245 175.117,297.817C176.067,297.49 177.149,298.429 178.129,298.625C179.247,298.848 180.903,299.224 181.495,298.033C182.276,296.459 184.347,296.107 184.535,295.732C184.785,295.232 184.325,294.051 185.002,293.377C185.848,292.533 185.346,290.957 185.933,290.371C186.538,289.766 188.553,290.174 189.095,288.836C189.507,287.819 191.124,287.977 191.761,287.34C192.317,286.785 192.335,285.458 193.11,285.446C194.331,285.427 194.092,283.611 194.792,282.911C195.187,282.516 196.433,284.126 198.098,284.432C199.441,284.679 201.73,284.796 201.961,286.45C202.115,287.559 203.658,287.674 203.82,288.807C203.974,289.875 205.867,289.406 206.395,289.368C206.616,289.352 208.816,289.382 209.58,288.162C210.478,286.731 212.775,286.822 213.197,286.611C213.972,286.223 214.389,284.147 214.692,281.883C214.861,280.619 215.847,279.13 215.136,278.177C214.305,277.064 215.496,275.728 215.773,275.451C216.464,274.76 217.692,274.436 218.016,273.489C218.355,272.494 219.589,272.786 220.522,272.028C221.548,271.192 222.625,272.152 223.699,272.42C226.252,273.059 226.244,275.79 225.074,276.997C224.113,277.989 221.656,279.886 222.684,281.868C223.475,283.394 222.45,285.258 223.465,286.408C224.373,287.435 226.015,286.947 226.202,285.608C226.369,284.409 227.397,283.673 227.662,283.144C228.025,282.417 228.507,281.807 228.575,281.198C228.779,279.365 229.924,278.879 231.625,280.58C232.418,281.373 234.289,279.281 234.888,279.88C235.231,280.223 236.425,281.05 235.798,281.515C235.219,281.945 236.197,284.083 235.357,285.977C234.611,287.661 235.877,289.751 235.821,290.837C235.778,291.656 235.929,293.089 236.847,293.205C237.794,293.325 237.752,294.751 238.152,294.567C238.538,294.388 239.036,292.187 239.784,292.935C240.323,293.474 240.984,294.629 240.503,295.522C240.066,296.334 239.258,297.838 240.189,298.241C241.035,298.608 240.796,299.917 241.182,300.395C241.691,301.024 243.654,302.154 244.426,301.246C244.751,300.863 246.132,300.028 246.815,300.623C247.466,301.19 248.894,301.773 249.386,301.12C250.043,300.249 251.543,300.65 252.139,300.628C252.584,300.611 254.653,300.911 254.936,300.628C255.539,300.025 256.471,300.105 256.391,299.319C256.334,298.748 257.507,298.643 258.666,298.063C259.361,297.716 260.329,298.148 260.781,297.586C261.05,297.253 262.644,297.188 263.057,297.772C263.302,298.118 264.793,298.84 265.208,298.529C266.207,297.781 267.932,298.651 268.923,298.297C269.412,298.122 270.749,298.148 270.679,297.382C270.644,297 272.629,296.615 272.481,295.888C272.394,295.463 273.083,294.623 273.645,295.03C274.268,295.481 275.192,294.8 275.451,294.8C275.82,294.8 276.68,295.729 277.164,295.341C277.513,295.061 279.559,295 279.619,295.866C279.664,296.512 280.914,297.601 281.447,297.161C281.827,296.847 282.901,297.4 283.325,296.908C283.844,296.305 284.91,296.997 285.242,296.665C285.421,296.485 286.48,296.238 286.59,295.453C286.755,294.279 288.537,293.899 288.738,294.1C289.06,294.422 289.705,294.75 289.614,295.257C289.556,295.579 290.562,296.188 290.452,297.08C290.384,297.634 290.88,298.673 291.238,298.549C291.734,298.376 292.711,299.195 293.163,298.883C293.687,298.521 293.84,299.805 294.333,299.928C294.792,300.043 295.529,300.314 295.972,300.133C296.609,299.874 297.375,299.847 297.83,299.695C298.211,299.568 301.144,300.829 302.721,299.267C304.26,297.744 307.082,298.859 307.798,298.501C308.528,298.136 310.605,299.382 312.302,298.254C313.194,297.661 314.812,297.038 315.497,297.861C316.295,298.82 318.13,297.689 318.981,298.219Z" style="fill:none;"/>
    </g>
</svg>
