<?xml version="1.0" encoding="UTF-8" standalone="no"?>
<!DOCTYPE svg PUBLIC "-//W3C//DTD SVG 1.1//EN" "http://www.w3.org/Graphics/SVG/1.1/DTD/svg11.dtd">
<svg width="100%" height="100%" viewBox="0 0 400 400" version="1.1" xmlns="http://www.w3.org/2000/svg" xmlns:xlink="http://www.w3.org/1999/xlink" xml:space="preserve" xmlns:serif="http://www.serif.com/" style="fill-rule:evenodd;clip-rule:evenodd;stroke-linejoin:round;stroke-miterlimit:2;">
    <g transform="matrix(1.57148,0,0,1.57148,-87.0411,-182.327)">
        <path d="M175.628,174.123C172.818,173.281 164.729,180.434 164.523,180.971C164.028,182.262 171.507,180.933 174.409,180.143C177.177,179.389 181.463,183.094 182.131,184.429C183.199,186.565 181.539,195.284 182.192,196.589C182.756,197.717 183.452,204.472 183.775,207.061C184.371,211.838 187.451,215.299 183.564,219.83C174.426,230.481 159.256,246.254 148.005,255.469C145.103,257.847 141.441,261.669 137.707,263.223C132.325,265.464 128.992,265.619 124.209,267.893C118.667,270.527 109.822,270.716 106.115,275.659C105.36,276.666 102.856,281.223 103.135,281.423C104.124,282.131 107.559,275.239 108.756,274.479C111.017,273.043 112.957,272.361 115.943,271.848C117.713,271.543 111.92,280.463 113.386,282.532C114.121,283.569 115.6,274.478 118.818,271.585C121.12,269.516 129.01,267.344 129.839,269.8C130.962,273.129 127.679,284.878 129.211,283.785C129.964,283.249 131.773,273.628 131.268,268.595C130.979,265.717 137.348,264.829 138.01,264.388C146.863,258.486 154.328,252.038 161.891,244.475C166.061,240.305 170.413,235.582 174.46,231.535C175.175,230.82 183.747,221.212 184.522,221.988C184.911,222.377 177.515,235.978 175.42,240.168C173.374,244.258 170.668,247.655 167.986,251.679C166.414,254.036 162.166,253.806 160.687,256.024C155.633,263.606 149.742,273.04 143.525,279.257C140.122,282.66 131.079,292.653 132.014,293.645C132.189,293.831 138.855,285.647 141.299,283.401C142.039,282.722 145.141,278.455 147.334,278.717C148.65,278.874 149.169,283.049 149.971,283.923C152.84,287.048 153.364,291.982 154.134,291.477C156.258,290.082 146.694,279.43 150.193,273.423C152.094,270.16 161.795,256.75 162.851,256.277C168.911,253.564 169.999,252.177 172.487,248.03C174.8,244.174 178.07,240.483 179.366,236.322C179.837,234.81 185.514,222.987 185.512,223.214C185.473,228.247 184.532,242.295 184.532,245.204C184.532,249.34 184.571,253.96 183.333,257.674C182.899,258.976 183.376,261.468 182.374,262.47C179.012,265.832 175.889,268.246 173.501,273.022C172.144,275.736 173.177,279.449 171.343,281.894C169.096,284.891 160.478,284.304 160.19,289.116C160.089,290.8 162.576,296.388 163.429,297.242C164.153,297.965 160.515,288.774 161.676,287.971C163.504,286.708 164.443,286.847 167.03,285.469C169.481,284.164 171.877,282.831 172.628,284.335C173.329,285.736 176.205,291.992 175.811,293.176C175.099,295.31 173.266,297.089 172.187,299.139C170.843,301.692 169.816,305.023 169.533,307.917C169.359,309.705 167.408,314.093 168.484,314.084C169.961,314.072 170.713,304.847 172.928,300.063C174.257,297.193 176.191,296.004 178.146,294.049C178.972,293.223 183.126,296.835 183.33,297.244C183.968,298.52 189.692,297.923 191.803,299.651C192.815,300.48 192.94,303.189 193.165,302.758C193.506,302.106 194.387,299.71 192.18,298.146C190.918,297.251 187.205,297.353 184.107,295.99C180.771,294.523 178.034,291.533 176.489,288.924C174.864,286.179 171.632,279.006 175.439,272.914C177.694,269.306 182.244,265.17 183.162,263.484C184.132,261.701 184.318,260.602 184.578,258.681C184.886,256.399 185.812,254.274 185.812,251.431C185.812,247.721 186.337,243.114 186.337,239.498C186.337,238.316 186.539,223.243 187.865,223.295C188.611,223.325 199.358,233.527 199.625,234.06C201.504,237.819 197.859,244.21 200.36,247.602C206.735,256.249 218.446,270.792 224.176,276.745C227.058,279.739 206.52,291.671 208.199,292.869C209.217,293.596 215.554,285.684 221.023,285.24C223.645,285.028 233.22,283.528 235.879,285.569C239.914,288.667 239.752,296.109 240.408,295.803C243.039,294.577 238.563,285.514 236.811,284.319C234.162,282.511 224.524,284.39 222.13,283.176C220.693,282.447 228.113,277.835 226.744,276.519C220.259,270.282 214.882,263.315 209.837,257.354C207.645,254.763 203.444,247.947 201.28,246.162C198.643,243.985 203.841,237.116 201.209,234.04C196.033,227.987 189.037,221.703 189.377,221.703C190.462,221.703 210.399,230.222 211.47,230.651C215.214,232.148 222.377,238.349 224.292,241.38C225.941,243.988 231.179,250.027 235.372,255.276C237.119,257.463 236.207,261.96 237.186,266.462C238.228,271.255 242.954,277.774 243.883,277.458C245.054,277.06 240.208,271.922 238.39,265.836C237.006,261.2 238.675,257.799 240.246,257.785C243.702,257.753 254.509,263.992 256.072,265.902C258.265,268.582 255.629,279.679 255.798,279.636C257.641,279.166 258.206,272.631 258.062,268.997C257.827,263.057 248.298,259.986 243.492,257.102C242.882,256.736 244.432,255.662 247.176,255.398C253.184,254.822 262.898,254.507 262.159,253.997C258.497,251.473 237.715,257.571 234.738,252.4C232.185,247.965 226.216,242.05 222.902,237.53C221.511,235.633 219.114,234.32 217.727,232.933C216.77,231.976 214.807,230.506 213.309,229.616C209.691,227.468 193.296,222.628 189.6,218.932C187.963,217.295 188.465,208.584 187.66,206.169C186.18,201.73 185.677,197.759 185.159,195.326C184.861,193.93 184.08,191.221 185.193,188.173C186.196,185.425 188.519,182.507 189.846,181.505C192.59,179.433 192.081,180.969 194.35,177.889C196.271,175.281 201.553,177.142 199.068,174.683C194.375,170.038 191.151,173.98 189.916,175.701C189.471,176.322 186.929,184.235 184.687,183.758C181.761,183.135 178.012,174.836 175.628,174.123Z" style="fill:none;"/>
    </g>
</svg>
