<?xml version="1.0" encoding="UTF-8" standalone="no"?>
<!DOCTYPE svg PUBLIC "-//W3C//DTD SVG 1.1//EN" "http://www.w3.org/Graphics/SVG/1.1/DTD/svg11.dtd">
<svg width="100%" height="100%" viewBox="0 0 400 400" version="1.1" xmlns="http://www.w3.org/2000/svg" xmlns:xlink="http://www.w3.org/1999/xlink" xml:space="preserve" xmlns:serif="http://www.serif.com/" style="fill-rule:evenodd;clip-rule:evenodd;stroke-linejoin:round;stroke-miterlimit:2;">
    <path d="M209.995,335.219C207.114,335.637 193.691,336.664 193.598,334.934C193.37,330.695 192.879,325.907 193.847,325.792C196.828,325.437 196.648,320.749 196.525,316.774C196.4,312.702 196.22,308.178 196.22,304.569C196.22,302.537 196.355,296.01 196.41,294.037C196.493,291.106 198.378,291.127 198.374,288.458C198.371,286.082 198.481,282.556 198.481,279.885C198.481,273.636 198.589,266.391 198.33,259.851C198.147,255.229 198.028,250.823 198.454,245.483C198.59,243.783 198.607,234.415 198.607,232.929C198.607,228.715 199.118,222.866 198.822,218.677C198.486,213.921 198.709,208.59 198.709,204.078C198.709,195.992 198.33,188.11 198.33,180.128C198.33,176.506 198.263,172.569 198.166,168.973C198.046,164.567 198.537,160.959 198.537,156.727C198.537,155.017 198.672,139.739 198.605,137.913C198.521,135.606 198.389,133.069 198.389,131.093C198.389,127.951 198.145,124.634 198.145,121.52C198.145,118.458 198.197,115.417 198.197,112.355C198.197,111.479 198.284,105.279 197.674,104.669C197.253,104.248 189.623,102.874 186.805,102.375C183.636,101.814 180.687,101.068 177.497,100.24C176.597,100.006 170.227,99.332 168.273,98.681C164.155,97.308 159.333,96.973 155.245,95.801C153.731,95.366 150.809,95.216 148.946,94.568C148.119,94.281 145.556,94.365 145.524,93.521C145.497,92.779 145.595,91.119 145.595,90.484C145.595,87.886 145.428,79.843 145.632,78.404C145.832,76.997 151.687,77.912 154.203,78.75C155.068,79.039 162.055,80.027 164.329,80.785C172.548,83.525 194.195,87.839 195.817,88.542C196.5,88.838 198.427,89.347 198.386,88.879C198.337,88.304 198.253,86.178 198.087,86.013C197.921,85.847 195.519,86.307 195.213,86.46C194.796,86.669 193.527,87.041 192.349,86.721C189.058,85.829 185.873,85.05 185.827,85.051C185.048,85.064 185.681,76.47 185.872,75.196C186.015,74.244 194.631,72.772 197.87,71.153C200.798,69.689 197.054,53.545 200.234,53.67C201.956,53.738 203.817,52.462 205.712,53.115C207.294,53.66 204.666,69.533 206.728,69.144C209.796,68.565 234.099,61.606 239.012,60.378C242.174,59.587 245.554,58.829 248.362,57.425C249.966,56.623 252.16,56.92 253.776,56.113C254.216,55.892 258.044,54.475 258.533,54.964C258.922,55.354 258.726,58.555 258.726,59.269C258.726,62.725 259.175,67.493 258.863,71.402C258.828,71.836 255.68,72.547 254.859,72.684C250.529,73.408 248.056,74.607 243.781,75.217C240.495,75.687 236.616,76.728 232.725,77.768C231.987,77.966 224.859,79.883 224.161,80.232C221.752,81.437 219.981,80.889 216.541,82.195C212.702,83.652 205.788,84.663 205.684,85.023C205.549,85.494 205.538,90.553 205.538,90.553C205.538,90.553 209.649,91.474 209.649,91.546C209.649,92.914 209.127,94.594 209.127,96.208C209.127,98.673 209.169,101.318 209.169,103.618C209.169,103.823 209.114,106.3 208.828,106.145C207.982,105.685 205.934,105.032 205.559,105.407C205.045,105.921 205.548,108.639 205.548,109.59C205.548,114.194 205.589,121.135 205.873,125.503C206.121,129.312 205.751,132.763 205.751,136.524C205.751,147.664 205.662,158.025 205.662,168.868C205.662,174.338 205.517,178.855 205.384,184.229C205.324,186.636 205.384,190.336 205.384,192.759C205.384,199.756 205.712,206.877 205.712,213.592C205.712,226.54 205.548,239.406 205.548,252.305C205.548,255.882 205.515,269.971 205.548,271.662C205.641,276.507 205.522,284.111 205.586,288.76C205.621,291.307 207.086,291.283 207.286,294.251C207.625,299.26 207.987,304.222 207.636,309.53C207.353,313.81 207.926,313.662 207.751,317.022C207.586,320.178 207.392,324.473 210.14,324.838C211.043,324.958 210.846,335.096 209.995,335.219Z" style="fill:none;"/>
</svg>
