<?xml version="1.0" encoding="UTF-8" standalone="no"?>
<!DOCTYPE svg PUBLIC "-//W3C//DTD SVG 1.1//EN" "http://www.w3.org/Graphics/SVG/1.1/DTD/svg11.dtd">
<svg width="100%" height="100%" viewBox="0 0 400 400" version="1.1" xmlns="http://www.w3.org/2000/svg" xmlns:xlink="http://www.w3.org/1999/xlink" xml:space="preserve" xmlns:serif="http://www.serif.com/" style="fill-rule:evenodd;clip-rule:evenodd;stroke-linejoin:round;stroke-miterlimit:2;">
    <g transform="matrix(1.43395,0,0,1.37201,-61.1862,-99.9971)">
        <path d="M181.222,117.357C181.222,117.357 184.988,131.512 186.963,147.508C188.002,155.922 190.353,164.023 191.056,171.361C191.918,180.353 191.124,187.805 192.495,188.422C194.359,189.261 202.519,182.133 211.645,175.691C223.502,167.321 236.685,158.964 236.685,158.964C236.685,158.964 230.637,172.914 223.403,185.105C217.264,195.45 209.678,204.174 210.461,205.762C211.419,207.703 222.11,209.333 233.389,211.967C241.261,213.806 248.871,215.55 255.715,217.191C263.799,219.128 270.484,220.815 270.484,220.815C270.484,220.815 253.89,226.417 237.726,230.199C225.153,233.14 212.241,234.126 211.458,236.018C210.905,237.356 215.157,241.109 218.184,246.887C221.483,253.182 226.783,260.615 230.408,267.525C235.035,276.346 237.652,284.005 237.652,284.005C237.652,284.005 230.599,280.062 223.268,274.571C217.8,270.475 212.819,265.229 207.048,261.672C199.594,257.078 193.055,255.343 191.507,255.986C189.771,256.707 189.943,266.693 187.511,277.453C183.845,293.682 177.718,312.721 177.718,312.721C177.718,312.721 172.523,294.283 169.244,278.651C166.813,267.059 166.434,257.19 164.758,256.58C163.25,256.031 156.7,264.858 147.956,272.072C137.383,280.795 124.459,288.262 124.459,288.262C124.459,288.262 128.734,273.67 134.498,260.738C139.201,250.185 145.771,241.117 144.596,238.847C143.548,236.823 133.158,236.718 120.879,233.6C115.755,232.299 111.299,230.303 106.123,228.778C92.751,224.836 80.14,221.374 80.14,221.374C80.14,221.374 87.814,218.341 97.873,216.582C105.834,215.19 114.807,213.947 123.033,212.578C133.737,210.797 142.859,208.906 143.581,207.259C144.144,205.975 141.846,202.202 138.413,197.297C134.671,191.95 129.58,185.259 125.372,178.978C119.873,170.771 116.741,162.275 116.741,162.275C116.741,162.275 126.229,166.493 136.075,172.458C140.864,175.359 146.715,178.284 151.071,181.031C157.619,185.16 161.936,188.528 163.34,187.951C165.098,187.227 166.234,174.429 169.511,160.682C170.8,155.277 170.308,148.706 171.729,143.357C175.588,128.835 181.222,117.357 181.222,117.357Z" style="fill:none;"/>
    </g>
</svg>
