<?xml version="1.0" encoding="UTF-8" standalone="no"?>
<!DOCTYPE svg PUBLIC "-//W3C//DTD SVG 1.1//EN" "http://www.w3.org/Graphics/SVG/1.1/DTD/svg11.dtd">
<svg width="100%" height="100%" viewBox="0 0 400 400" version="1.1" xmlns="http://www.w3.org/2000/svg" xmlns:xlink="http://www.w3.org/1999/xlink" xml:space="preserve" xmlns:serif="http://www.serif.com/" style="fill-rule:evenodd;clip-rule:evenodd;stroke-linejoin:round;stroke-miterlimit:2;">
    <g transform="matrix(1,0,0,1,5.54415,-17.539)">
        <path d="M86.665,165.301C95.208,165.982 77.949,164.973 75.355,160.301C72.412,155.004 73.15,133.352 79.218,131.329C86.059,129.049 91.635,128.267 98.532,131.716C100.281,132.59 104.991,133.758 105.227,138.075C105.29,139.228 104.535,132.428 104.713,131.716C106.073,126.275 106.187,120.584 110.507,116.264C122.738,104.033 140.291,100.263 156.863,96.949C165.986,95.124 172.632,103.721 169.61,112.787C168.332,116.622 161.388,131.376 161.414,131.302C163.301,126.077 171.138,120.744 174.246,118.968C189.207,110.419 223.123,96.665 239.143,104.675C249.903,110.055 241.474,125.322 237.212,131.716C236.445,132.865 233.442,137.541 230.231,138.19C228.209,138.599 236.524,136.588 237.212,136.351C244.79,133.741 250.154,129.88 256.526,126.694C273.935,117.989 311.82,107.846 324.9,127.466C327.444,131.283 325.514,136.283 323.741,139.828C318.21,150.891 300.928,168.148 290.549,165.362C282.819,163.287 304.153,170.567 304.332,170.647C307.566,172.082 309.816,175.143 310.994,178.071C312.438,181.662 313.557,184.645 313.643,187.452C313.887,195.428 308.107,200.953 299.791,205.111C293.834,208.09 269.278,203.954 263.866,201.248C261.235,199.933 254.636,201.043 251.118,195.84C247.742,190.847 254.843,201.47 255.367,203.566C257.694,212.873 242.372,220.598 234.508,218.632C229.718,217.434 218.725,217.639 216.738,211.678C215.404,207.675 204.933,204.421 208.24,198.544C213.695,188.847 179.418,235.006 180.04,235.629C181.824,237.413 198.151,234.875 197.865,236.363C197.434,238.602 180.276,254.707 178.495,256.488C172.768,262.215 177.113,257.339 170.525,264.396C167.641,267.485 162.826,273.509 159.709,276.758C157.436,279.126 153.142,284.097 153.142,284.097C153.142,284.097 160.498,282.664 162.413,282.552C163.658,282.479 160.028,286.558 159.556,287.372C152.262,299.941 148.313,306.268 129.7,328.119C128.372,329.678 119.226,338.837 118.669,338.357C117.503,337.353 121.815,328.345 122.273,327.285C127.44,315.334 132.387,301.934 139.235,290.664C140.163,289.137 118.864,294.243 118.762,294.141C117.821,293.2 122.424,287.921 123.011,287.187C128.245,280.645 133.803,274.421 138.849,267.873C145.883,258.746 143.713,261.848 150.682,253.398C153.594,249.868 162.271,240.65 162.271,240.65C162.271,240.65 157.993,239.952 156.201,240.624C153.007,241.822 142.736,243.181 142.956,241.423C143.819,234.515 173.076,201.259 177.519,197.952C185.844,191.758 171.863,201.78 170.378,202.225C163.104,204.408 144.402,218.632 131.8,215.071C123.026,212.591 122.956,185.849 123.798,200.199C124.586,213.63 93.205,220.139 83.157,217.527C76.433,215.778 77.053,189.861 87.05,190.812C98.991,191.947 55.852,188.31 63.761,175.978C67.847,169.607 83.599,165.056 86.665,165.301Z" style="fill:none;"/>
    </g>
</svg>
