<?xml version="1.0" encoding="UTF-8" standalone="no"?>
<!DOCTYPE svg PUBLIC "-//W3C//DTD SVG 1.1//EN" "http://www.w3.org/Graphics/SVG/1.1/DTD/svg11.dtd">
<svg width="100%" height="100%" viewBox="0 0 400 400" version="1.1" xmlns="http://www.w3.org/2000/svg" xmlns:xlink="http://www.w3.org/1999/xlink" xml:space="preserve" xmlns:serif="http://www.serif.com/" style="fill-rule:evenodd;clip-rule:evenodd;stroke-linejoin:round;stroke-miterlimit:2;">
    <g transform="matrix(1.92647,0,0,1.77525,-127.044,-89.1634)">
        <path d="M172.971,85.217C172.971,85.217 170.559,93.876 172.156,102.362C173.6,110.03 178.987,117.591 180.379,117.88C181.908,118.197 184.919,109.573 190.626,103.395C196.211,97.349 204.511,93.751 204.511,93.751C204.511,93.751 199.191,100.681 196.861,108.823C194.853,115.84 195.682,124.164 196.8,124.937C198.064,125.81 202.074,118.055 208.287,114.262C215.117,110.091 224.139,109.797 224.139,109.797C224.139,109.797 216.036,115.634 211.799,123.103C208.45,129.007 208.642,136.741 209.322,137.773C210.014,138.824 215.392,132.629 222.341,130.797C230.441,128.66 240.222,130.738 240.222,130.738C240.222,130.738 231.667,133.449 225.233,139.216C219.517,144.34 215.815,152.493 216.135,153.957C216.478,155.525 224.062,152.422 230.753,154.622C238.494,157.166 245.465,164.921 245.465,164.921C245.465,164.921 237.795,163.492 230.474,165.432C223.378,167.313 216.63,172.54 216.328,174.065C216.039,175.518 223.398,178.642 228.472,184.076C234.385,190.41 238.169,199.054 238.169,199.054C238.169,199.054 231.393,194.055 223.716,191.57C217.52,189.565 210.207,189.809 209.5,190.897C208.738,192.072 214.618,196.854 218.381,203.747C222.767,211.78 225.204,221.986 225.204,221.986C225.204,221.986 218.934,214.051 211.238,208.94C205.288,204.989 197.678,203.411 196.518,204.2C195.317,205.017 199.672,211.526 201.521,219.204C203.475,227.313 202.964,236.589 202.964,236.589C202.964,236.589 199.043,226.911 193.213,219.736C188.705,214.188 182.161,210.671 181.012,210.927C179.606,211.24 180.838,217.844 179.222,224.372C177.241,232.372 172.533,240.555 172.533,240.555C172.533,240.555 172.879,231.435 170.362,223.494C168.279,216.928 163.421,211.314 162.07,211.029C160.646,210.728 159.882,217.751 155.575,223.21C150.274,229.93 141.424,235.394 141.424,235.394C141.424,235.394 146.458,227.501 147.804,218.912C148.854,212.216 146.479,204.478 145.451,203.753C144.636,203.178 142.264,210.31 136.567,214.073C128.692,219.274 116.989,221.732 116.989,221.732C116.989,221.732 125.282,216.529 129.852,208.827C133.885,202.032 134.329,192.727 133.44,191.393C132.786,190.412 126.885,196.143 119.73,197.477C111.077,199.091 100.964,196.486 100.964,196.486C100.964,196.486 110.069,193.453 116.965,187.578C122.681,182.708 126.454,175.03 126.13,173.238C125.893,171.926 118.697,173.588 111.384,171.594C102.862,169.269 94.06,163.364 94.06,163.364C94.06,163.364 103.725,165.532 112.28,163.993C119.481,162.697 125.786,157.783 125.974,156.615C126.177,155.356 117.031,154.606 109.677,148.65C102.09,142.505 96.284,131.17 96.284,131.17C96.284,131.17 104.455,136.731 113.301,139.55C121.96,142.31 131.291,142.342 131.827,141.284C132.373,140.204 124.548,134.683 119.43,126.551C114.095,118.075 111.447,106.999 111.447,106.999C111.447,106.999 118.199,115.101 126.032,120.769C132.802,125.669 140.707,128.34 141.8,127.334C142.991,126.238 137.456,118.897 135.788,110.815C133.898,101.655 138.088,90.231 138.088,90.231C138.088,90.231 139.501,100.132 144.98,107.125C150.26,113.863 157.249,119.183 158.952,118.693C160.871,118.139 160.225,109.119 163.189,101.084C166.296,92.66 172.971,85.217 172.971,85.217Z" style="fill:none;"/>
    </g>
</svg>
