<?xml version="1.0" encoding="UTF-8" standalone="no"?>
<!DOCTYPE svg PUBLIC "-//W3C//DTD SVG 1.1//EN" "http://www.w3.org/Graphics/SVG/1.1/DTD/svg11.dtd">
<svg width="100%" height="100%" viewBox="0 0 400 400" version="1.1" xmlns="http://www.w3.org/2000/svg" xmlns:xlink="http://www.w3.org/1999/xlink" xml:space="preserve" xmlns:serif="http://www.serif.com/" style="fill-rule:evenodd;clip-rule:evenodd;stroke-linejoin:round;stroke-miterlimit:2;">
    <g transform="matrix(1.81049,0,0,1.81049,-188.141,-151.435)">
        <path d="M207.483,276.734C207.272,276.522 207.195,274.457 207.309,273.781C208.352,267.563 205.219,261.569 203.49,256.383C202.849,254.461 201.812,253.719 201.065,252.226C200.877,251.85 200.287,250.826 199.795,251.071C199.27,251.334 198.8,252.483 198.525,253.035C197.801,254.483 195.955,256.74 194.252,257.307C190.629,258.515 187.281,259.708 183.744,260.887C182.116,261.429 179.037,261.205 177.854,262.388C176.928,263.314 174.309,262.66 173.235,263.197C170.794,264.417 168.578,267.405 165.614,268.393C164.69,268.701 162.149,271.227 162.149,271.049C162.149,270.131 163.595,269.214 163.825,268.292C164.25,266.594 164.876,265.134 165.614,263.659C166.312,262.262 165.063,259.837 165.827,258.31C166.167,257.629 165.835,256.393 166.422,255.806C167.135,255.093 167.829,253.061 168.849,252.123C169.959,251.103 171.908,249.993 172.903,249.246C174.616,247.961 177.13,245.993 179.108,245.334C180.395,244.904 181.358,243.892 182.473,243.334C183.027,243.058 184.781,242.75 185.511,242.831C186.599,242.952 187.405,242.625 187.901,242.873C188.784,243.314 189.74,243.773 190.341,244.375C191.536,245.569 191.923,246.212 193.559,247.03C194.452,247.476 196.512,247.9 197.56,248.097C199.467,248.455 201.924,250.947 203.473,252.1C205.313,253.47 206.269,255.706 207.431,257.512C207.662,257.87 208.003,259.954 208.34,259.617C208.59,259.367 208.34,257.516 208.34,257.192C208.34,254.746 208.226,252.233 208.225,249.801C208.223,245.954 208.163,241.481 208.303,237.946C208.436,234.605 208.918,231.209 208.918,228.207C208.918,225.846 208.962,222.518 208.571,220.239C208.377,219.108 208.333,218.481 208.112,217.817C207.851,217.034 207.647,213.31 207.647,213.31C207.647,213.31 207.626,214.277 207.416,214.696C206.928,215.674 206.429,216.386 205.795,217.336C205.262,218.135 204.425,218.586 203.952,219.059C203.54,219.471 202.503,220.134 202.22,220.701C201.779,221.583 202.605,224.679 201.387,223.952C200.796,223.599 199.871,222.198 199.679,221.625C198.585,218.341 199.91,215.292 199.91,211.578C199.91,210.818 200.158,209.812 200.488,209.153C200.717,208.694 201.348,207.652 200.834,207.652C200.308,207.652 198.869,210.426 198.409,210.885C196.125,213.169 196.145,213.051 193.265,214.971C192.95,215.181 188.036,219.301 188.081,218.46C188.143,217.294 189.8,215.203 189.119,215.884C188.907,216.096 187.451,216.857 186.218,217.943C185.594,218.493 184.934,220.001 184.712,219.779C184.063,219.131 184.204,217.471 184.552,216.775C185.896,214.085 186.033,211.041 187.323,208.46C187.882,207.342 188.287,206.187 188.825,205.111C189.085,204.59 189.055,203.379 189.055,203.379C189.055,203.379 188.072,204.523 187.887,205.079C187.651,205.785 185.902,206.694 185.254,207.126C184.102,207.894 181.456,209.478 180.972,209.961C180.353,210.581 177.886,213.238 177.522,213.04C176.931,212.719 177.561,209.293 177.909,208.248C178.177,207.444 178.195,206.661 178.53,205.991C178.65,205.752 179.405,204.583 179.24,204.418C179.014,204.192 178.049,204.981 177.907,205.193C177.208,206.242 176.211,206.722 175.278,207.189C175.142,207.257 174.362,207.97 174.274,207.883C174.009,207.617 174.713,206.06 174.781,205.855C175.281,204.354 175.073,204.065 175.77,202.671C175.845,202.52 177.031,201.467 176.65,201.199C176.46,201.066 175.301,201.891 175.071,202.006C173.343,202.87 172.517,203.989 170.82,204.837C170.379,205.058 169.269,206.719 168.629,206.079C168.316,205.766 168.722,203.924 168.824,203.721C169.149,203.07 171.218,200.639 170.475,199.897C170.43,199.852 165.664,202.354 166.075,201.532C167.085,199.512 168.947,198.248 169.877,196.388C170.146,195.848 171.108,194.721 171.46,194.545C171.826,194.362 171.965,193.448 171.965,193.448C171.965,193.448 170.719,193.709 170.117,193.91C168.919,194.309 167.588,194.346 166.351,194.247C165.661,194.191 164.274,193.841 164.675,193.44C165.727,192.387 166.357,191.133 167.637,190.437C168.714,189.851 170.449,189.833 171.333,188.949C171.74,188.542 174.699,186.366 174.505,186.173C174.068,185.736 170.358,187.398 169.866,187.644C167.14,189.007 164.064,188.391 161.11,189.868C160.751,190.048 158.801,190.18 158.599,189.85C158.346,189.435 160.1,187.179 160.403,186.798C162.295,184.417 164.905,182.722 167.204,181.189C167.878,180.74 169.042,180.371 169.666,180.137C170.749,179.73 172.085,179.156 173.49,179.049C173.639,179.038 175.219,178.803 175.083,178.667C174.879,178.463 173.324,178.667 173.004,178.667C171.261,178.667 168.479,178.844 166.692,178.306C164.577,177.669 162.549,177.256 160.501,176.478C158.928,175.881 155.765,173.772 154.437,172.444C153.924,171.931 155.596,172.121 156.636,171.874C159.695,171.146 162.827,171.687 165.614,170.583C166.418,170.265 169.173,170.072 169.067,170.035C166.804,169.249 163.337,169.147 161.186,168.071C159.297,167.127 158.034,167.506 156.026,166.501C155.767,166.372 152.964,165.636 153.278,165.321C154.642,163.958 156.524,163.301 157.986,162.868C158.481,162.721 159.519,162.796 159.884,162.43C160.023,162.292 158.276,162.007 158.107,161.923C157.432,161.585 154.163,161.751 154.334,161.58C154.655,161.26 156.592,160.059 157.075,159.868C159.479,158.919 162.23,158.721 164.668,158.879C165.658,158.943 168.458,159.619 169.291,159.202C169.395,159.15 166.96,158.561 166.653,158.458C164.148,157.623 160.094,156.804 158.392,155.102C157.826,154.537 160.031,153.858 160.436,153.698C161.199,153.397 164.354,153.114 164.741,152.86C165.323,152.477 157.959,153.645 158.95,153.15C159.416,152.917 165.571,151.526 165.967,151.425C166.659,151.25 167.767,151.264 168.041,150.715C168.07,150.658 166.175,149.863 165.764,149.726C164.84,149.418 163.921,148.375 163.65,147.834C163.488,147.51 162.727,147.257 162.727,147.257C162.727,147.257 164.62,147.327 165.382,147.488C167.455,147.928 167.892,148.129 169.67,148.657C169.85,148.71 171.331,149.156 171.391,149.095C171.641,148.846 170.453,148.248 170.388,148.183C169.515,147.31 168.53,146.753 167.646,145.869C165.196,143.419 166.676,144.589 164.926,142.513C164.236,141.695 163.158,139.42 163.307,139.324C164.18,138.766 166.999,139.751 166.999,139.751L166.614,138.049C166.614,138.049 169.063,138.207 169.685,138.415C171.795,139.118 173.399,139.383 175.287,140.327C175.799,140.583 178.316,141.714 178.316,141.714C178.316,141.714 176.878,140.08 175.891,139.751C174.432,139.264 170.919,137.171 170.428,136.188C170.285,135.903 169.39,134.769 169.634,134.577C171.352,133.226 175.131,134.678 176.73,135.552C177.737,136.103 178.433,136.49 178.131,136.037C176.594,133.73 175.693,133.082 174.548,130.792C174.369,130.435 174.333,129.042 174.639,128.735C175.195,128.18 175.138,128.917 175.506,129.101C176.219,129.458 177.769,129.065 178.924,129.456C180.559,130.009 183.197,131.852 182.495,130.916C181.45,129.522 179.745,125.765 178.942,123.726C178.638,122.951 178.241,122.667 178.385,122.499C178.728,122.098 181.63,122.583 184.329,124.47C187.192,126.472 189.924,129.858 190.384,130.429C190.795,130.938 192.383,132.908 192.023,132.188C191.312,130.767 189.926,127.883 189.443,126.435C189.027,125.186 189.006,123.96 188.945,122.833C188.801,120.118 189.136,116.972 190.088,115.804C190.435,115.38 191.243,116.885 191.43,117.071C192.464,118.105 192.766,118.797 193.428,120.121C193.814,120.894 193.086,116.034 193.444,114.461C193.51,114.169 193.862,113.319 194.066,113.115C194.801,112.38 194.836,114.238 195.016,114.598C195.986,116.537 196.797,118.145 198.088,119.436C198.419,119.767 199.696,121.466 199.696,121.466C199.696,121.466 199.786,119.387 199.786,118.848C199.786,118.322 199.912,115.637 201.005,116.184C201.673,116.518 202.562,117.155 202.895,117.819C203.423,118.876 204.227,119.965 204.794,120.835C205.263,121.557 205.825,122.901 206.338,123.466C206.658,123.82 207.488,121.314 207.647,120.351C208.079,117.741 207.524,115.379 208.26,113.171C208.561,112.268 208.977,111.915 209.61,111.282C209.977,110.915 211.394,115.229 211.394,115.027C211.394,114.303 213.207,111.366 213.263,111.463C214.518,113.611 214.969,115.02 215.591,117.545C215.695,117.966 215.821,119.095 216.096,119.37C216.3,119.574 216.337,117.799 216.523,117.224C217.083,115.491 216.746,113.315 217.858,112.203C218.486,111.576 219.249,113.01 219.402,113.163C220.287,114.048 220.625,116.409 220.905,117.612C220.993,117.989 221.531,116.602 221.751,116.086C222.09,115.289 223.199,113.391 223.839,112.762C223.952,112.65 223.845,113.122 224.153,113.742C224.612,114.665 225.673,116.16 225.954,117.343C226.151,118.172 226.24,119.034 226.24,119.034C226.24,119.034 226.783,117.653 227.251,116.829C228.296,114.99 229.846,113.512 230.725,112.67C230.91,112.494 231.475,116.073 231.468,117.474C231.459,119.326 231.657,122.547 231.551,124.392C231.512,125.083 230.974,128.434 230.974,128.434C230.974,128.434 232.611,125.394 233.233,124.797C234.869,123.227 237.169,121.311 239.105,120.669C240.262,120.285 240.636,119.215 241.761,118.653C242.138,118.464 243.431,117.629 243.873,117.971C244.264,118.273 243.603,120.28 243.521,120.553C242.998,122.288 242.261,125.401 242.004,126.313C241.565,127.864 240.752,130.011 239.981,131.321C239.224,132.608 238.341,134.769 237.546,135.855C236.181,137.717 236.203,137.981 234.373,140.254C233.676,141.119 230.512,145.166 230.181,145.683C230.171,145.698 222.283,142.091 213.356,142.348C205.875,142.563 197.569,146.1 193.691,150.84C189.153,156.388 186.129,165.575 187.958,173.722C189.61,181.082 195.932,187.722 195.996,187.756C196.265,187.896 207.957,195.497 219.535,195.213C226.55,195.041 233.999,189.158 237.481,185.032C241.921,179.772 243.914,167.835 240.913,158.952C238.425,151.59 231.1,146.685 231.064,146.553C230.859,145.807 233.067,143.056 233.313,142.771C234.082,141.88 234.983,140.782 235.825,139.803C236.384,139.154 237.695,137.074 238.355,136.415C239.559,135.211 241.625,131.382 242.709,130.298C243.792,129.215 245.115,128.663 246.354,127.994C247.462,127.395 248.556,127.316 249.962,126.928C250.92,126.664 254.124,125.962 254.404,126.593C254.566,126.957 251.443,127.788 251.129,127.992C250.441,128.438 249.151,129.08 247.949,130.282C246.832,131.399 246.319,132.382 245.513,133.993C245.136,134.748 246.948,133.406 247.177,133.177C248.398,131.956 250.248,131.523 251.747,131.166C252.914,130.887 257.242,131.434 257.525,132C257.699,132.348 257.043,132.717 257.115,132.789C257.331,133.005 258.011,132.448 258.202,132.401C258.785,132.255 262.02,131.706 262.475,132.615C262.812,133.29 261.493,133.474 261.13,133.837C260.106,134.861 257.949,136.795 256.92,137.824C256.714,138.03 259.258,137.084 259.389,137.048C259.893,136.911 262.015,136.489 262.54,137.174C262.995,137.767 261.62,138.297 259.669,141.516C259.521,141.759 257.857,143.787 258.223,143.797C258.671,143.81 261.112,143.768 261.542,143.768C262.846,143.768 262.659,144.129 263.703,144.322C264.109,144.397 268.255,145.092 268.011,145.336C267.311,146.037 264.24,146.617 263.326,147.074C261.622,147.926 260.192,150.247 258.216,150.905C255.256,151.892 252.574,152.923 249.596,154.114C248.429,154.58 248.201,154.483 247.056,154.941C245.865,155.418 241.353,155.904 241.396,157.042C241.417,157.596 241.74,158.313 241.949,158.522C242.26,158.833 243.116,157.484 243.305,157.389C244.959,156.562 245.682,156.388 247.303,155.578C248.454,155.002 249.432,155.291 250.669,154.673C251.851,154.082 253.336,153.312 254.475,152.742C254.951,152.504 260.394,151.22 262.531,151.42C263.412,151.503 264.887,151.746 266.578,151.79C267.989,151.827 270.573,152.104 271.413,152.524C272.531,153.083 268.639,153.426 267.791,153.638C265.444,154.225 265.652,154.604 263.486,155.688C263.275,155.793 262.384,156.041 261.714,156.535C261.254,156.873 265.361,157.045 265.838,157.204C268.184,157.987 269.611,157.199 271.415,158.643C271.558,158.757 272.494,159.221 272.143,159.572C271.427,160.287 270.757,160.117 269.777,160.362C268.282,160.735 266.441,162.004 265.057,162.721C264.555,162.981 263.481,163.1 263.107,163.474C262.979,163.602 265.481,163.859 266.576,164.133C268.066,164.505 269.295,165.509 270.313,166.018C271.356,166.539 274.444,166.247 275.508,166.779C275.691,166.87 272.076,169.524 271.323,169.9C271.02,170.051 267.541,171.284 268.217,171.453C268.453,171.512 269.879,171.659 270.027,171.708C270.869,171.989 273.602,173.088 273.231,173.459C273.035,173.655 269.906,172.722 269.03,172.722C267.974,172.722 266.921,172.491 265.953,172.685C263.384,173.199 261.267,173.937 258.59,173.937L255.562,173.937C255.392,173.937 254.771,173.719 254.63,173.86C254.601,173.889 255.425,174.412 255.562,174.481C256.725,175.062 257.779,175.474 258.885,176.211C261.483,177.943 263.909,179.898 266.366,181.126C267.281,181.584 269.042,181.874 269.779,182.61C269.94,182.771 268.181,183.038 267.208,183.021C266.634,183.011 264.187,182.591 264.187,182.591C264.187,182.591 265.734,184.6 266.062,184.98C266.721,185.741 269.958,188.992 269.958,188.992C269.958,188.992 266.915,188.853 266.28,188.704C265.109,188.43 257.533,187.573 253.965,186.681C253.152,186.478 247.734,184.995 243.795,183.682C241.349,182.866 240.503,182.271 240.503,182.271C240.503,182.271 239.907,183.322 240.129,183.501C240.841,184.076 245.234,185.007 245.65,185.215C246.634,185.707 246.863,185.971 247.821,186.45C250.203,187.641 254.984,189.504 256.204,191.945C256.485,192.506 259.274,198.264 259.147,198.391C259.105,198.432 256.755,197.602 256.589,197.518C255.63,197.034 253.056,195.566 252.151,195.264C251.913,195.185 250.094,194.18 249.8,194.475C249.62,194.655 250.394,195.105 250.484,195.225C250.992,195.902 251.754,196.799 252.13,197.55C252.66,198.61 254.767,202.823 255.221,203.73C255.398,204.085 255.454,205.231 255.26,205.619C255.129,205.881 251.684,203.37 251.048,203.37C250.97,203.37 251.563,205.235 251.989,206.089C252.048,206.206 252.693,209.212 252.241,208.955C252.064,208.853 248.82,207.175 247.961,206.316C247.472,205.828 244.806,204.229 244.806,204.229C244.806,204.229 245.884,207.319 246.2,207.636C246.59,208.026 246.406,209.176 246.406,209.176C246.406,209.176 243.461,208.329 242.568,208.031C241.599,207.708 239.043,206.558 238.953,206.648C238.796,206.806 239.554,209.676 239.718,210.443C240.28,213.077 240.537,216.128 239.401,218.4C239.125,218.951 238.236,217.165 238.007,216.86C237.173,215.747 236.278,214.887 235.405,214.013C235.21,213.819 234.006,212.297 233.803,212.5C233.561,212.742 234.161,215.25 234.071,215.932C233.81,217.898 233.545,218.197 232.85,219.606C232.815,219.678 231.858,219.358 231.088,218.546C230.111,217.518 229.277,215.934 229.277,215.934C229.277,215.934 229.609,220.705 228.859,222.03C228.411,222.822 227.067,226.512 226.071,227.507C226.032,227.547 225.091,224.96 224.91,224.598C224.074,222.926 221.525,218.774 221.339,218.774C221.335,218.774 221.448,219.864 221.122,220.578C220.82,221.24 220.257,223.801 220.257,223.801C219.635,223.801 218.107,221.125 217.922,220.756C217.38,219.671 215.338,214.773 215.338,214.773C215.338,214.773 215.204,218.379 215.204,218.991C215.204,220.637 214.71,226.018 214.635,226.799C214.511,228.092 214.451,229.584 214.451,230.916C214.451,235.814 214.217,240.624 214.217,245.508C214.217,246.615 214.305,250.121 214.451,250.268C214.484,250.301 215.244,248.28 215.309,248.083C215.821,246.55 216.464,244.515 217.416,243.245C218.146,242.273 218.985,241.477 219.679,240.436C219.993,239.965 220.922,238.831 221.351,238.508C222.445,237.684 222.774,237.029 223.503,236.3C223.916,235.887 223.76,235.881 224.212,235.428C224.879,234.761 225.366,233.464 226.124,233.551C226.615,233.608 226.75,234.922 227.745,234.425C229.144,233.725 230.067,232.027 231.673,231.224C232.413,230.854 234.455,231.355 235.249,231.457C235.801,231.528 239.385,232.846 241.172,233.74C242.12,234.214 245.003,234.47 245.983,234.96C248.279,236.108 251.233,236.626 253.637,237.828C255.22,238.619 256.594,238.647 257.759,239.812C258.457,240.509 261.001,242.009 261.349,242.231C263.123,243.358 266.885,246.051 267.816,246.981C268.593,247.758 265.924,246.26 264.217,245.612C262.85,245.092 262.073,245.431 260.782,244.785C259.382,244.085 257.818,244.822 256.646,245.408C256.02,245.721 250.89,246.146 250.219,246.481C248.865,247.158 246.629,246.486 244.338,246.444C243.75,246.434 240.368,245.979 239.422,245.664C238.839,245.47 234.603,245.098 233.257,244.65C231.976,244.223 230.549,244.224 229.385,243.527C227.571,242.44 226.575,241.889 225.258,240.491C225.073,240.295 223.985,238.94 223.971,238.953C223.515,239.409 220.429,243.065 220.094,243.736C218.969,245.985 218.371,246.284 217.667,248.426C217.301,249.541 216.979,251.281 216.528,252.182C216.23,252.78 215.398,255.584 215.012,256.561C214.488,257.887 213.935,261.825 213.749,264.002C213.708,264.473 213.851,268.714 213.905,269.308C214.025,270.627 213.971,272.209 214.089,273.759C214.125,274.226 214.294,275.708 213.983,276.019C213.71,276.292 212.016,276.704 211.639,276.61C210.68,276.37 208.145,277.396 207.483,276.734Z" style="fill:none;"/>
    </g>
</svg>
