<?xml version="1.0" encoding="UTF-8" standalone="no"?>
<!DOCTYPE svg PUBLIC "-//W3C//DTD SVG 1.1//EN" "http://www.w3.org/Graphics/SVG/1.1/DTD/svg11.dtd">
<svg width="100%" height="100%" viewBox="0 0 400 400" version="1.1" xmlns="http://www.w3.org/2000/svg" xmlns:xlink="http://www.w3.org/1999/xlink" xml:space="preserve" xmlns:serif="http://www.serif.com/" style="fill-rule:evenodd;clip-rule:evenodd;stroke-linejoin:round;stroke-miterlimit:2;">
    <g transform="matrix(1.28994,0,0,1.28994,-53.4555,-73.231)">
        <path d="M91.872,180.106C94.179,179.486 97.91,179.988 100.26,180.642C103.619,181.577 105.633,182.552 108.873,184.173C121.058,190.265 134.774,200.307 147.002,208.153C153.519,212.335 159.702,216.89 165.468,221.343C168.791,223.91 171.736,226.805 174.341,229.017C177.104,231.363 179.822,233.059 182.254,235.492C187.057,240.294 198.158,249.172 200.109,250.51C201.676,251.584 203.023,253.09 203.872,253.514C204.239,253.698 205.873,253.419 209.726,250.966C214.918,247.662 218.542,241.213 220.795,240.31C225.618,238.378 230.088,234.611 235.122,233.047C240.544,231.363 247.091,232.015 252.059,230.027C257.348,227.912 260.949,227.108 266.089,224.569C270.089,222.592 270.404,221.892 276.925,217.143C280.881,214.262 285.324,212.107 289.71,210.96C294.179,209.79 301.968,210.167 305.516,208.393C306.998,207.652 294.958,202.155 291.936,199.133C290.166,197.362 276.934,186.994 272.155,183.172C266.617,178.741 260.198,172.998 254.202,169.012C246.043,163.587 238.644,158.344 230.114,154.079C224.002,151.024 220.696,147.877 213.692,146.772C209.998,146.189 205.192,150.374 201.92,151.287C201.45,151.418 200.128,152.303 199.225,147.911C198.798,145.834 204.042,141.064 208.378,140.008C213.817,138.682 216.748,139.321 219.758,139.949C228.239,141.718 234.551,147.65 241.775,152.28C245.257,154.512 261.023,165.216 263.95,166.911C270.845,170.903 278.452,179.628 284.409,183.553C289.719,187.053 299.918,196.024 301.753,197.859C303.286,199.393 306.482,201.532 309.54,203.461C310.957,204.354 311.342,205.611 311.615,206.864C312.107,209.113 313.415,208.362 310.689,211.018C307.714,213.916 309.638,220.956 311.271,224.221C313.65,228.978 312.313,241.08 310.072,245.564C308.51,248.688 307.602,252.026 305.516,255.156C302.465,259.731 291.091,264.85 285.612,262.11C281.409,260.009 277.94,255.758 275.263,253.081C274.862,252.68 272.113,244.941 269.675,241.493C268.354,239.623 262.928,242.447 263.975,243.651C266.406,246.447 267.818,252.826 268.453,254.371C269.679,257.357 268.932,263.117 268.585,264.795C267.976,267.736 265.549,274.063 264.131,275.481C261.844,277.769 255.762,281.719 252.873,282.887C250.949,283.664 242.878,284.681 240.39,284.332C236.078,283.725 225.756,281.268 224.43,279.942C222.04,277.552 218.147,269.045 216.395,267.293C214.981,265.879 211.3,261.689 209.344,260.711C206.825,259.452 205.671,262.329 203.589,261.288C201.899,260.443 198.968,258.215 196.619,256.645C187.593,250.617 181.087,244.086 171.523,237.168C168.037,234.646 143.756,215.269 136.566,210.748C135.195,209.886 125.871,203.626 124.165,202.452C116.677,197.301 105.031,192.083 104.462,191.514C103.911,190.963 96.945,187.762 93.371,188.068C92.026,188.183 82.502,192.198 81.896,190.987C81.305,189.804 80.125,187.496 80.525,186.695C80.905,185.935 82.324,184.072 82.965,183.431C84.953,181.444 89.194,180.825 91.872,180.106Z" style="fill:none;"/>
    </g>
</svg>
