<?xml version="1.0" encoding="UTF-8" standalone="no"?>
<!DOCTYPE svg PUBLIC "-//W3C//DTD SVG 1.1//EN" "http://www.w3.org/Graphics/SVG/1.1/DTD/svg11.dtd">
<svg width="100%" height="100%" viewBox="0 0 400 400" version="1.1" xmlns="http://www.w3.org/2000/svg" xmlns:xlink="http://www.w3.org/1999/xlink" xml:space="preserve" xmlns:serif="http://www.serif.com/" style="fill-rule:evenodd;clip-rule:evenodd;stroke-linejoin:round;stroke-miterlimit:2;">
    <g transform="matrix(1,0,0,1,6.8342,-11.8961)">
        <path d="M195.251,52.349C197.627,52.349 197.891,139.724 200.212,139.927C201.577,140.047 209.728,107.184 211.306,107.42C212.72,107.631 207.566,140.935 208.751,141.156C211.099,141.596 244.906,69.994 247.171,70.634C249.564,71.311 219.518,144.061 221.806,144.95C224.241,145.897 240.81,117.567 243.111,118.741C245.845,120.135 234.282,151.077 236.803,152.768C238.977,154.226 286.833,85.499 288.83,87.161C290.259,88.349 245.874,159.878 247.205,161.164C248.876,162.779 274.805,134.673 276.312,136.43C277.917,138.301 255.089,170.044 256.493,172.064C258.014,174.25 318.747,127.075 320.016,129.419C321.431,132.034 263.348,184.187 264.425,186.976C265.02,188.514 295.623,176.136 296.108,177.722C296.732,179.761 267.202,195.778 267.637,197.886C268.091,200.082 336.556,182.882 336.795,185.144C337.05,187.552 269.065,209.425 269.065,211.896C269.065,214.961 372.967,216.711 372.317,219.63C369.753,231.137 364.34,244.242 342.094,252.235C328.222,257.22 295.44,248.733 277.701,246.811C263.856,245.31 251.616,259.621 239.998,253.968C225.414,246.872 202.112,263.831 192.615,264.899C185.295,265.722 167.753,268.808 156.525,266.164C149.477,264.505 140.733,267.708 134.452,264.426C128.739,261.441 129.863,247.77 116.966,250.396C107.098,252.405 92.23,253.331 82.399,249.285C70.798,244.511 60.379,259.217 51.113,257.57C29.186,253.673 18.973,232.047 17.531,220.482C17.18,217.663 117.267,214.805 117.267,211.896C117.267,208.885 32.659,187.711 33.035,184.796C33.282,182.881 118.41,199.194 118.812,197.328C119.326,194.939 65.619,168.326 66.374,166.029C67.084,163.871 122.243,186.024 123.154,183.958C124.254,181.464 70.683,131.481 72.059,129.139C73.292,127.039 129.445,172.563 130.884,170.599C132.389,168.547 108.14,135.235 109.854,133.346C111.465,131.571 139.026,161.207 140.808,159.589C142.219,158.309 104.584,92.707 106.095,91.531C107.889,90.135 148.849,153.187 150.775,151.95C152.808,150.642 140.989,120.424 143.156,119.305C144.98,118.363 160.773,146.493 162.683,145.694C165.007,144.721 148.755,69.246 151.193,68.495C153.956,67.645 173.166,141.932 176.057,141.385C177.192,141.17 173.845,108.216 175.542,107.911C177.239,107.605 183.98,139.948 185.149,139.833C187.757,139.574 192.572,52.349 195.251,52.349Z" style="fill:none;"/>
    </g>
</svg>
