<?xml version="1.0" encoding="UTF-8" standalone="no"?>
<!DOCTYPE svg PUBLIC "-//W3C//DTD SVG 1.1//EN" "http://www.w3.org/Graphics/SVG/1.1/DTD/svg11.dtd">
<svg width="100%" height="100%" viewBox="0 0 400 400" version="1.1" xmlns="http://www.w3.org/2000/svg" xmlns:xlink="http://www.w3.org/1999/xlink" xml:space="preserve" xmlns:serif="http://www.serif.com/" style="fill-rule:evenodd;clip-rule:evenodd;stroke-linejoin:round;stroke-miterlimit:2;">
    <g transform="matrix(1,0,0,1,4.8697,44.3318)">
        <path d="M240.048,284.892C240.048,284.892 238.292,285.132 236.93,285.132C234.457,285.132 232.046,282.974 229.257,282.974C226.658,282.974 224.337,281.894 221.823,281.535C215.727,280.664 210.967,278.172 204.911,279.037C197.758,280.059 195.031,286.556 187.468,288.316C180.509,289.936 168.711,286.835 162.11,287.53C154.881,288.291 145.801,288.968 138.609,287.53C137.092,287.227 137.318,285.925 136.691,285.612C133.249,283.89 127.525,284.892 123.741,284.892C122.486,284.892 119.44,285.686 118.805,285.275C120.318,286.317 126.003,281.866 127.578,280.815C135.481,275.547 144.147,268.068 149.161,259.712C157.405,245.972 159.076,232.112 161.631,216.787C163.755,204.042 165.468,192.401 165.468,179.137C165.468,171.038 163.659,164.336 162.11,156.595C161.894,155.513 161.926,151.135 161.151,150.36C160.987,150.196 159.153,153.557 158.753,153.957C157.258,155.452 156.555,157.454 153.957,158.753C147.258,162.102 140.167,165.428 131.894,164.508C125.993,163.853 129.301,143.862 129.969,145.532C132.477,151.803 127.606,156.299 124.7,162.11C120.664,170.182 106.176,162.345 101.439,160.192C99.671,159.388 94.781,156.531 94.571,154.586C92.583,136.223 113.593,139.547 105.061,141.966C101.514,142.971 87.857,146.357 83.01,141.056C74.31,131.54 85.839,109.07 93.493,106.738C95.881,106.01 103.262,104.378 99.702,106.76C94.288,110.383 82.383,111.378 78.897,107.194C75.218,102.78 75.353,96.458 74.82,91.127C73.711,80.04 83.291,65.357 87.648,61.112C90.225,58.601 101.395,65.891 103.774,70.872C106.045,75.63 89.486,61.757 92.285,55.458C96.779,45.345 103.73,40.615 106.169,40.384C111.392,39.889 120.151,39.773 121.85,43.664C123.288,46.96 128.505,49.769 125.842,56.437C124.434,59.961 119.323,41.417 124.94,38.609C131.56,35.299 142.244,29.56 149.436,28.122C161.785,25.652 171.815,23.423 183.933,28.297C193.763,32.252 192.162,34.574 193.334,37.837C194.096,39.956 190.834,50.543 189.49,51.685C185.712,54.894 190.908,32.329 194.804,27.568C200.214,20.955 208.517,22.384 217.464,23.502C228.378,24.866 243.449,29.41 249.419,38.776C251.039,41.317 251.365,42.604 248.725,52.2C247.06,58.252 240.32,63.682 242.82,56.18C244.834,50.137 250.906,41.74 256.155,40.529C272.236,36.817 270.187,36.944 280.508,44.065C286.256,48.032 286.383,46.076 286.121,57.595C285.97,64.231 279.589,76.483 276.897,76.092C273.867,75.653 276.738,69.472 280.832,64.016C282.686,61.546 289.791,59.598 293.623,60.752C299.877,62.636 310.826,67.569 312.336,73.608C313.118,76.736 315.534,85.273 315.529,88.212C315.522,93.075 315.561,101.698 315.365,103.999C315.192,106.03 318.126,116.717 299.234,116.912C295.444,116.951 291.667,117.446 291.933,115.755C292.244,113.783 295.196,114.803 299.259,114.481C313.156,113.379 311.067,114.621 312.551,117.96C314.05,121.333 311.707,131.898 312.303,135.475C313.321,141.582 311.399,146.065 311.399,152.141C311.399,156.224 299.707,160.102 297.122,163.549C292.414,169.826 282.403,166.322 281.384,159.186C281.129,157.401 280.409,148.994 282.734,151.319C286.125,154.71 283.067,163.982 279.616,165.707C277.178,166.927 271.166,164.877 268.585,164.508C263.393,163.767 258.828,161.283 253.717,160.432C248.179,159.509 243.933,154.098 244.571,150.01C245.716,142.676 245.3,140.165 248.717,139.538C253.884,138.591 243.262,161.279 235.731,163.789C230.691,165.469 227.505,163.633 223.022,161.391C222.11,160.935 218.767,154.608 218.225,157.314C217.159,162.647 216.584,168.474 214.868,173.621C208.037,194.114 195.192,217.23 202.158,238.129C203.216,241.304 202.702,245.148 205.276,247.722C208.569,251.015 210.799,255.883 214.149,259.233C220.452,265.536 228.477,272.842 234.293,278.657C235.902,280.266 240.048,283.38 240.048,284.892Z" style="fill:none;"/>
    </g>
</svg>
