<?xml version="1.0" encoding="UTF-8" standalone="no"?>
<!DOCTYPE svg PUBLIC "-//W3C//DTD SVG 1.1//EN" "http://www.w3.org/Graphics/SVG/1.1/DTD/svg11.dtd">
<svg width="100%" height="100%" viewBox="0 0 400 400" version="1.1" xmlns="http://www.w3.org/2000/svg" xmlns:xlink="http://www.w3.org/1999/xlink" xml:space="preserve" xmlns:serif="http://www.serif.com/" style="fill-rule:evenodd;clip-rule:evenodd;stroke-linecap:round;stroke-linejoin:round;stroke-miterlimit:1.5;">
    <path d="M23.609,262.625C22.552,264.034 34.578,252.172 38.379,248.371C40.059,246.691 42.521,244.656 44.703,243.565C45.905,242.964 50.702,243.083 52.292,242.553C54.818,241.711 57.537,241.142 60.133,240.277C67.73,237.744 75.829,233.501 82.647,228.387C91.02,222.107 98.768,213.531 106.425,205.874C109.623,202.676 114.038,199.939 116.796,196.262C122.672,188.427 130.743,176.09 138.888,170.659C144.747,166.754 149.316,158.291 155.306,154.697C168.431,146.822 180.709,135.703 195.332,132.048C206.358,129.291 231.291,129.564 240.661,138.934C243.346,141.619 246.028,144.234 248.335,147.694C251.967,153.141 250.971,160.301 253.647,165.654C253.956,166.272 254.157,173.491 253.647,174.001C251.208,176.44 245.314,167.175 243.276,166.665C236.953,165.085 231.004,161.892 224.051,163.63C221.144,164.357 218.521,166.142 215.956,167.424C212.616,169.094 208.465,176.588 206.85,179.819C206.068,181.382 200.607,201.754 200.02,204.103C199.171,207.499 202.384,225.161 205.079,229.652C207.7,234.021 210.731,238.887 214.944,242.047C223.479,248.449 240.236,246.18 249.853,244.577C261.927,242.564 274.919,244.761 286.785,241.794C292.548,240.353 299.244,242.474 304.998,241.035C307.621,240.38 313.022,240.169 315.622,241.035C317.866,241.783 343.314,256.676 339.325,258.981C337.815,259.854 326.751,254.222 316.299,254.66C308.169,255.001 299.772,262.796 298.355,262.087C294.689,260.254 286.3,253.599 285.367,253.599C276.848,253.599 273.714,263.97 266.395,263.97C258.241,263.97 253.019,258.294 246.664,255.117C241.482,252.526 236.032,261.318 232.245,263.211C226.761,265.954 221.81,256.128 217.574,256.128C208.371,256.128 206.508,262.852 198.602,265.488C190.775,268.097 186.687,260.739 180.389,259.164C177.951,258.554 174.963,258.728 172.8,257.646C168.502,255.497 163.481,264.884 160.152,265.994C153.557,268.192 145.452,260.841 139.662,258.911C135.459,257.51 128.254,259.189 125.497,261.947C123.93,263.513 123.229,265.231 121.196,266.247C118.668,267.511 115.027,263.289 113.355,262.452C107.876,259.713 104.107,255.66 97.165,253.346C95.329,252.734 91.923,254.323 90.335,255.117C86.649,256.96 82.933,258.944 79.458,260.682C76.235,262.293 75.061,266.869 71.616,268.018C65.226,270.148 57.891,260.46 51.633,259.417C48.137,258.834 25.792,259.715 23.609,262.625Z" style="fill:none;stroke:black;stroke-width:1px;"/>
</svg>
