<?xml version="1.0" encoding="UTF-8" standalone="no"?>
<!DOCTYPE svg PUBLIC "-//W3C//DTD SVG 1.1//EN" "http://www.w3.org/Graphics/SVG/1.1/DTD/svg11.dtd">
<svg width="100%" height="100%" viewBox="0 0 400 400" version="1.1" xmlns="http://www.w3.org/2000/svg" xmlns:xlink="http://www.w3.org/1999/xlink" xml:space="preserve" xmlns:serif="http://www.serif.com/" style="fill-rule:evenodd;clip-rule:evenodd;stroke-linejoin:round;stroke-miterlimit:2;">
    <g transform="matrix(1,0,0,1,-103.585,2.38007)">
        <path d="M216.438,295.128C216.997,294.011 220.428,284.239 222.503,278.013C226.051,267.371 231.378,257.341 234.965,246.58C237.664,238.484 241.588,230.285 245.386,222.689C247.134,219.193 248.213,215.853 249.972,212.335C251.645,208.989 253.261,205.065 254.868,201.85C258.287,195.012 262.515,188.319 265.654,182.041C267.083,179.183 266.751,175.449 267.803,172.292C268.049,171.555 268.851,168.615 269.188,168.277C269.462,168.003 269.391,162.661 270.352,161.7C270.912,161.14 272.628,159.257 273.093,158.792C273.551,158.334 276.046,156.955 276.627,156.374C277.572,155.429 278.197,153.115 278.92,152.392C279.051,152.261 280.214,151.976 280.736,150.968C281.992,148.541 284.159,139.852 288.615,130.835C295.479,116.944 305.198,101.576 305.316,101.695C305.461,101.84 296.085,117.675 289.318,131.727C284.017,142.736 280.952,152.701 281.091,152.84C281.689,153.438 284.884,149.767 285.369,149.12C287.576,146.178 288.177,148.473 289.636,145.35C289.816,144.965 290.564,144.156 290.897,142.762C291.109,141.877 297.496,131.254 303.488,119.94C310.232,107.204 316.665,93.666 316.849,93.54C317.051,93.401 310.893,108.223 304.022,121.291C298.308,132.158 291.671,141.581 291.743,142.3C291.804,142.906 292.534,143.066 292.623,143.168C292.766,143.334 294.303,141.771 294.483,141.681C295.988,140.928 295.534,143.303 296.975,141.861C297.524,141.313 298.602,140.934 300.301,139.523C300.65,139.234 301.957,139.206 303.204,138.558C303.578,138.364 309.963,127.713 316.788,116.212C323.902,104.223 334.343,88.269 334.777,88.109C334.905,88.061 324.411,105.401 317.099,117.719C311.072,127.871 305.081,136.509 305.31,136.553C306.137,136.714 307.352,136.804 308.322,135.835C309.193,134.963 310.987,132.654 311.322,132.319C312.458,131.183 312.51,133.257 313.998,131.769C314.205,131.563 315.233,131.502 316.509,130.43C317.133,129.905 325.622,119.993 335.656,109.641C348.38,96.515 363.218,82.364 363.594,82.27C363.872,82.199 348.359,98.372 335.373,111.948C326.043,121.703 318.006,130.144 318.126,130.139C319.066,130.098 321.444,129.599 321.824,129.219C323.001,128.042 324.832,127.748 325.523,126.156C325.82,125.473 327.62,125.096 328.147,124.569C328.543,124.173 339.856,113.712 351.682,103.469C363.463,93.266 375.758,83.281 376.199,83.184C376.448,83.129 363.883,94.862 351.685,105.45C341.335,114.435 331.038,122.526 331.286,122.618C331.574,122.726 333.381,121.426 333.948,121.46C334.866,121.514 334.652,122.839 335.297,122.67C336.599,122.328 338.123,120.212 338.614,119.966C339.086,119.731 391.685,80.759 391.871,81.29C392.059,81.828 341.443,119.432 341.231,119.724C340.689,120.467 340.186,122.018 340.28,121.924C341.582,120.622 342.897,119.112 343.915,118.603C345.95,117.585 347.822,117.243 349.908,116.199C350.122,116.093 351.399,115.458 351.768,115.828C353.063,117.122 349.164,120.663 349.164,120.663C349.164,120.663 351.193,120.419 351.748,120.142C352.535,119.749 354.987,117.372 356.046,118.431C356.345,118.73 357.908,119.729 357.534,120.477C357.013,121.519 354.372,121.965 354.372,121.965C354.372,121.965 357.023,121.48 357.72,120.477C358.618,119.186 360.813,119.475 362.7,119.912C363.277,120.045 360.421,122.754 358.278,123.825C357.211,124.359 354.744,124.383 354.744,124.383C354.744,124.383 356.168,124.96 356.738,125.53C357.046,125.838 358.191,126.045 357.72,126.987C357.284,127.86 353.766,128.463 351.422,129.319C350.11,129.799 349.532,130.715 349.18,130.937C348.623,131.289 355.433,129.931 361.147,126.852C371.627,121.204 398.26,94.621 398.371,95.357C398.476,96.051 372.412,121.519 361.081,127.871C354.111,131.778 347.581,133.395 347.405,133.59C346.926,134.122 346.064,135.389 345.712,135.741C344.544,136.909 343.202,136.24 341.801,136.864C340.642,137.38 338.776,138.646 337.904,139.517C336.681,140.74 335.6,139.584 335.156,140.473C334.402,141.981 333.346,140.837 331.854,141.583C330.907,142.057 330.262,143.27 329.608,143.766C328.575,144.551 326.875,143.939 326.515,144.298C324.831,145.983 324.185,146.497 322.616,148.065C322.041,148.641 318.255,147.345 317.329,149.388C316.135,152.022 311.662,151.717 310.429,153.295C310.333,153.419 307.577,155.571 312.87,153.254C316.809,151.53 322.876,150.058 328.626,147.435C345.35,139.806 384.677,117.078 384.58,117.348C384.433,117.757 366.176,128.77 349.305,138.185C341.35,142.625 333.702,146.709 328.406,149.159C318.132,153.911 308.14,156.588 307.569,156.588C306.013,156.588 306.197,157.871 305.596,158.46C302.967,161.043 300.472,158.817 298.886,160.403C298.864,160.425 290.777,165.333 299.402,161.874C305.929,159.256 316.101,156.744 325.878,152.616C347.159,143.63 369.542,132.258 369.375,132.646C369.149,133.171 345.833,145.272 325.602,153.969C310.718,160.367 297.244,164.097 297.182,164.223C297.052,164.483 293.029,165.216 293.029,165.216C293.135,165.327 289.83,167.601 293.898,166.325C298.291,164.947 304.952,163.786 312.305,161.279C335.031,153.528 365.511,141.667 365.396,142.001C365.169,142.663 333.33,155.275 310.864,163.247C299.445,167.299 290.09,169.386 289.275,169.668C289.275,169.668 283.613,173.031 282.783,174.308C281.818,175.794 279.426,174.989 279.912,176.259C281.806,181.202 278.668,180.901 276.255,180.553C273.608,180.171 271.715,182.064 270.094,183.685C268.768,185.011 268.474,185.907 266.769,187.328C264.917,188.871 262.568,192.824 261.333,195.258C256.994,203.805 253.897,210.963 249.925,220.702C248.763,223.55 246.466,227.507 245.121,230.541C242.848,235.669 241.414,241.679 239.057,246.394C236.748,251.013 235.146,256.333 233.128,260.896C229.831,268.353 226.965,275.541 225.032,283.277C223.913,287.749 221.616,293.09 220.241,297.215C218.501,302.433 215.221,312.677 214.211,313.521C213.365,314.228 209.01,314.012 208.821,313.304C208.504,312.118 211.664,306.833 211.934,306.02C213.17,302.315 214.873,298.257 216.438,295.128Z" style="fill:none;"/>
    </g>
</svg>
