<?xml version="1.0" encoding="UTF-8" standalone="no"?>
<!DOCTYPE svg PUBLIC "-//W3C//DTD SVG 1.1//EN" "http://www.w3.org/Graphics/SVG/1.1/DTD/svg11.dtd">
<svg width="100%" height="100%" viewBox="0 0 400 400" version="1.1" xmlns="http://www.w3.org/2000/svg" xmlns:xlink="http://www.w3.org/1999/xlink" xml:space="preserve" xmlns:serif="http://www.serif.com/" style="fill-rule:evenodd;clip-rule:evenodd;stroke-linejoin:round;stroke-miterlimit:2;">
    <g transform="matrix(1,0,0,1,12.7506,-11.3202)">
        <path d="M220.068,216.29C217.504,209.383 191.558,202.779 185.452,197.729C181.772,194.685 179.612,191.891 175.86,188.616C171.378,184.705 153.515,168.669 150.44,165.595C143.238,158.393 135.559,152.068 127.179,145.211C122.633,141.492 101.038,138.036 92.409,141.09C87.227,142.924 71.626,151.776 68.515,157.36C60.363,171.99 57.874,184.613 57.874,200.367C57.874,209.822 59.209,218.202 64.687,226.419C66.716,229.463 78.044,238.72 80.774,239.549C85.878,241.099 94.288,239.628 98.402,238.257C102.434,236.913 107.965,234.584 110.632,230.583C115.316,223.558 117.845,215.095 119.263,207.083C120.809,198.352 120.673,187.542 114.869,181.737C112.532,179.401 99.048,175.412 93.692,177.597C85.661,180.874 86.655,192.515 86.876,201.506C86.996,206.411 92.26,217.088 97.986,215.179C102.496,213.676 104.801,207.493 105.555,203.613C105.945,201.604 106.609,194.116 106.836,195.079C107.063,196.042 108.352,206.523 106.917,209.392C104.573,214.079 104.598,216.432 100.164,218.649C96.492,220.485 89.417,218.532 86.692,214.76C85.681,213.361 82.805,205.337 82.284,197.007C81.749,188.447 83.648,179.558 88.58,176.598C96.932,171.587 110.451,173.255 116.942,178.819C128.625,188.833 124.066,210.17 121.424,226.026C120.685,230.459 117.282,235.435 113.99,238.257C110.727,241.053 108.004,244.072 104.157,246.17C95.047,251.14 80.004,249.681 71.064,245.211C61.736,240.547 56.706,231.789 53.318,222.19C48.809,209.413 49.075,194.434 50.711,181.352C51.737,173.138 54.799,163.81 59.073,156.482C70.21,137.392 100.671,127.462 121.184,133.94C150.196,143.102 177.55,179.79 191.263,190.765C197.06,195.405 211.217,202.924 223.23,203.511C237.232,204.195 242.77,196.699 248.921,192.086C253.167,188.902 256.41,184.742 260.432,181.295C264.891,177.473 270.143,174.701 274.341,170.504C280.451,164.393 294.335,143.579 296.163,140.288C300.437,132.594 304.007,124.599 307.914,116.787C310.3,112.014 315.172,92.582 314.149,88.489C313.274,84.992 312.444,81.376 310.312,78.177C305.037,70.265 290.472,69.476 282.254,70.504C260.901,73.173 240.714,94.007 243.165,116.067C245.117,133.633 266.052,138.471 279.616,130.935C284.771,128.071 290.579,122.85 291.367,116.547C292.115,110.561 290.662,99.29 284.892,95.444C279.431,91.803 268.525,92.416 264.748,98.082C262.642,101.241 261.794,109.434 265.468,111.271C266.73,111.902 269.54,113.311 271.223,112.47C272.335,111.914 273.861,109.832 273.861,109.832C273.861,109.832 272.392,115.243 271.223,115.827C265.399,118.74 261.278,113.924 259.233,109.832C255.195,101.756 261.413,92.825 270.236,89.563C278.523,86.499 289.202,88.599 293.052,96.3C294.732,99.66 297.151,103.538 297.177,110.316C297.209,118.66 291.906,126.799 291.127,127.578C284.65,134.055 280.024,137.488 269.784,140.048C266.839,140.784 254.982,139.643 251.643,138.53C247.148,137.032 237.531,129.377 236.649,124.686C234.85,115.127 236.934,99.522 240.095,90.829C243.741,80.805 253.134,70.247 263.254,66.199C268.726,64.01 288.348,59.164 292.609,59.443C297.871,59.787 314.497,63.726 318.465,67.626C323.756,72.825 325.502,84.124 324.683,89.858C324.132,93.715 320.415,109.695 319.38,112.887C316.411,122.04 312.171,130.97 307.295,139.418C305.017,143.364 293.111,160.975 289.889,166.345C285.328,173.946 263.611,192.683 257.061,198.784C253.463,202.136 246.018,207.878 241.531,211.921C232.741,219.843 236.204,219.064 231.198,235.061C229.982,238.945 228.611,246.767 226.633,253.347C222.204,268.086 222.194,275.816 217.819,291.196C216.578,295.558 215.239,302.823 215.239,306.955C215.239,315.91 215.59,323.721 222.924,331.474C232.226,341.309 241.43,351.108 253.518,353.123C263.783,354.834 275.131,361.243 284.693,356.96C287.267,355.807 296.915,348.658 298.602,346.408C300.759,343.532 303.539,339.537 304.357,335.857C305.528,330.586 304.006,325.356 303.158,320.269C302.706,317.556 298.628,307 296.923,304.442C294.36,300.597 291.07,296.095 287.978,292.794C286.213,290.91 282.971,287.21 280.99,285.954C278.613,284.448 273.664,281.453 271.223,280.917C267.319,280.061 262.032,279.771 259.296,280.683C256.581,281.588 252.547,284.611 250.67,286.996C248.051,290.321 242.733,300.804 242.898,305.946C243.034,310.192 242.521,314.805 244.021,318.556C247.154,326.39 255.064,327.225 261.516,329.376C263.38,329.997 269.969,329.008 271.919,328.358C274.075,327.639 280.448,325.021 281.79,323.151C283.338,320.995 282.804,315.52 282.072,313.323C279.868,306.711 275.334,301.948 269.211,298.886C266.598,297.579 260.449,297.872 258.677,299.645C256.19,302.132 260.351,309.298 259.753,308.998C254.723,306.483 252.863,300.002 258.793,296.049C261.856,294.007 267.324,295.268 270.279,296.571C279.889,300.807 293.922,318.362 282.483,326.941C279.581,329.118 275.705,331.4 271.983,332.02C262.064,333.673 244.226,330.045 240.568,319.07C235.774,304.688 241.953,285.425 255.676,277.583C265.407,272.023 275.205,275.6 283.973,281.181C294.958,288.171 300.084,296.881 305.746,308.203C307.933,312.577 310.134,318.004 310.134,323.018C310.134,330.735 311.1,336.773 307.475,343.771C305.909,346.793 296.968,356.596 295.599,357.813C293.362,359.8 278.823,364.175 269.558,363.017C258.297,361.609 250.139,359.589 240.088,355.281C225.036,348.83 214.132,338.711 208.194,323.866C206.478,319.575 206.541,311.891 206.162,307.138C205.906,303.928 208.507,287.536 210.131,283.477C212.853,276.673 213.398,270.306 216.064,258.456C219.567,242.883 220.986,236.832 221.065,234.619C221.483,223.032 222.632,223.198 220.068,216.29Z" style="fill:none;"/>
    </g>
</svg>
